<?xml version="1.0" encoding="utf-8"?>
<!-- Generator: Adobe Illustrator 16.0.0, SVG Export Plug-In . SVG Version: 6.00 Build 0)  -->
<!DOCTYPE svg PUBLIC "-//W3C//DTD SVG 1.1//EN" "http://www.w3.org/Graphics/SVG/1.1/DTD/svg11.dtd">
<svg version="1.1" xmlns="http://www.w3.org/2000/svg" xmlns:xlink="http://www.w3.org/1999/xlink" x="0px" y="0px" width="1280px"
	 height="800px" viewBox="0 0 1280 800" style="enable-background:new 0 0 1280 800;" xml:space="preserve">
<style type="text/css">
<![CDATA[
	.st0{fill:none;stroke:#FFFFFF;stroke-miterlimit:10;}
	.st1{stroke:#FFFFFF;stroke-width:2;stroke-miterlimit:10;}
	.st2{fill:rgb(240,30,0);stroke:#000000;stroke-width:3;stroke-miterlimit:10;}
	.st3{fill:rgb(50,45,45);}
	.st4{fill:#FFFFFF;}
	.st5{stroke:#000000;stroke-width:3;stroke-miterlimit:10;}
	.st6{stroke:#000000;stroke-width:3;stroke-miterlimit:15;}
	.st7{display:none;}
]]>
</style>
<g id="images" class="st7">

		<image style="display:inline;overflow:visible;" width="104" height="104" xlink:href="../../passbook_Web/boarding/logo.png"  transform="matrix(10.2018 0 0 10.2018 194.4531 -190.2031)">
	</image>

		<image style="display:inline;overflow:visible;" width="954" height="1725" xlink:href="Illustrator-iPhone-5-Wireframe-Mockup.jpg"  transform="matrix(0.2356 -0.1839 0.1839 0.2356 37.9863 399.8931)">
	</image>
</g>
<g id="image2">
</g>
<g id="bg">
	<rect x="-21" y="-6" class="st3" width="1323" height="808"/>
</g>
<g id="star">
	<g>
		<g>
			<g>
				<path class="st4" d="M1179.04,154.71c-2.83,1.21-5.65,2.42-8.48,3.63c-1.77,0.76-0.24,3.34,1.51,2.59
					c2.83-1.21,5.65-2.42,8.48-3.63C1182.32,156.54,1180.79,153.95,1179.04,154.71L1179.04,154.71z"/>
			</g>
		</g>
		<g>
			<g>
				<path class="st4" d="M1203.09,155.19c0-1.75,0-3.5,0-5.25c0-1.2,0-2.41,0-3.61c0-2.18-0.11-0.8-0.43-0.57
					c3.26-2.35,6.52-4.7,9.78-7.04c0.67-0.48,0.98-1.29,0.54-2.05c-6.9-11.98-13.8-23.95-20.7-35.93c-0.56-0.97-2.03-0.97-2.59,0
					c-6.83,11.84-13.65,23.68-20.48,35.53c-0.31,0.54-0.28,1.4,0.23,1.82c2.93,2.4,5.87,4.8,8.8,7.2c-0.76-0.63-0.36-1.09-0.31,0.48
					c0.05,1.46,0.1,2.92,0.15,4.38c0.07,1.95,0.13,3.9,0.2,5.85c0.07,1.93,3.07,1.94,3,0c-0.13-3.76,0.54-8.48-0.46-12.11
					c-0.4-1.46-3.02-2.82-4.09-3.69c-1.73-1.41-3.45-2.82-5.18-4.24c0.08,0.61,0.16,1.21,0.23,1.82
					c6.83-11.84,13.65-23.68,20.48-35.53c-0.86,0-1.73,0-2.59,0c6.9,11.98,13.8,23.95,20.7,35.93c0.18-0.68,0.36-1.37,0.54-2.05
					c-3.37,2.42-6.73,4.84-10.09,7.27c-2.19,1.58-0.74,9.35-0.74,11.79C1200.09,157.13,1203.09,157.13,1203.09,155.19
					L1203.09,155.19z"/>
			</g>
		</g>
		<g>
			<g>
				<path class="st4" d="M1200.84,156.49c2.56,1.48,5.11,2.96,7.67,4.44c1.68,0.97,3.19-1.62,1.51-2.59
					c-2.56-1.48-5.11-2.96-7.67-4.44C1200.67,152.93,1199.16,155.52,1200.84,156.49L1200.84,156.49z"/>
			</g>
		</g>
		<g>
			<g>
				<path class="st4" d="M1171.59,158.83c-1.52-0.86-3.04-1.73-4.56-2.59c-1.05-0.59-2.09-1.19-3.14-1.78
					c-1.88-1.07-0.77-0.3-0.72,0.1c-0.43-3.99-0.87-7.99-1.3-11.98c-0.09-0.81-0.62-1.51-1.5-1.5c-13.82,0.09-27.64,0.18-41.46,0.27
					c-1.13,0.01-1.88,1.27-1.29,2.26c6.93,11.78,13.86,23.56,20.79,35.35c0.32,0.54,1.07,0.93,1.69,0.69
					c3.54-1.37,7.07-2.73,10.61-4.1c-0.92,0.36-1.17-0.24,0.25,0.5c1.29,0.68,2.59,1.35,3.88,2.03c1.73,0.9,3.46,1.81,5.19,2.71
					c1.71,0.9,3.23-1.69,1.51-2.59c-3.37-1.76-7.08-4.57-10.74-5.58c-1.46-0.4-3.98,1.23-5.26,1.73c-2.08,0.8-4.16,1.61-6.24,2.41
					c0.56,0.23,1.13,0.46,1.69,0.69c-6.93-11.78-13.86-23.56-20.79-35.35c-0.43,0.75-0.86,1.5-1.29,2.26
					c13.82-0.09,27.64-0.18,41.46-0.27c-0.5-0.5-1-1-1.5-1.5c0.45,4.12,0.89,8.24,1.34,12.36c0.29,2.71,7.73,5.26,9.87,6.48
					C1171.76,162.38,1173.27,159.79,1171.59,158.83L1171.59,158.83z"/>
			</g>
		</g>
		<g>
			<g>
				<path class="st4" d="M1159.01,188.53c-1.53,0.86-3.05,1.71-4.58,2.57c-1.05,0.59-2.1,1.18-3.15,1.77
					c-1.92,1.08-0.62,0.48-0.27,0.64c-3.64-1.69-7.28-3.39-10.93-5.08c-0.75-0.35-1.61-0.21-2.05,0.54
					c-7.07,11.88-14.14,23.75-21.21,35.63c-0.59,0.99,0.17,2.24,1.29,2.26c13.67,0.16,27.34,0.32,41,0.48
					c0.62,0.01,1.33-0.46,1.45-1.1c0.66-3.73,1.32-7.47,1.98-11.2c-0.17,0.98-0.73,0.83,0.59,0.03c1.25-0.76,2.5-1.52,3.74-2.27
					c1.67-1.01,3.34-2.03,5.01-3.04c1.65-1,0.14-3.6-1.51-2.59c-3.2,1.94-7.67,3.67-10.32,6.31c-1.07,1.07-0.98,4.01-1.22,5.37
					c-0.39,2.2-0.77,4.39-1.16,6.59c0.48-0.37,0.96-0.73,1.45-1.1c-13.67-0.16-27.34-0.32-41-0.48c0.43,0.75,0.86,1.5,1.29,2.26
					c7.07-11.88,14.14-23.75,21.21-35.63c-0.68,0.18-1.37,0.36-2.05,0.54c3.76,1.75,7.52,3.5,11.27,5.25
					c2.45,1.14,8.54-3.94,10.67-5.14C1162.21,190.17,1160.7,187.58,1159.01,188.53L1159.01,188.53z"/>
			</g>
		</g>
		<g>
			<g>
				<path class="st4" d="M1178.85,213.52c-0.04,1.75-0.07,3.5-0.11,5.25c-0.03,1.2-0.05,2.4-0.08,3.61
					c-0.05,2.2,0.09,0.77,0.39,0.56c-3.31,2.28-6.62,4.56-9.92,6.84c-0.69,0.47-0.95,1.29-0.54,2.05
					c6.65,12.12,13.29,24.24,19.94,36.35c0.55,1.01,2.02,0.94,2.59,0c7.07-11.7,14.14-23.39,21.22-35.09
					c0.33-0.54,0.27-1.39-0.23-1.82c-2.88-2.46-5.77-4.92-8.65-7.38c0.78,0.66,0.36,1.06,0.34-0.48c-0.02-1.46-0.04-2.92-0.06-4.38
					c-0.03-1.95-0.05-3.9-0.08-5.86c-0.03-1.93-3.03-1.94-3,0c0.05,3.72-0.77,8.53,0.21,12.11c0.4,1.46,2.97,2.87,4.03,3.77
					c1.7,1.45,3.39,2.9,5.09,4.34c-0.08-0.61-0.16-1.21-0.23-1.82c-7.07,11.7-14.14,23.39-21.22,35.09c0.86,0,1.73,0,2.59,0
					c-6.65-12.12-13.29-24.24-19.94-36.36c-0.18,0.68-0.36,1.37-0.54,2.05c3.41-2.35,6.83-4.7,10.24-7.06
					c2.19-1.51,0.91-9.38,0.96-11.79C1181.89,211.58,1178.89,211.59,1178.85,213.52L1178.85,213.52z"/>
			</g>
		</g>
		<g>
			<g>
				<path class="st4" d="M1209.72,209.91c1.54,0.83,3.08,1.66,4.62,2.49c1.06,0.57,2.12,1.14,3.18,1.71
					c1.88,1.02,0.81,0.3,0.75-0.14c0.52,3.98,1.04,7.97,1.56,11.95c0.1,0.79,0.6,1.53,1.5,1.5c13.82-0.4,27.63-0.79,41.45-1.19
					c1.1-0.03,1.91-1.26,1.29-2.26c-7.19-11.62-14.38-23.25-21.57-34.88c-0.32-0.52-1.07-0.95-1.69-0.69
					c-3.51,1.44-7.01,2.89-10.52,4.33c0.88-0.36,1.19,0.26-0.26-0.47c-1.31-0.65-2.62-1.29-3.92-1.94c-1.75-0.87-3.5-1.73-5.25-2.6
					c-1.73-0.85-3.25,1.73-1.51,2.59c3.44,1.7,7.16,4.33,10.86,5.35c1.46,0.4,3.97-1.31,5.22-1.82c2.06-0.85,4.12-1.7,6.19-2.55
					c-0.56-0.23-1.13-0.46-1.69-0.69c7.19,11.62,14.38,23.25,21.57,34.88c0.43-0.75,0.86-1.5,1.29-2.26
					c-13.82,0.4-27.63,0.79-41.45,1.19c0.5,0.5,1,1,1.5,1.5c-0.54-4.11-1.07-8.22-1.61-12.33c-0.36-2.74-7.78-5.09-9.99-6.27
					C1209.53,206.41,1208.02,209,1209.72,209.91L1209.72,209.91z"/>
			</g>
		</g>
		<g>
			<g>
				<path class="st4" d="M1221.33,180.2c1.54-0.84,3.07-1.68,4.61-2.52c1.05-0.58,2.11-1.15,3.17-1.73
					c1.94-1.06,0.61-0.46,0.27-0.62c3.62,1.73,7.25,3.47,10.87,5.2c0.75,0.36,1.6,0.2,2.05-0.54c7.2-11.8,14.4-23.6,21.6-35.4
					c0.61-0.99-0.18-2.23-1.29-2.26c-13.67-0.31-27.33-0.62-40.99-0.93c-0.62-0.01-1.33,0.46-1.45,1.1c-0.7,3.73-1.4,7.45-2.1,11.18
					c0.19-0.99,0.71-0.82-0.6-0.04c-1.26,0.74-2.51,1.49-3.77,2.23c-1.68,1-3.36,1.99-5.04,2.99c-1.66,0.98-0.15,3.58,1.51,2.59
					c3.2-1.9,7.76-3.58,10.38-6.21c1.07-1.07,1.01-4,1.27-5.37c0.41-2.19,0.82-4.38,1.23-6.58c-0.48,0.37-0.96,0.73-1.45,1.1
					c13.67,0.31,27.33,0.62,40.99,0.93c-0.43-0.75-0.86-1.5-1.29-2.26c-7.2,11.8-14.4,23.6-21.6,35.4c0.68-0.18,1.37-0.36,2.05-0.54
					c-3.74-1.79-7.48-3.58-11.22-5.37c-2.42-1.16-8.6,3.87-10.72,5.04C1218.12,178.54,1219.63,181.13,1221.33,180.2L1221.33,180.2z"
					/>
			</g>
		</g>
		<g>
			<g>
				<path class="st4" d="M1159.27,179.49c-0.33,3.45-0.67,6.89-1,10.34c-0.19,1.93,2.82,1.91,3,0c0.33-3.45,0.67-6.89,1-10.34
					C1162.46,177.56,1159.46,177.58,1159.27,179.49L1159.27,179.49z"/>
			</g>
		</g>
		<g>
			<g>
				<path class="st4" d="M1170.38,209.74c3.07,1.69,6.14,3.38,9.21,5.08c1.7,0.93,3.21-1.66,1.51-2.59
					c-3.07-1.69-6.14-3.38-9.21-5.08C1170.2,206.21,1168.69,208.8,1170.38,209.74L1170.38,209.74z"/>
			</g>
		</g>
		<g>
			<g>
				<path class="st4" d="M1202.92,214.46c2.77-1.52,5.54-3.03,8.32-4.55c1.7-0.93,0.18-3.52-1.51-2.59
					c-2.77,1.52-5.54,3.03-8.32,4.55C1199.71,212.8,1201.22,215.39,1202.92,214.46L1202.92,214.46z"/>
			</g>
		</g>
		<g>
			<g>
				<path class="st4" d="M1219.07,179.42c-0.09,3.23-0.18,6.46-0.27,9.69c-0.05,1.94,2.95,1.93,3,0c0.09-3.23,0.18-6.46,0.27-9.69
					C1222.12,177.48,1219.12,177.49,1219.07,179.42L1219.07,179.42z"/>
			</g>
		</g>
		<g>
			<g>
				<path class="st4" d="M1198.62,183.18c-0.55,10.21-15.29,10.21-15.84,0C1182.22,172.97,1198.07,173.03,1198.62,183.18
					c0.1,1.92,3.1,1.93,3,0c-0.33-6.18-4.74-10.59-10.92-10.92c-6.17-0.33-10.62,5.24-10.92,10.92
					c-0.33,6.17,5.24,10.61,10.92,10.92c6.17,0.33,10.61-5.24,10.92-10.92C1201.72,181.25,1198.72,181.26,1198.62,183.18z"/>
			</g>
		</g>
	</g>
	<g>
		<g>
			<g>
				<path class="st4" d="M1057.11,125.36c9.49,5.95,20.75,9.5,31.95,7.19c19.19-3.96,29-24.77,34.55-41.46
					c0.4-1.22-1.12-2.43-2.2-1.69c-12.87,8.74-30.86,8.75-37.65-7.36c-1.05-2.5-3.78-9.87-2.03-12.16c1.17-1.53,2.2-3.17,3.16-4.83
					c2.08-3.59,3.66-7.49,4.73-11.5c7.4-27.71-18.85-44.19-41.53-51.65c-1.19-0.39-2.46,1.13-1.69,2.2
					c9.28,12.93,7.93,32.42-9.19,37.65c-2.37,0.72-10.84,2.3-12.87,0.27c-1.13-1.13-2.73-1.79-4.14-2.51
					c-3.49-1.78-7.18-3.16-11.01-4.02c-27.17-6.12-43.73,22.14-52.51,43.19c0.96,0.27,1.93,0.53,2.89,0.8
					c0.38-1.33,4.54-3.15,5.79-3.83c2.3-1.25,4.78-2.05,7.31-2.67c4.95-1.2,10.14-0.69,14.87,1.08
					c11.1,4.14,14.73,16.17,13.43,26.96c-0.18,1.54,2.1,1.97,2.79,0.76c0.07-0.13,0.15-0.26,0.22-0.39
					c0.82-1.44-1.25-3.17-2.36-1.82c-7.44,9.17-11.01,21.52-8.39,33.15c4.57,20.27,26.18,28.88,43.57,35.05
					c1.5,0.53,2.4-1.47,1.46-2.51c-6.8-7.49-10.08-17.83-5.85-27.45c4.27-9.71,14.9-13.13,24.77-12.5c1.93,0.12,1.92-2.88,0-3
					c-11.56-0.73-22.89,3.83-27.76,14.9c-4.61,10.48-0.6,22.11,6.72,30.18c0.49-0.84,0.97-1.67,1.46-2.51
					c-16.77-5.95-36.63-13.76-41.47-32.96c-2.61-10.35,1-22.09,7.62-30.23c-0.79-0.61-1.57-1.21-2.36-1.82
					c-0.07,0.13-0.15,0.26-0.22,0.39c0.93,0.25,1.86,0.5,2.79,0.76c1.53-12.7-3.44-24.72-15.63-29.85
					c-5.52-2.33-11.84-2.2-17.57-0.81c-3.91,0.95-12.87,4.08-14.09,8.33c-0.55,1.92,2.17,2.52,2.89,0.8
					c6.29-15.07,15.03-32.14,30.62-39.36c8.67-4.01,18.46-2.64,26.89,1.21c1.56,0.71,3.08,1.53,4.57,2.38
					c2.83,1.61,5.4,1.9,8.79,1.96c6.48,0.1,12.72-2.3,17.53-6.59c10.7-9.56,8.65-25.86,1.01-36.49c-0.56,0.73-1.13,1.47-1.69,2.2
					c15.06,4.96,32.48,12.91,38.66,28.75c3.64,9.32,1.69,19.67-2.75,28.34c-1.77,3.47-4.93,6.24-4.68,10.28
					c0.46,7.26,3.01,14.34,8.06,19.65c9.81,10.31,25.74,7.39,36.34,0.2c-0.73-0.56-1.47-1.13-2.2-1.69
					c-5.42,16.32-14.62,35.69-33.21,39.52c-10.01,2.06-20.49-1.78-28.89-7.05C1056.98,121.74,1055.48,124.34,1057.11,125.36
					L1057.11,125.36z"/>
			</g>
		</g>
		<g>
			<g>
				<path class="st4" d="M1048.5,83.64c-0.54,9.98-15.18,9.98-15.72,0C1032.23,73.67,1047.96,73.71,1048.5,83.64
					c0.11,1.92,3.11,1.93,3,0c-0.76-13.83-20.96-13.83-21.72,0c-0.33,6.11,5.27,10.43,10.86,10.73c6.08,0.32,10.55-5.09,10.86-10.73
					C1051.6,81.71,1048.6,81.72,1048.5,83.64z"/>
			</g>
		</g>
	</g>
	<g>
		<g>
			<g>
				<path class="st4" d="M569.81,663.44c-1.41-4.05-2.82-8.1-4.23-12.15c-0.71-2.03-1.41-4.05-2.12-6.08
					c-0.32-0.92-1.24,1.63,0,0.35c5.39-5.58,10.78-11.16,16.17-16.74c12.14-12.56,24.28-25.13,36.42-37.69c-0.71,0-1.41,0-2.12,0
					c1.32,1.1,0.64-0.87,0.7,0.66c0.04,1.05,0.08,2.1,0.13,3.15c0.16,3.96,0.32,7.91,0.47,11.86c0.47,11.7,0.93,23.4,1.4,35.11
					c0.33,8.39,0.67,16.79,1,25.18c0.08,1.96-0.31,0.59,0.74,0.04c-1.5,0.79-3,1.57-4.49,2.36c-4.01,2.1-8.01,4.2-12.02,6.3
					c-0.62,0.32-0.82,1.05-0.69,1.69c1.55,7.32,3.1,14.65,4.65,21.97c0.1,0.47,0.57,0.96,1.05,1.05c3.93,0.69,7.86,1.38,11.79,2.08
					c2.14,0.38,4.28,0.75,6.42,1.13c0.99,0.17-0.77-1.86-0.25-0.17c2.28,7.42,4.56,14.83,6.85,22.24
					c5.14,16.7,10.28,33.4,15.42,50.1c0.35-0.61,0.7-1.23,1.05-1.84c-1.61,0.64,0.48,1.01-0.9,0.32c-0.94-0.47-1.88-0.94-2.82-1.41
					c-3.79-1.89-7.57-3.79-11.36-5.68c-10.79-5.4-21.57-10.8-32.36-16.2c-7.1-3.55-14.21-7.11-21.31-10.67
					c-1.54-0.77,0.02,1.34,0.04,0.38c0.05-2.45,0.1-4.9,0.15-7.35c0.08-4.01,0.51-8.16,0.08-12.15c-0.08-0.71-0.41-1.2-1.1-1.45
					c-6.53-2.32-13.05-4.64-19.58-6.96c-0.47-0.17-1.14,0.01-1.46,0.39c-2.6,3.03-5.19,6.06-7.79,9.09
					c-1.41,1.65-2.83,3.3-4.24,4.95c-0.66,0.77,2.03,0.27,0.3-0.14c-7.54-1.81-15.09-3.62-22.63-5.44
					c-16.99-4.08-33.98-8.16-50.97-12.25c0.35,0.62,0.7,1.23,1.05,1.84c0.27-1.68-1.06-0.13,0.21-0.96
					c0.88-0.57,1.77-1.14,2.65-1.71c3.33-2.14,6.65-4.29,9.98-6.43c9.84-6.34,19.69-12.69,29.53-19.03
					c7.06-4.55,14.12-9.1,21.18-13.65c1.65-1.06,0.67-0.03-0.36-0.67c1.44,0.89,2.88,1.78,4.31,2.67c3.85,2.39,7.69,4.77,11.54,7.16
					c0.6,0.37,1.32,0.21,1.82-0.23c5.11-4.52,10.21-9.04,15.32-13.56c1.45-1.29-0.68-3.4-2.12-2.12
					c-5.11,4.52-10.21,9.04-15.32,13.56c0.61-0.08,1.21-0.16,1.82-0.23c-5.3-3.29-10.6-6.58-15.9-9.87c-0.44-0.27-1.08-0.28-1.51,0
					c-11.55,7.44-23.09,14.88-34.64,22.32c-7.61,4.9-15.21,9.8-22.82,14.71c-2.8,1.8-7.99,3.67-8.57,7.24
					c-0.13,0.78,0.19,1.64,1.05,1.84c24.8,5.96,49.6,11.92,74.39,17.87c0.49,0.12,1.11,0.02,1.46-0.39
					c2.17-2.54,4.35-5.07,6.52-7.61c1.35-1.58,2.71-3.16,4.06-4.74c0.48-0.56,0.97-1.13,1.45-1.69c0.86-1-1.27-0.11-0.87,0.03
					c6.45,2.29,12.91,4.59,19.36,6.88c-0.37-0.48-0.73-0.96-1.1-1.45c0.71,6.55-0.11,13.47-0.24,20.06
					c-0.01,0.5,0.29,1.07,0.74,1.29c12.28,6.15,24.57,12.3,36.85,18.45c8.09,4.05,16.19,8.1,24.28,12.15
					c2.98,1.49,7.26,5.03,10.63,3.69c0.74-0.29,1.31-1,1.05-1.84c-7.5-24.37-15-48.75-22.51-73.12c-0.14-0.47-0.54-0.96-1.05-1.05
					c-3.29-0.58-6.58-1.16-9.87-1.74c-2.27-0.4-4.55-0.8-6.82-1.2c-0.61-0.11-1.21-0.21-1.82-0.32c-0.63-0.11,0.95,1.73,0.69,0.52
					c-1.51-7.16-3.03-14.33-4.54-21.49c-0.23,0.56-0.46,1.13-0.69,1.69c5.52-2.9,11.05-5.79,16.57-8.69
					c0.45-0.23,0.76-0.79,0.74-1.29c-0.55-13.73-1.09-27.45-1.64-41.18c-0.36-9.04-0.72-18.09-1.08-27.13
					c-0.13-3.35,0.89-8.75-1.91-11.07c-0.62-0.51-1.51-0.63-2.12,0c-17.72,18.34-35.44,36.68-53.16,55.01
					c-0.35,0.37-0.56,0.96-0.39,1.46c2.18,6.25,4.36,12.5,6.53,18.75C567.55,666.05,570.45,665.27,569.81,663.44L569.81,663.44z"/>
			</g>
		</g>
		<g>
			<g>
				<path class="st4" d="M576.15,683.44c11.27-1.21,15.12,14.26,4.18,17.92c-4.94,1.65-9.8-1.85-11.32-6.4
					c-1.83-5.46,2.45-10.46,7.54-11.57c1.89-0.41,1.09-3.3-0.8-2.89c-6.52,1.42-10.66,7.06-9.94,13.72
					c0.73,6.79,7.33,11.03,13.77,10.34c6.79-0.73,11.04-7.34,10.34-13.78c-0.73-6.78-7.33-11.03-13.77-10.34
					C574.25,680.65,574.23,683.65,576.15,683.44z"/>
			</g>
		</g>
	</g>
</g>
<g id="double">
</g>
<g id="small_soward">
	<g>
		<g>
			<g>
				<path class="st4" d="M1112.18,382.97c10.29,17.88,21.13,35.51,34.3,51.44c11.65,14.1,25.3,26.34,38.98,38.41
					c1.44,1.27,3.58-0.84,2.12-2.12c-13.11-11.56-26.09-23.29-37.46-36.6c-13.75-16.1-24.82-34.35-35.35-52.65
					C1113.81,379.78,1111.22,381.29,1112.18,382.97L1112.18,382.97z"/>
			</g>
		</g>
		<g>
			<g>
				<path class="st4" d="M1221.27,445.38c-10.55-17.75-21.91-35.06-35.76-50.43c-12.03-13.35-25.92-24.88-39.54-36.55
					c-1.46-1.25-3.59,0.86-2.12,2.12c13.34,11.42,26.82,22.74,38.74,35.67c14.11,15.3,25.48,32.87,36.09,50.7
					C1219.67,448.55,1222.26,447.04,1221.27,445.38L1221.27,445.38z"/>
			</g>
		</g>
		<g>
			<g>
				<path class="st4" d="M1218.68,445.38c-3,5.03-5.69,10.37-9.8,14.6c-5.64,5.81-14.08,8.25-21.64,10.35
					c-1.86,0.52-1.07,3.41,0.8,2.89c7.71-2.14,15.49-4.69,21.68-9.93c5.12-4.33,8.18-10.75,11.55-16.4
					C1222.26,445.22,1219.67,443.72,1218.68,445.38L1218.68,445.38z"/>
			</g>
		</g>
		<g>
			<g>
				<path class="st4" d="M1191.56,471.05c8.62,11.22,17.23,22.44,25.85,33.66c1.16,1.51,3.77,0.02,2.59-1.51
					c-8.62-11.22-17.23-22.44-25.85-33.66C1192.99,468.03,1190.38,469.52,1191.56,471.05L1191.56,471.05z"/>
			</g>
		</g>
		<g>
			<g>
				<path class="st4" d="M1218.09,451.35c9.65,9.21,19.3,18.42,28.94,27.64c1.4,1.33,3.52-0.78,2.12-2.12
					c-9.65-9.21-19.3-18.42-28.94-27.64C1218.81,447.9,1216.69,450.02,1218.09,451.35L1218.09,451.35z"/>
			</g>
		</g>
		<g>
			<g>
				<path class="st4" d="M1247.01,478.75c-1.26,14.06-13.42,24.27-27.38,23.75c-1.94-0.07-1.93,2.93,0,3
					c15.7,0.58,28.98-11.11,30.38-26.75C1250.18,476.82,1247.18,476.83,1247.01,478.75L1247.01,478.75z"/>
			</g>
		</g>
		<g>
			<g>
				<path class="st4" d="M1143.88,354.51c-0.35,14.39-11.53,25.57-25.93,25.93c-14.39,0.35-25.59-12.07-25.93-25.93
					c-0.35-14.39,12.06-25.59,25.93-25.93C1132.35,328.23,1143.54,340.65,1143.88,354.51c0.05,1.93,3.05,1.94,3,0
					c-0.39-16.04-12.88-28.53-28.93-28.93c-16.04-0.39-28.55,13.48-28.93,28.93c-0.39,16.04,13.47,28.55,28.93,28.93
					c16.04,0.39,28.55-13.48,28.93-28.93C1146.93,352.58,1143.93,352.58,1143.88,354.51z"/>
			</g>
		</g>
		<g>
			<g>
				<path class="st4" d="M894.45,118.79c18.42,43.28,45.79,81.5,78.26,115.33c26.24,27.34,55.89,51,82.89,77.52
					c1.38,1.36,3.5-0.76,2.12-2.12c-26.35-25.88-55.17-49.05-80.97-75.53c-33.18-34.05-61.04-72.84-79.72-116.71
					C896.29,115.5,893.71,117.03,894.45,118.79L894.45,118.79z"/>
			</g>
		</g>
		<g>
			<g>
				<path class="st4" d="M895.83,119.05c43.21,18.92,77.75,50.92,107.51,86.88c24.26,29.31,44.73,62.53,72.2,89.05
					c4.21,4.06,8.67,7.85,13.4,11.29c1.57,1.14,3.06-1.46,1.51-2.59c-13.3-9.7-24.24-22.34-34.56-35.05
					c-12.41-15.29-23.97-31.26-36.04-46.82c-27.39-35.31-57.81-68.75-96.44-91.98c-8.38-5.04-17.11-9.46-26.06-13.38
					C895.59,115.69,894.06,118.27,895.83,119.05L895.83,119.05z"/>
			</g>
		</g>
		<g>
			<g>
				<path class="st4" d="M1088.93,306.27c13.88,10.67,28.77,17.82,46.21,12.74c1.85-0.54,1.06-3.43-0.8-2.89
					c-16.65,4.84-30.69-2.29-43.9-12.44C1088.91,302.5,1087.42,305.11,1088.93,306.27L1088.93,306.27z"/>
			</g>
		</g>
		<g>
			<g>
				<path class="st4" d="M1085.93,258.29c14,5.15,26,15.23,35.64,26.42c6.15,7.14,17.53,21.68,12.16,31.83
					c-0.9,1.71,1.69,3.23,2.59,1.51c5.61-10.62-3.79-24.39-10.13-32.39c-10.27-12.97-23.79-24.5-39.46-30.26
					C1084.91,254.73,1084.13,257.62,1085.93,258.29L1085.93,258.29z"/>
			</g>
		</g>
		<path class="st0" d="M1089.13,419.16"/>
		<path class="st0" d="M1010.21,318.97"/>
		<g>
			<g>
				<path class="st4" d="M1183.49,337.88c-5.88-20.51-15.54-39.67-30.29-55.23c-16.92-17.86-39.59-28.83-63.11-35.09
					c-1.87-0.5-2.67,2.4-0.8,2.89c22.82,6.07,44.17,16.53,60.92,33.42c14.98,15.11,24.57,34.52,30.39,54.8
					C1181.13,340.53,1184.03,339.74,1183.49,337.88L1183.49,337.88z"/>
			</g>
		</g>
		<g>
			<g>
				<path class="st4" d="M1093.05,419.34c-21.74-0.27-40.22-14.73-53.82-30.48c-13.79-15.98-24.67-36.23-27.9-57.24
					c-0.57-3.71,0.18-8-0.7-11.56c-0.79-3.19,4.56-2.24,5.34-1.19c0.72,0.96,0.96,3.04,1.33,4.17c0.93,2.92,2.13,5.75,3.4,8.54
					c4.65,10.27,11.71,19.54,20.01,27.12c7.12,6.51,30.09,22.3,36.15,7.23c7.67-19.07-7.36-41.49-18.45-55.59
					c-1.2-1.52-3.3,0.62-2.12,2.12c8.13,10.33,15.49,21.79,18.45,34.76c1.35,5.93,2.19,16.23-2.62,21.04
					c-1.98,1.98-8.39,0.24-10.58-0.37c-4.78-1.33-9.15-3.99-13.18-6.83c-9.76-6.88-17.48-16.67-23.14-27.09
					c-1.57-2.89-2.88-5.9-4.06-8.96c-0.8-2.06-1.1-5.65-2.39-7.37c-1.82-2.43-3.7-3.27-6.77-2.72c-7.17,1.29-4.12,13.93-3.41,18.55
					c3.07,19.92,13.59,38.84,25.97,54.42c14.14,17.8,34.76,34.14,58.47,34.43C1094.99,422.36,1094.98,419.36,1093.05,419.34
					L1093.05,419.34z"/>
			</g>
		</g>
		<g>
			<g>
				<path class="st4" d="M1087.22,255.6c-0.46-1.91-0.09-4.44,2.04-5.12c1.83-0.59,1.05-3.48-0.8-2.89
					c-3.77,1.21-4.99,5.24-4.14,8.81C1084.78,258.28,1087.67,257.48,1087.22,255.6L1087.22,255.6z"/>
			</g>
		</g>
		<g>
			<g>
				<path class="st4" d="M1095.22,420.37c-0.79-8.54-1.58-17.08-2.37-25.61c-0.18-1.91-3.18-1.93-3,0
					c0.79,8.54,1.58,17.08,2.37,25.61C1092.4,422.28,1095.4,422.29,1095.22,420.37L1095.22,420.37z"/>
			</g>
		</g>
		<g>
			<g>
				<path class="st4" d="M1092.15,395.87c2.61-2.89,5.22-5.78,7.84-8.68c1.29-1.43-0.82-3.56-2.12-2.12
					c-2.61,2.89-5.22,5.78-7.84,8.68C1088.74,395.18,1090.85,397.31,1092.15,395.87L1092.15,395.87z"/>
			</g>
		</g>
		<g>
			<g>
				<path class="st4" d="M1099.79,387.76c5.5,1.18,11,2.37,16.5,3.55c1.89,0.41,2.69-2.49,0.8-2.89c-5.5-1.18-11-2.37-16.5-3.55
					C1098.71,384.47,1097.9,387.36,1099.79,387.76L1099.79,387.76z"/>
			</g>
		</g>
		<g>
			<g>
				<path class="st4" d="M1151.36,362.81c0.09-7.53,0.19-15.05,0.28-22.58c0.02-1.94-2.98-1.93-3,0
					c-0.09,7.53-0.19,15.05-0.28,22.58C1148.34,364.75,1151.34,364.75,1151.36,362.81L1151.36,362.81z"/>
			</g>
		</g>
		<g>
			<g>
				<path class="st4" d="M1151.2,341.3c2.24-2.15,4.48-4.29,6.72-6.44c1.4-1.34-0.72-3.46-2.12-2.12c-2.24,2.15-4.48,4.29-6.72,6.44
					C1147.68,340.52,1149.81,342.64,1151.2,341.3L1151.2,341.3z"/>
			</g>
		</g>
		<g>
			<g>
				<path class="st4" d="M1156.74,335.52c8.21,1.69,16.42,3.37,24.62,5.06c1.89,0.39,2.69-2.5,0.8-2.89
					c-8.21-1.69-16.42-3.37-24.62-5.06C1155.65,332.24,1154.84,335.13,1156.74,335.52L1156.74,335.52z"/>
			</g>
		</g>
		<g>
			<g>
				<path class="st4" d="M897.95,121.7c28.9,30.85,57.8,61.69,86.7,92.54c36.11,38.54,72.22,77.08,108.32,115.63
					c1.41,1.51,2.83,3.02,4.24,4.52c1.33,1.41,3.44-0.71,2.12-2.12c-28.9-30.85-57.8-61.69-86.7-92.54
					c-36.11-38.54-72.22-77.08-108.32-115.63c-1.41-1.51-2.83-3.02-4.24-4.52C898.75,118.17,896.63,120.29,897.95,121.7
					L897.95,121.7z"/>
			</g>
		</g>
		<g>
			<g>
				<path class="st4" d="M1012.07,317.57c4.19,33.64,30.43,56.38,59.23,70.7c1.73,0.86,3.25-1.73,1.51-2.59
					c-27.71-13.78-53.7-35.6-57.75-68.11C1014.83,315.68,1011.83,315.65,1012.07,317.57L1012.07,317.57z"/>
			</g>
		</g>
		<g>
			<g>
				<path class="st4" d="M1087.41,254.96c15.65,5.51,30.25,13.33,41.46,25.77c9.7,10.76,15.72,24.29,21.23,37.52
					c0.73,1.76,3.64,0.99,2.89-0.8c-5.62-13.48-11.71-26.77-21.25-37.98c-11.37-13.38-27.21-21.65-43.54-27.4
					C1086.37,251.42,1085.59,254.32,1087.41,254.96L1087.41,254.96z"/>
			</g>
		</g>
		<g>
			<g>
				<path class="st4" d="M1073.96,388.04c6.62-6.34,13.25-12.69,19.87-19.03c1.4-1.34-0.72-3.46-2.12-2.12
					c-6.62,6.34-13.25,12.69-19.87,19.03C1070.44,387.25,1072.56,389.37,1073.96,388.04L1073.96,388.04z"/>
			</g>
		</g>
		<g>
			<g>
				<path class="st4" d="M1136.37,332.06c5.13-4.38,10.26-8.77,15.39-13.15c1.47-1.26-0.66-3.37-2.12-2.12
					c-5.13,4.38-10.26,8.77-15.39,13.15C1132.78,331.2,1134.91,333.31,1136.37,332.06L1136.37,332.06z"/>
			</g>
		</g>
		<g>
			<g>
				<path class="st4" d="M1071.84,388.6c6.62,7.56,13.25,15.11,19.87,22.67c1.28,1.46,3.39-0.67,2.12-2.12
					c-6.62-7.56-13.25-15.11-19.87-22.67C1072.68,385.02,1070.57,387.15,1071.84,388.6L1071.84,388.6z"/>
			</g>
		</g>
		<g>
			<g>
				<path class="st4" d="M1150.78,319.14c9.51,6.53,19.03,13.06,28.55,19.59c1.6,1.1,3.1-1.5,1.51-2.59
					c-9.51-6.53-19.03-13.06-28.55-19.59C1150.7,315.46,1149.2,318.06,1150.78,319.14L1150.78,319.14z"/>
			</g>
		</g>
	</g>
</g>
<g id="hammer">
	<g>
		<g>
			<g>
				<path class="st4" d="M1043.41,760.29c20.94-25.1,40.67-51.19,61.78-76.16c0.88-1.05,0.08-3.05-1.46-2.51
					c-2.01,0.71-8.08,3.24-5.06,6.26c2.33,2.33,5.66-2.58,6.76-4.06c0.79-1.07-0.51-2.59-1.69-2.2c-5.05,1.66-15.19,3.9-18.68-1.59
					c-2.63-4.13,1.24-11.37,3.28-14.92c2.19-3.8,4.91-7.28,7.22-11.01c0.5-0.81,0.04-1.98-0.9-2.2c-7.21-1.71-1.48,9.01,1.05,1.84
					c0.33-0.94-0.52-1.89-1.45-1.9c-6.8-0.05-13.65,1.39-20.36-0.34c-12.91-3.34-2.38-17.76-0.09-25.12
					c0.34-1.11-0.77-2.14-1.84-1.84c-6.2,1.68,0.7,8.01,1.84,1.84c0.22-1.19-1.01-2.49-2.2-1.69c-6.63,4.44-16.04,11.53-24.13,6.63
					c-5.89-3.57-6.13-13.7-8.12-19.58c-0.34-1.02-1.7-1.54-2.51-0.66c-4.55,4.97,5.51,6.29,2.36,0.3c-0.42-0.8-1.75-1.04-2.36-0.3
					c-4.46,5.45-6.92,16.29-15.09,17.04c-7.45,0.69-16.49-6.54-19.58-12.88c-0.46-0.94-2.16-1.02-2.59,0
					c-3.02,7.11,8.42,3.1,2.05-0.54c-0.87-0.5-1.91-0.03-2.2,0.9c-1.98,6.24-0.8,13.34-4.03,19.17c-4.88,8.79-19.36,5.53-26.6,2.46
					c-0.91-0.39-2.4,0.02-2.26,1.29c0.87,7.7,8.96-1.43,1.5-1.5c-0.91-0.01-1.79,0.98-1.45,1.9c3.08,8.13,7.66,17.21,2.93,25.63
					c-3.86,6.87-12.81,9.93-19.91,11.91c-1.12,0.31-1.42,1.69-0.66,2.51c5.18,5.61,6-7.48,0-2.12c-0.75,0.67-0.47,1.86,0.3,2.36
					c5.8,3.74,14.86,7.4,15.88,15.14c1.08,8.26-9.22,14.61-13.41,20.58c-0.69,0.98,0.25,2.22,1.29,2.26
					c6.66,0.26,2.63-8.03-1.29-2.26c-0.64,0.94,0.21,2.29,1.29,2.26c7.54-0.24,20.95-4.67,24.31,5.13
					c2.15,6.27-2.66,14.05-3.06,20.42c-0.06,0.93,1.01,1.76,1.9,1.45c6.55-2.32-1.65-8.15-1.9-1.45c-0.05,1.3,1.68,2,2.56,1.06
					c5.39-5.73,13.92-9.22,21.78-7.76c5.99,1.11,5.31,5.62,5.85,10.53c0.47,4.28,1.26,8.53,2.05,12.77
					c0.22,1.17,1.74,1.37,2.51,0.66c4.81-4.44-3.96-7.16-2.51-0.66c0.31,1.37,2.05,1.34,2.74,0.36c4.45-6.32,9.79-12.51,17.38-14.97
					c1.73-0.56,3.55-0.6,5.34-0.55c3.6,0.09,4.59,2.26,5.55,5.28c1.07,3.37,1.78,6.79,3.1,10.08c0.71,1.77,3.61,1,2.89-0.8
					c-1.82-4.53-2.49-9.44-4.55-13.86c-1.55-3.33-5.2-3.65-8.46-3.74c-10.35-0.26-18.48,9.44-23.84,17.05
					c0.91,0.12,1.83,0.24,2.74,0.36c-0.84-0.22-1.67-0.44-2.51-0.66c0.84,0.22,1.67,0.44,2.51,0.66c-1.28-6.79-2.41-13.6-2.52-20.53
					c-0.05-3.02-6.5-4.69-8.7-5.1c-8.33-1.55-17.86,2.77-23.48,8.76c0.85,0.35,1.71,0.71,2.56,1.06c-0.63-0.48-1.27-0.96-1.9-1.45
					c0.63,0.48,1.27,0.96,1.9,1.45c0.51-8.14,6.47-17.02,1.22-24.71c-5.48-8.04-17.67-4.08-25.47-3.83c0.43,0.75,0.86,1.5,1.29,2.26
					c-0.43-0.75-0.86-1.5-1.29-2.26c0.43,0.75,0.86,1.5,1.29,2.26c5.13-7.31,15.01-13.01,13.67-23.22
					c-1.1-8.36-11.02-12.61-17.21-16.6c0.1,0.79,0.2,1.57,0.3,2.36c0-0.71,0-1.41,0-2.12c-0.22,0.84-0.44,1.67-0.66,2.51
					c7.56-2.1,16.37-5.32,20.94-12.15c6.3-9.41,1.74-19.55-1.87-29.07c-0.48,0.63-0.96,1.27-1.45,1.9c0.5-0.5,1-1,1.5-1.5
					c-0.75,0.43-1.5,0.86-2.26,1.29c8.63,3.66,19.82,5.75,27.88-0.35c6.97-5.27,4.83-15.73,7.16-23.08c-0.73,0.3-1.47,0.6-2.2,0.9
					c0.68-0.18,1.37-0.36,2.05-0.54c-0.86,0-1.73,0-2.59,0c3.41,7.01,12.14,13.53,20,14.26c11.29,1.04,13.64-10.82,19.38-17.82
					c-0.79-0.1-1.57-0.2-2.36-0.3c0.79,0.1,1.57,0.2,2.36,0.3c-0.84-0.22-1.67-0.44-2.51-0.66c2.52,7.45,2.77,16.22,9.5,21.37
					c8.33,6.38,20.29-2.04,27.15-6.63c-0.73-0.56-1.47-1.13-2.2-1.69c0.62,0.61,1.23,1.23,1.84,1.84c-0.61-0.62-1.23-1.23-1.84-1.84
					c-2.6,8.34-11.68,19.34-2.19,26.71c6.88,5.34,17.6,2.49,25.53,2.55c-0.48-0.63-0.96-1.27-1.45-1.9c0.35,0.62,0.7,1.23,1.05,1.84
					c-0.3-0.73-0.6-1.47-0.9-2.2c-4.66,7.54-16.15,20.1-10.04,29.68c4.07,6.38,15.79,4.16,21.61,2.25c-0.56-0.73-1.13-1.47-1.69-2.2
					c-0.63,0.85-1.3,1.63-2.03,2.4c0.3,1.29,0.87,1.5,1.71,0.63c0.65-0.32,1.33-0.6,2.02-0.83c-0.49-0.84-0.97-1.67-1.46-2.51
					c-21.11,24.97-40.84,51.06-61.78,76.16C1040.06,759.64,1042.17,761.77,1043.41,760.29L1043.41,760.29z"/>
			</g>
		</g>
		<g>
			<g>
				<path class="st4" d="M1071.22,684.21c-0.37,24.46-19.92,44.01-44.37,44.37c-24.46,0.37-44.02-20.47-44.38-44.37
					c-0.37-24.46,20.47-44.02,44.38-44.37C1051.3,639.47,1070.86,660.31,1071.22,684.21c0.03,1.93,3.03,1.94,3,0
					c-0.32-21.33-14.28-39.72-34.78-45.68c-20.57-5.99-42.61,3.78-53.5,21.77c-11.11,18.36-7.28,42.3,7.41,57.41
					c14.95,15.38,39.06,17.81,57.41,7.41c14.62-8.28,23.22-24.34,23.46-40.91C1074.25,682.28,1071.25,682.28,1071.22,684.21z"/>
			</g>
		</g>
		<g>
			<g>
				<path class="st4" d="M1054.48,685.5c-0.35,15.32-12.31,27.28-27.64,27.63c-15.32,0.35-27.29-12.84-27.63-27.63
					c-0.35-15.32,12.84-27.29,27.63-27.63C1042.16,657.51,1054.14,670.71,1054.48,685.5c0.04,1.93,3.04,1.94,3,0
					c-0.39-16.97-13.66-30.24-30.64-30.63c-16.97-0.39-30.26,14.25-30.63,30.63c-0.39,16.97,14.25,30.25,30.63,30.63
					c16.97,0.39,30.26-14.25,30.64-30.63C1057.52,683.57,1054.52,683.57,1054.48,685.5z"/>
			</g>
		</g>
		<g>
			<g>
				<path class="st4" d="M1042.13,762.17c6.33-0.21,12.66-0.43,18.99-0.64c1.93-0.07,1.94-3.07,0-3
					c-6.33,0.21-12.66,0.43-18.99,0.64C1040.21,759.24,1040.2,762.24,1042.13,762.17L1042.13,762.17z"/>
			</g>
		</g>
		<g>
			<g>
				<path class="st4" d="M1103.41,683.09c0.54,6.98,1.07,13.95,1.61,20.93c0.15,1.92,3.15,1.93,3,0
					c-0.54-6.98-1.07-13.95-1.61-20.93C1106.26,681.17,1103.26,681.16,1103.41,683.09L1103.41,683.09z"/>
			</g>
		</g>
		<g>
			<g>
				<path class="st4" d="M1100.5,713.77c2.34-2.91,4.74-5.78,7.08-8.69c1.2-1.49-0.91-3.63-2.12-2.12
					c-2.34,2.91-4.74,5.78-7.08,8.69C1097.17,713.14,1099.28,715.27,1100.5,713.77L1100.5,713.77z"/>
			</g>
		</g>
		<g>
			<g>
				<path class="st4" d="M1062.19,761.09c3.32-4.08,7.3-7.51,10.62-11.59c1.21-1.49-0.9-3.62-2.12-2.12
					c-3.32,4.08-7.3,7.51-10.62,11.59C1058.86,760.46,1060.97,762.59,1062.19,761.09L1062.19,761.09z"/>
			</g>
		</g>
		<g>
			<g>
				<path class="st4" d="M1111.34,745.75c-9,12.92-28.76,14.11-38.53,1.63c-1.19-1.52-3.3,0.62-2.12,2.12
					c11.05,14.12,33.25,12.1,43.24-2.24C1115.04,745.67,1112.44,744.17,1111.34,745.75L1111.34,745.75z"/>
			</g>
		</g>
		<g>
			<g>
				<path class="st4" d="M1097.51,731.96c17.6-0.35,35.2-0.71,52.79-1.06c1.93-0.04,1.94-3.04,0-3c-17.6,0.35-35.2,0.71-52.79,1.06
					C1095.58,729,1095.58,732,1097.51,731.96L1097.51,731.96z"/>
			</g>
		</g>
		<g>
			<g>
				<path class="st4" d="M1098.48,746.37c16.32-0.58,32.63-1.16,48.95-1.74c1.93-0.07,1.94-3.07,0-3
					c-16.32,0.58-32.63,1.16-48.95,1.74C1096.55,743.44,1096.54,746.44,1098.48,746.37L1098.48,746.37z"/>
			</g>
		</g>
		<g>
			<g>
				<path class="st4" d="M1098.38,713.77c2.73,2.49,5.27,5.16,7.62,8.01c0.62,0.75,5.1,5.93,4.37,7.12
					c-1.01,1.66,1.58,3.16,2.59,1.51c1.29-2.11-0.74-4.98-1.84-6.7c-2.87-4.5-6.7-8.48-10.62-12.07
					C1099.07,710.34,1096.94,712.46,1098.38,713.77L1098.38,713.77z"/>
			</g>
		</g>
		<g>
			<g>
				<path class="st4" d="M1095.63,730.18c-3.71,4.89-2.82,11.53,1.71,15.55c1.44,1.28,3.57-0.83,2.12-2.12
					c-3.63-3.22-4.19-8.03-1.24-11.92C1099.39,730.15,1096.78,728.66,1095.63,730.18L1095.63,730.18z"/>
			</g>
		</g>
		<g>
			<g>
				<path class="st4" d="M1082.38,741.15c4.4-5.79,8.8-11.59,13.2-17.39c1.17-1.54-1.44-3.03-2.59-1.51
					c-4.4,5.79-8.8,11.59-13.2,17.39C1078.62,741.18,1081.23,742.67,1082.38,741.15L1082.38,741.15z"/>
			</g>
		</g>
		<g>
			<g>
				<path class="st4" d="M1079.79,741.15c2.9,5.74,13.67,8.43,19.4,6.16c1.78-0.7,1-3.6-0.8-2.89c-4.53,1.79-13.7-0.2-16.01-4.78
					C1081.51,737.91,1078.92,739.43,1079.79,741.15L1079.79,741.15z"/>
			</g>
		</g>
		<g>
			<g>
				<path class="st4" d="M1103.14,728.72c-0.71-1.91-1.67-3.74-3.3-5.01c-1.16-0.9-2.48-1.39-3.86-1.84c-1.84-0.6-2.63,2.3-0.8,2.89
					c0.94,0.3,1.81,0.61,2.64,1.16c1.22,0.8,1.94,2.27,2.43,3.59C1100.91,731.32,1103.82,730.54,1103.14,728.72L1103.14,728.72z"/>
			</g>
		</g>
		<g>
			<g>
				<path class="st4" d="M1145.98,743.53c1.45,6.59,8.25,9.2,14.38,8.28c1.91-0.28,1.09-3.17-0.8-2.89
					c-4.6,0.69-9.61-1.31-10.69-6.19C1148.46,740.84,1145.57,741.65,1145.98,743.53L1145.98,743.53z"/>
			</g>
		</g>
		<g>
			<g>
				<path class="st4" d="M1149.45,729.12c0.29,9.17,8.2,15.12,16.95,15.34c1.94,0.05,1.93-2.95,0-3
					c-7.08-0.18-13.71-4.83-13.95-12.34C1152.38,727.19,1149.38,727.19,1149.45,729.12L1149.45,729.12z"/>
			</g>
		</g>
		<g>
			<g>
				<path class="st4" d="M1166.57,744.4c4.48-1.12,12.86-1.83,14.8,3.8c0.63,1.82,3.52,1.04,2.89-0.8
					c-2.56-7.43-12.16-7.48-18.49-5.89C1163.9,741.97,1164.69,744.87,1166.57,744.4L1166.57,744.4z"/>
			</g>
		</g>
		<g>
			<g>
				<path class="st4" d="M1178.1,742.97c7.3-4.94,14.59-9.87,21.89-14.81c1.59-1.08,0.09-3.68-1.51-2.59
					c-7.3,4.94-14.59,9.87-21.89,14.81C1174.99,741.46,1176.49,744.06,1178.1,742.97L1178.1,742.97z"/>
			</g>
		</g>
		<g>
			<g>
				<path class="st4" d="M1167.26,742.87c11.66-8.23,23.32-16.46,34.98-24.68c1.57-1.11,0.07-3.71-1.51-2.59
					c-11.66,8.23-23.32,16.46-34.98,24.68C1164.18,741.38,1165.68,743.99,1167.26,742.87L1167.26,742.87z"/>
			</g>
		</g>
		<g>
			<g>
				<path class="st4" d="M1217.49,727.69c0.7-7.48-7.84-11.6-14-12.57c-1.89-0.3-2.7,2.59-0.8,2.89c4.82,0.76,12.36,3.59,11.79,9.68
					C1214.31,729.62,1217.31,729.6,1217.49,727.69L1217.49,727.69z"/>
			</g>
		</g>
		<g>
			<g>
				<path class="st4" d="M1178.74,754.24c7.51-5.37,15.02-10.73,22.54-16.1c1.56-1.11,0.06-3.72-1.51-2.59
					c-7.51,5.37-15.02,10.73-22.54,16.1C1175.67,752.76,1177.17,755.37,1178.74,754.24L1178.74,754.24z"/>
			</g>
		</g>
		<g>
			<g>
				<path class="st4" d="M1200.57,728.1c1.84-1.15,3.98,0.25,5.1,1.78c1.13,1.54,3.74,0.05,2.59-1.51c-2.07-2.82-5.86-4.95-9.2-2.86
					C1197.42,726.53,1198.92,729.13,1200.57,728.1L1200.57,728.1z"/>
			</g>
		</g>
		<g>
			<g>
				<path class="st4" d="M1206.66,739.99c14.72-3.46,29.44-6.92,44.16-10.38c1.88-0.44,1.08-3.33-0.8-2.89
					c-14.72,3.46-29.44,6.92-44.16,10.38C1203.98,737.54,1204.78,740.43,1206.66,739.99L1206.66,739.99z"/>
			</g>
		</g>
		<g>
			<g>
				<path class="st4" d="M1197.05,729.62c0.11,5.13,3.55,9.82,8.94,10.02c1.94,0.07,1.93-2.93,0-3c-3.72-0.14-5.86-3.58-5.94-7.02
					C1200.01,727.69,1197.01,727.68,1197.05,729.62L1197.05,729.62z"/>
			</g>
		</g>
		<g>
			<g>
				<path class="st4" d="M1207.38,731.37c12.33-2.63,24.67-5.25,37-7.88c1.89-0.4,1.09-3.29-0.8-2.89
					c-12.33,2.63-24.67,5.25-37,7.88C1204.69,728.88,1205.49,731.77,1207.38,731.37L1207.38,731.37z"/>
			</g>
		</g>
		<g>
			<g>
				<path class="st4" d="M1252.55,728.47c6.83-7.38,6.98-18.28-0.11-25.52c-1.36-1.38-3.48,0.74-2.12,2.12
					c5.94,6.06,5.82,15.1,0.11,21.28C1249.12,727.77,1251.24,729.89,1252.55,728.47L1252.55,728.47z"/>
			</g>
		</g>
		<g>
			<g>
				<path class="st4" d="M1246.03,722.48c4.83-3.15,3.48-9.78,1.19-14.1c-0.91-1.71-3.5-0.19-2.59,1.51c1.43,2.69,3.15,7.87-0.11,10
					C1242.9,720.94,1244.4,723.54,1246.03,722.48L1246.03,722.48z"/>
			</g>
		</g>
		<g>
			<g>
				<path class="st4" d="M1201.89,718.33c5.58-1.18,11.16-2.36,16.74-3.54c1.89-0.4,1.09-3.29-0.8-2.89
					c-5.58,1.18-11.16,2.36-16.74,3.54C1199.2,715.84,1200,718.73,1201.89,718.33L1201.89,718.33z"/>
			</g>
		</g>
		<g>
			<g>
				<path class="st4" d="M1215.27,720.73c4.29-0.69,8.57-1.37,12.85-2.06c1.91-0.3,1.09-3.2-0.8-2.89
					c-4.29,0.69-8.57,1.37-12.85,2.06C1212.56,718.14,1213.38,721.03,1215.27,720.73L1215.27,720.73z"/>
			</g>
		</g>
		<g>
			<g>
				<path class="st4" d="M1261.21,688.75c4.18,10.88,6.17,26.33-6.71,32c-1.77,0.78-0.24,3.36,1.51,2.59
					c14.11-6.21,12.75-23.28,8.09-35.39C1263.41,686.16,1260.51,686.94,1261.21,688.75L1261.21,688.75z"/>
			</g>
		</g>
		<g>
			<g>
				<path class="st4" d="M1256.25,693.03c1.74,4.52,4.65,12.76-1.23,15.48c-1.75,0.81-0.23,3.4,1.51,2.59
					c7.32-3.39,4.87-13.01,2.61-18.87C1258.46,690.45,1255.56,691.22,1256.25,693.03L1256.25,693.03z"/>
			</g>
		</g>
		<g>
			<g>
				<path class="st4" d="M1238.19,721.45c-4.71-0.71-7.89-2.38-10.37-6.47c-1-1.65-3.6-0.15-2.59,1.51
					c2.87,4.73,6.69,7.03,12.16,7.85C1239.28,724.62,1240.09,721.73,1238.19,721.45L1238.19,721.45z"/>
			</g>
		</g>
		<g>
			<g>
				<path class="st4" d="M1259.49,679.3c0.57,3.15,1.14,6.3,1.72,9.45c0.35,1.9,3.24,1.09,2.89-0.8c-0.57-3.15-1.14-6.3-1.72-9.45
					C1262.04,676.6,1259.15,677.41,1259.49,679.3L1259.49,679.3z"/>
			</g>
		</g>
		<g>
			<g>
				<path class="st4" d="M1087.75,494.54c31.09,33.37,62.18,66.73,93.27,100.1c26.1,28.01,52.21,56.03,78.31,84.04
					c1.32,1.42,3.44-0.71,2.12-2.12c-31.09-33.37-62.18-66.73-93.27-100.1c-26.1-28.01-52.21-56.03-78.31-84.04
					C1088.55,491,1086.44,493.12,1087.75,494.54L1087.75,494.54z"/>
			</g>
		</g>
		<g>
			<g>
				<path class="st4" d="M1045.58,532.2c31.38,33.53,62.77,67.06,94.15,100.6c25.03,26.74,50.05,53.48,75.08,80.22
					c1.32,1.42,3.44-0.71,2.12-2.12c-31.38-33.53-62.77-67.06-94.15-100.6c-25.03-26.74-50.05-53.48-75.08-80.22
					C1046.38,528.67,1044.26,530.79,1045.58,532.2L1045.58,532.2z"/>
			</g>
		</g>
		<g>
			<g>
				<path class="st4" d="M1245.63,713.65c-3.49,1.39-7.41,0.71-9.15-2.88c-0.84-1.74-3.43-0.22-2.59,1.51
					c2.28,4.71,7.88,6.12,12.54,4.26C1248.2,715.84,1247.43,712.94,1245.63,713.65L1245.63,713.65z"/>
			</g>
		</g>
		<g>
			<g>
				<path class="st4" d="M1018.22,508.7c7.01,7.87,14.02,15.74,21.03,23.61c1.29,1.45,3.4-0.68,2.12-2.12
					c-7.01-7.87-14.02-15.74-21.03-23.61C1019.05,505.13,1016.93,507.26,1018.22,508.7L1018.22,508.7z"/>
			</g>
		</g>
		<g>
			<g>
				<path class="st4" d="M1063.93,467.17c7.83,8.12,15.67,16.24,23.5,24.36c1.34,1.39,3.46-0.73,2.12-2.12
					c-7.83-8.12-15.67-16.24-23.5-24.36C1064.71,463.66,1062.59,465.78,1063.93,467.17L1063.93,467.17z"/>
			</g>
		</g>
		<g>
			<g>
				<path class="st4" d="M1041.17,532.96c24.15-0.33,48.36-16.58,48.82-42.49c0.03-1.94-2.97-1.93-3,0
					c-0.44,24.26-23.34,39.19-45.82,39.49C1039.24,529.99,1039.23,532.99,1041.17,532.96L1041.17,532.96z"/>
			</g>
		</g>
		<g>
			<g>
				<path class="st4" d="M1019.92,509.46c24.04-0.34,46.76-17.27,47.21-42.6c0.03-1.94-2.97-1.93-3,0
					c-0.42,23.68-21.83,39.28-44.21,39.6C1017.99,506.49,1017.99,509.49,1019.92,509.46L1019.92,509.46z"/>
			</g>
		</g>
		<g>
			<g>
				<path class="st4" d="M970.14,381.65c27.61,28.47,55.23,56.95,82.84,85.42c1.35,1.39,3.47-0.73,2.12-2.12
					c-27.61-28.47-55.23-56.95-82.84-85.42C970.91,378.13,968.79,380.26,970.14,381.65L970.14,381.65z"/>
			</g>
		</g>
		<g>
			<g>
				<path class="st4" d="M964.36,327.63c-34.14,13.25-64.53,33.75-86.93,62.98c-25.75,33.6-38.42,75.36-45.03,116.64
					c-0.3,1.89,2.59,2.7,2.89,0.8c6.48-40.46,18.77-80.66,43.29-114.01c21.75-29.57,52.62-50.34,86.58-63.51
					C966.94,329.83,966.17,326.93,964.36,327.63L964.36,327.63z"/>
			</g>
		</g>
		<g>
			<g>
				<path class="st4" d="M970.62,333.93c-0.48,15.24-0.95,30.49-1.43,45.73c-0.06,1.94,2.94,1.93,3,0
					c0.48-15.24,0.95-30.49,1.43-45.73C973.68,331.99,970.68,332,970.62,333.93L970.62,333.93z"/>
			</g>
		</g>
		<g>
			<g>
				<path class="st4" d="M973.18,332.02c-1.08-3.44-4.47-5.32-7.97-4.47c-1.88,0.46-1.08,3.35,0.8,2.89
					c1.88-0.46,3.7,0.51,4.29,2.38C970.86,334.66,973.76,333.87,973.18,332.02L973.18,332.02z"/>
			</g>
		</g>
		<g>
			<g>
				<path class="st4" d="M945.04,419.06c-21.07,6.51-40.34,17.19-56.78,31.92c-18.04,16.15-31.62,36.74-41.98,58.48
					c-0.83,1.74,1.76,3.26,2.59,1.51c9.91-20.8,22.68-40.11,39.48-56c16.28-15.41,36.13-26.42,57.49-33.02
					C947.68,421.38,946.9,418.48,945.04,419.06L945.04,419.06z"/>
			</g>
		</g>
		<g>
			<g>
				<path class="st4" d="M833.12,509.08c2.44,5.3,8.97,6.04,13.93,4.22c1.8-0.66,1.02-3.56-0.8-2.89
					c-3.76,1.38-8.64,1.29-10.54-2.84C834.9,505.81,832.32,507.34,833.12,509.08L833.12,509.08z"/>
			</g>
		</g>
		<g>
			<g>
				<path class="st4" d="M944.38,421.56c25.58,25.4,51.15,50.79,76.73,76.19c1.37,1.36,3.5-0.76,2.12-2.12
					c-25.58-25.4-51.15-50.79-76.73-76.19C945.13,418.08,943.01,420.2,944.38,421.56L944.38,421.56z"/>
			</g>
		</g>
		<g>
			<g>
				<path class="st4" d="M1020.41,497.26c-0.86,3.33-1.72,6.65-2.58,9.98c-0.48,1.87,2.41,2.67,2.89,0.8
					c0.86-3.33,1.72-6.65,2.58-9.98C1023.78,496.18,1020.89,495.39,1020.41,497.26L1020.41,497.26z"/>
			</g>
		</g>
		<g>
			<g>
				<path class="st4" d="M1055.33,468.58c3.22-0.32,6.44-0.64,9.66-0.97c1.91-0.19,1.92-3.19,0-3c-3.22,0.32-6.44,0.64-9.66,0.97
					C1053.43,465.77,1053.41,468.77,1055.33,468.58L1055.33,468.58z"/>
			</g>
		</g>
		<g>
			<g>
				<path class="st4" d="M1022.5,498.84c18-0.38,32.96-13.9,33.37-32.21c0.04-1.94-2.96-1.93-3,0
					c-0.38,16.67-14.03,28.87-30.37,29.21C1020.57,495.88,1020.56,498.88,1022.5,498.84L1022.5,498.84z"/>
			</g>
		</g>
		<g>
			<g>
				<path class="st4" d="M970.25,338.85c-26.87,21.23-52.61,43.87-73.9,70.83c-23.57,29.85-41.36,63.8-58.01,97.84
					c-0.85,1.73,1.74,3.25,2.59,1.51c16.54-33.83,34.23-67.49,57.54-97.23c21.17-27.02,47.06-49.63,73.9-70.83
					C973.89,339.78,971.75,337.67,970.25,338.85L970.25,338.85z"/>
			</g>
		</g>
		<g>
			<g>
				<path class="st4" d="M948.61,420.64c-2.55-12.93-2.05-25.2-0.91-38.23c0.17-1.93-2.83-1.91-3,0
					c-1.16,13.3-1.58,25.86,1.02,39.03C946.09,423.34,948.99,422.53,948.61,420.64L948.61,420.64z"/>
			</g>
		</g>
		<g>
			<g>
				<path class="st4" d="M946.6,383.86c8.65-1.43,16.96-1.41,25.68-0.91c1.93,0.11,1.92-2.89,0-3c-8.99-0.51-17.57-0.45-26.47,1.02
					C943.9,381.28,944.71,384.17,946.6,383.86L946.6,383.86z"/>
			</g>
		</g>
		<g>
			<g>
				<path class="st4" d="M1225.28,710.4c16.04-3.12,30.06-15.63,34.96-31.09c0.59-1.85-2.31-2.63-2.89-0.8
					c-4.6,14.51-17.85,26.08-32.86,29C1222.58,707.88,1223.39,710.77,1225.28,710.4L1225.28,710.4z"/>
			</g>
		</g>
		<g>
			<g>
				<path class="st4" d="M1217.21,714.14c2.77,0.6,5.54,1.2,8.31,1.8c1.89,0.41,2.69-2.48,0.8-2.89c-2.77-0.6-5.54-1.2-8.31-1.8
					C1216.12,710.84,1215.31,713.73,1217.21,714.14L1217.21,714.14z"/>
			</g>
		</g>
		<g>
			<g>
				<path class="st4" d="M1235.94,712.82c9.69-4.13,17.03-9.29,22.34-18.57c0.96-1.68-1.63-3.19-2.59-1.51
					c-5.07,8.86-12.07,13.57-21.26,17.49C1232.65,710.99,1234.18,713.57,1235.94,712.82L1235.94,712.82z"/>
			</g>
		</g>
		<g>
			<g>
				<path class="st4" d="M1169.52,763.99c6.36,5.84,18.82-6.02,24.21-9.87c7.45-5.32,14.9-10.65,22.36-15.97
					c1.56-1.11,0.06-3.72-1.51-2.59c-5.91,4.22-11.83,8.45-17.74,12.67c-3.44,2.46-21,17.49-25.19,13.64
					C1170.22,760.56,1168.09,762.68,1169.52,763.99L1169.52,763.99z"/>
			</g>
		</g>
		<g>
			<g>
				<path class="st4" d="M1158.34,750.26c-4.88,7.81,2.25,17.73,11.14,15.72c1.89-0.43,1.09-3.32-0.8-2.89
					c-6.44,1.45-11.17-5.85-7.75-11.32C1161.96,750.13,1159.36,748.62,1158.34,750.26L1158.34,750.26z"/>
			</g>
		</g>
		<g>
			<g>
				<path class="st4" d="M1179.91,749.04c-8.73-3.51-17.71,5.42-12.56,13.9c1,1.65,3.6,0.14,2.59-1.51
					c-1.59-2.61-1.54-5.56,0.48-7.93c2.22-2.61,5.71-2.75,8.69-1.56C1180.91,752.65,1181.68,749.75,1179.91,749.04L1179.91,749.04z"
					/>
			</g>
		</g>
	</g>
	<g>
		<g>
			<g>
				<path class="st4" d="M792.26,362.54c5.54-4.2,11.08-8.41,16.61-12.61c2.53-1.92,5.06-3.84,7.59-5.76
					c0.16-0.12,0.32-0.24,0.47-0.36c-0.95,0.72-0.78,0.18,0.9,0.46c1.92,0.32,3.85,0.64,5.78,0.95c0.98,0.16,1.85-0.4,1.9-1.45
					c0.06-1.29,0.12-2.58,0.17-3.86c0.04-0.78,0.07-1.56,0.11-2.35c0.05-1.21-0.94,0.94,0,0.1c2.82-2.52,5.63-5.04,8.45-7.56
					c1.46-1.31,2.92-2.62,4.39-3.93c0.37-0.34,0.75-0.67,1.12-1.01c0.97-0.87-1.19,0.07-0.21,0.07c3.23,0,6.46,0,9.7,0
					c0.79,0,1.54-0.68,1.5-1.5c-0.06-1.19-0.12-2.39-0.18-3.58c-0.04-0.9-0.09-1.79-0.13-2.68c-0.08-1.66,0.41-1.51-0.47-0.81
					c2.46-1.97,4.93-3.93,7.39-5.9c1.37-1.09,2.74-2.18,4.11-3.28c0.44-0.35,0.88-0.7,1.31-1.05c1.08-0.86-1.05-0.01-0.12,0.1
					c3.29,0.41,6.59,0.82,9.89,1.23c0.79,0.1,1.53-0.76,1.5-1.5c-0.13-3.09-0.26-6.17-0.39-9.26c0.05,1.2-0.29,0.82,1.1-0.26
					c1.53-1.19,3.07-2.38,4.6-3.57c5.85-4.54,11.7-9.08,17.55-13.62c0.61-0.47,0.57-1.64,0-2.12c-8.96-7.45-17.93-14.9-26.89-22.35
					c-9.33-7.76-26.86-0.96-36.38,3.31c-17.09,7.67-32.48,20.18-44.67,34.3c-8.55,9.9-18.54,23.81-16.4,37.7
					c0.1,0.65,0.84,1.1,1.45,1.1c-1.27,0-1.58-1.27-0.69,0.34c0.65,1.17,1.31,2.35,1.96,3.52c1.9,3.4,3.79,6.81,5.69,10.21
					c2.91,5.23,5.83,10.45,8.74,15.68c0.94,1.69,3.53,0.18,2.59-1.51c-5.67-10.17-11.33-20.33-17-30.5
					c-0.26-0.46-0.77-0.74-1.29-0.74c0,0,0,0,0,0c0.48,0.37,0.96,0.73,1.45,1.1c-2.12-13.72,9.42-27.91,17.88-37.34
					c11.62-12.96,26-23.95,41.81-31.27c7.04-3.26,14.7-5.63,22.49-5.97c1.87-0.08,7.11-0.43,8.43,0.67
					c1.24,1.03,2.47,2.06,3.71,3.08c8.33,6.93,16.67,13.85,25.01,20.78c0-0.71,0-1.41,0-2.12c-6.08,4.72-12.16,9.44-18.24,14.15
					c-1.38,1.07-5.33,3.03-5.84,4.89c-0.77,2.8,0.22,6.87,0.34,9.78c0.5-0.5,1-1,1.5-1.5c-3.4-0.42-6.81-0.85-10.21-1.27
					c-1.83-0.23-5.11,3.56-6.33,4.54c-2.74,2.18-5.47,4.37-8.21,6.55c-1.54,1.23-0.12,7.4-0.03,9.15c0.5-0.5,1-1,1.5-1.5
					c-3.34,0-6.68,0-10.02,0c-2.1,0-5,3.87-6.38,5.1c-3.13,2.8-6.26,5.61-9.39,8.41c-1.62,1.45-0.84,6.07-0.93,8.03
					c0.63-0.48,1.27-0.96,1.9-1.45c-1.8-0.3-7.38-2.33-8.95-1.14c-2.21,1.68-4.43,3.36-6.64,5.04c-6.02,4.57-12.05,9.14-18.07,13.71
					C789.22,361.1,790.72,363.71,792.26,362.54L792.26,362.54z"/>
			</g>
		</g>
		<g>
			<g>
				<path class="st4" d="M932.8,293.9c0.98,3.63-0.04,6.33-2.69,8.9c-1.1,1.07-6.97,4.18-7.66,3.55c-1.97-1.8-3.93-3.6-5.9-5.41
					c-0.66-0.6-1.46-0.53-2.12,0c-5.76,4.57-11.51,9.13-17.27,13.7c-2.21,1.76-4.43,3.51-6.64,5.27c1.04-0.82-1.95-0.89-2.89-1.09
					c-1.72-0.36-3.43-0.72-5.15-1.08c-0.95-0.2-1.89,0.43-1.9,1.45c-0.01,2.74-0.24,5.48-0.37,8.22c-0.07,1.39,0.85-0.08-0.45,0.9
					c-1.48,1.12-2.95,2.24-4.43,3.36c-2.8,2.12-5.6,4.25-8.4,6.37c0.72-0.54,1.3-0.07-0.2-0.35c-1.22-0.23-2.44-0.45-3.66-0.68
					c-1.02-0.19-2.02-0.39-3.05-0.51c-0.63-0.08-1.31,0.51-1.45,1.1c-0.58,2.55-1.15,5.1-1.73,7.66c-0.34,1.53,1.36,2.41,2.51,1.46
					c0.11-0.09,0.22-0.19,0.33-0.28c-0.71-0.71-1.41-1.41-2.12-2.12c-4.12,3.5-8.23,6.99-12.35,10.49
					c-0.64,0.55-1.28,1.09-1.92,1.64c-0.17,0.15-0.33,0.29-0.5,0.45c-1.28,1.17,0.46,0.4-0.3,0.3c-2.73-0.34-5.46-0.68-8.18-1.02
					c-0.84-0.11-1.46,0.76-1.5,1.5c-0.13,2.48-0.26,4.96-0.39,7.44c0.06-1.16,0.43-0.99-0.44-0.29c-0.58,0.47-1.16,0.94-1.74,1.41
					c-5.05,4.09-10.1,8.18-15.15,12.27c-2.08,1.68-8.02,4.66-7.52,7.83c0.37,2.39,1.63,4.81,2.45,7.09
					c2.37,6.57-6.57,10.2-11.7,9.34c-1.05-0.18-2.23,0.66-1.84,1.84c0.01,0.04,0.03,0.09,0.04,0.13c0.91-0.38,1.83-0.77,2.74-1.16
					c-25.08-36.46-49.81-73.32-70.62-112.43c-3.64-6.84-7.16-13.75-10.62-20.68c-1.7-3.4-3.38-6.81-5.06-10.23
					c-1.51-3.07-6.44-9.82-4.89-13.16c1.24-2.67,8.74-6.48,10.71-4c1.42,1.79,2.85,3.59,4.28,5.38c4.81,6.05,9.62,12.11,14.44,18.16
					c3.96,4.98,7.92,9.96,11.88,14.95c3.65,4.59,12.41,0.49,16.78-1.51c8.7-3.98,14.78-12.36,15.44-21.89
					c0.26-3.7-4.31-8.01-6.24-10.83c-6.92-10.09-13.61-20.4-20.81-30.29c-1.71-2.35,5.23-8.11,7.79-5.35
					c1.44,1.55,2.88,3.1,4.31,4.65c5.22,5.62,10.44,11.25,15.66,16.88c3.77,4.07,7.54,8.13,11.32,12.2
					c1.68,1.81,5.56,0.45,7.71,0.11c5.57-0.9,10.88-3.4,15.33-6.82c3.52-2.71,6.23-6.27,8.04-10.31c0.96-2.16,3.06-7.99,1.32-10.13
					c-3.08-3.78-6.16-7.57-9.23-11.35c-4.95-6.09-9.91-12.18-14.86-18.28c-1.42-1.75-2.85-3.5-4.27-5.25
					c-3.38-4.15,3.86-8.31,7.44-8.53c2.06-0.13,6.37,4.17,8.08,5.39c3.02,2.14,6.01,4.31,9,6.49c6.25,4.57,12.41,9.27,18.49,14.08
					c9.34,7.38,18.41,15.1,27.17,23.15c23.53,21.61,43.34,46.52,64.74,70.12c1.3,1.44,3.42-0.69,2.12-2.12
					c-12-13.23-23.39-26.99-35.33-40.27c-13.62-15.13-28.19-29.31-43.72-42.48c-9.87-8.38-20.11-16.31-30.51-24
					c-6.06-4.48-12.21-8.84-18.4-13.14c-2.56-1.78-7.71,1.33-9.62,2.87c-4.49,3.63-3.58,8.12-0.55,11.85
					c4.39,5.4,8.78,10.79,13.17,16.19c4.28,5.26,8.56,10.52,12.83,15.78c1.8,2.22,1,3.02,0.19,6.22
					c-1.58,6.24-6.62,10.98-11.99,14.1c-2.72,1.58-5.74,2.54-8.79,3.28c-0.88,0.21-5.88,1.33-6.1,1.09
					c-1.32-1.42-2.64-2.85-3.96-4.27c-5.16-5.56-10.32-11.12-15.48-16.69c-3.94-4.24-7.87-8.49-11.81-12.73
					c-3.97-4.28-10.93-0.33-12.56,4.61c-0.84,2.55-0.71,3.27,0.67,5.29c1.29,1.88,2.58,3.75,3.87,5.63
					c4.38,6.37,8.75,12.75,13.13,19.12c2.99,4.35,5.98,8.71,8.97,13.06c0.6,0.88-0.54,4.16-0.8,5.19c-0.74,2.95-2.39,5.63-4.28,7.98
					c-4.1,5.08-10.27,7.96-16.52,9.31c-1.79,0.39-3.61,0.49-5.43,0.56c0.77-0.03,1.3,0.76,0.9,0.26c-0.35-0.44-0.7-0.88-1.05-1.32
					c-1.69-2.13-3.38-4.25-5.07-6.38c-4.94-6.21-9.87-12.41-14.81-18.62c-3.57-4.49-7.15-8.99-10.72-13.48
					c-3.72-4.68-12.97,0.93-15.42,4.61c-2.17,3.25-0.04,6.11,1.42,9.1c1.86,3.8,3.72,7.6,5.59,11.4
					c3.44,6.97,6.93,13.91,10.51,20.81c21.43,41.26,47.35,79.96,73.66,118.22c0.92,1.33,3.3,0.55,2.74-1.16
					c-0.01-0.04-0.03-0.09-0.04-0.13c-0.62,0.62-1.23,1.23-1.84,1.84c3.96,0.67,8.25,0.24,11.44-2.47c2.46-2.08,5.59-6.01,4.32-9.53
					c-0.91-2.53-1.83-5.06-2.74-7.59c-0.25-0.7-1.05,0.82,0.21-0.21c1.06-0.86,2.11-1.71,3.17-2.57c5.99-4.85,11.99-9.7,17.98-14.56
					c0.81-0.66,3.16-1.98,3.45-3.06c0.67-2.43,0.32-5.48,0.45-7.99c-0.5,0.5-1,1-1.5,1.5c2.73,0.34,5.46,0.68,8.18,1.02
					c1.49,0.19,2.43-1.21,3.48-2.1c4.57-3.89,9.15-7.77,13.72-11.66c1.48-1.26-0.65-3.35-2.12-2.12c-0.11,0.09-0.22,0.19-0.33,0.28
					c0.84,0.49,1.67,0.97,2.51,1.46c0.58-2.55,1.15-5.1,1.73-7.66c-0.48,0.37-0.96,0.73-1.45,1.1c1.79,0.22,6.8,2.35,8.36,1.17
					c3.07-2.33,6.15-4.67,9.22-7c1.44-1.1,5.44-3.03,5.54-5.25c0.15-3.07,0.41-6.16,0.42-9.24c-0.63,0.48-1.27,0.96-1.9,1.45
					c3.03,0.64,6.27,1.77,9.37,1.85c2.18,0.06,4.65-2.89,6.2-4.12c6.43-5.1,12.86-10.2,19.29-15.3c-0.71,0-1.41,0-2.12,0
					c2.93,2.69,5.4,6.63,9.66,5.88c7.62-1.34,13.71-8.02,11.6-15.84C935.19,291.24,932.3,292.03,932.8,293.9L932.8,293.9z"/>
			</g>
		</g>
		<g>
			<g>
				<path class="st4" d="M792.49,397.7c-2.12,1.18-4.25,2.36-6.37,3.53c-4.19,2.33-11.19-4.84-13.21-7.85
					c-1.71-2.55-4.69-9.73-1.83-12.22c2.24-1.95,4.49-3.9,6.73-5.86c1.46-1.27-0.67-3.38-2.12-2.12c-2.48,2.16-5.74,4.23-7.75,6.84
					c-2.85,3.71,0.36,11.41,2.38,14.88c3.14,5.41,8.95,8.71,14.98,9.69c2.44,0.4,6.71-3.19,8.71-4.3
					C795.7,399.36,794.19,396.77,792.49,397.7L792.49,397.7z"/>
			</g>
		</g>
		<g>
			<g>
				<path class="st4" d="M912.78,268.09c2.03-1.18,4.06-2.37,6.09-3.55c1.76-1.03,1.52-1.09,3.58-0.67c3.15,0.64,5.84,2.6,8.08,4.79
					c1.93,1.89,3.24,4.35,4.17,6.85c0.55,1.5,1.79,6.05,0.63,7.31c-1.74,1.89-3.49,3.78-5.23,5.68c-1.31,1.42,0.81,3.55,2.12,2.12
					c1.46-1.59,5.61-4.55,5.97-6.73c0.9-5.46-0.43-11.03-3.89-15.41c-2.76-3.49-9.4-9.33-14.45-7.94c-2.93,0.81-5.96,3.42-8.58,4.94
					C909.6,266.47,911.11,269.07,912.78,268.09L912.78,268.09z"/>
			</g>
		</g>
	</g>
	<g>
		<g>
			<g>
				<path class="st4" d="M710.77,136.23c3.91-3.51,7.82-7.01,11.73-10.52c1.44-1.29-0.69-3.41-2.12-2.12
					c-3.91,3.51-7.82,7.01-11.73,10.52C707.21,135.41,709.34,137.52,710.77,136.23L710.77,136.23z"/>
			</g>
		</g>
		<g>
			<g>
				<path class="st4" d="M731.26,115.35c-0.13,2.96-0.25,5.91-0.38,8.87c-0.08,1.94,2.92,1.93,3,0c0.13-2.96,0.25-5.91,0.38-8.87
					C734.34,113.42,731.34,113.42,731.26,115.35L731.26,115.35z"/>
			</g>
		</g>
		<g>
			<g>
				<g>
					<path class="st4" d="M676.48,220.68C652.67,193.25,630,154.05,645,117.04c10.66-26.33,39.16-40.31,66.53-39.33
						c31.84,1.14,58.05,22.25,72.94,49.33c0.93,1.7,3.52,0.18,2.59-1.51c-15.41-28.02-42.04-48.91-74.69-50.78
						c-26.29-1.5-53.09,10.88-66.57,33.92c-22.63,38.7,2.77,84.42,28.55,114.14C675.62,224.27,677.74,222.14,676.48,220.68
						L676.48,220.68z"/>
				</g>
			</g>
			<g>
				<g>
					<path class="st4" d="M659.4,233.63c-27.54-28.46-48.34-67.07-39.26-107.64c6.85-30.64,30.62-55.4,60.05-65.51
						c20.02-6.88,41.87-6.23,61.63,1.2c25.04,9.42,44.34,29.58,58.03,52.01c1.01,1.65,3.6,0.14,2.59-1.51
						c-18.93-30.99-48.26-55.95-85.55-59.23c-29.91-2.63-59.92,10.34-79.53,32.83c-16.04,18.4-23.83,42.62-22.19,66.89
						c2.17,32.05,20.3,60.54,42.11,83.08C658.62,237.14,660.74,235.02,659.4,233.63L659.4,233.63z"/>
				</g>
			</g>
			<g>
				<g>
					<path class="st4" d="M657.4,70.85c-0.07-5.41-0.15-10.83-0.22-16.24c-0.07-5.21-2.18-14.1,2.88-17.59
						c5.59-3.86,11.67,4.87,15.34,8.21c4,3.64,8.01,7.29,12.01,10.93c1.43,1.3,3.55-0.82,2.12-2.12c-4.95-4.5-9.9-9.01-14.85-13.51
						c-4.19-3.81-8.54-9.79-15.04-6.63c-6.78,3.29-5.61,9.71-5.53,15.97c0.1,7,0.19,13.99,0.29,20.99
						C654.43,72.78,657.43,72.79,657.4,70.85L657.4,70.85z"/>
				</g>
			</g>
			<g>
				<g>
					<path class="st4" d="M704.45,54.22c2.65-4.34,5.3-8.68,7.96-13.02c2.65-4.34,5.43-12.29,10.73-14.01
						c7.96-2.58,8.88,10.38,10.18,15.05c1.45,5.22,2.89,10.44,4.33,15.65c0.52,1.86,3.41,1.07,2.89-0.8
						c-1.79-6.45-3.57-12.9-5.36-19.34c-1.53-5.53-2.16-13.39-9.76-13.65c-7.48-0.26-9.79,6.04-13.1,11.47
						c-3.49,5.71-6.98,11.42-10.46,17.13C700.84,54.37,703.44,55.87,704.45,54.22L704.45,54.22z"/>
				</g>
			</g>
			<g>
				<g>
					<path class="st4" d="M756.41,66.79c4.6-2.16,9.21-4.33,13.81-6.49c4.54-2.13,11.04-7.05,16.26-5.85
						c8.5,1.94,1.97,13.84,0.51,18.35c-1.67,5.15-3.33,10.3-5,15.45c-0.6,1.85,2.3,2.63,2.89,0.8c2.06-6.37,4.12-12.73,6.17-19.1
						c2.02-6.24,5.21-11.8-0.96-16.93c-5.2-4.32-11.31-0.06-16.22,2.25c-6.33,2.98-12.66,5.95-18.99,8.93
						C753.15,65.02,754.67,67.61,756.41,66.79L756.41,66.79z"/>
				</g>
			</g>
			<g>
				<g>
					<path class="st4" d="M622.9,110.31c-2.68-4.7-5.37-9.4-8.05-14.1c-2.59-4.53-8.71-11.26-5.97-16.77
						c3.02-6.07,12.55-1.38,17.41-0.22c5.27,1.25,10.54,2.5,15.8,3.76c1.88,0.45,2.68-2.45,0.8-2.89
						c-6.51-1.55-13.02-3.1-19.53-4.64c-5.52-1.31-12.19-4.43-16.36,1.48c-4.35,6.17-0.19,11.23,2.91,16.67
						c3.47,6.08,6.94,12.15,10.41,18.23C621.27,113.5,623.86,111.99,622.9,110.31L622.9,110.31z"/>
				</g>
			</g>
			<g>
				<g>
					<path class="st4" d="M617.97,161.17c-4.58-2.22-9.15-4.44-13.73-6.65c-4.48-2.17-11.77-4.03-14.68-8.37
						c-5.42-8.06,8.96-10.85,13.42-12.57c5.05-1.95,10.1-3.89,15.16-5.84c1.79-0.69,1.01-3.59-0.8-2.89
						c-6.24,2.4-12.49,4.81-18.73,7.21c-6.22,2.39-11.95,3.16-12.78,10.94c-0.76,7.18,7.65,9.62,12.57,12
						c6.02,2.92,12.04,5.83,18.07,8.75C618.19,164.6,619.71,162.01,617.97,161.17L617.97,161.17z"/>
				</g>
			</g>
			<g>
				<g>
					<path class="st4" d="M673.97,222.17c-1.04,7.5-8.56,11.5-15.63,11.02c-1.93-0.13-1.92,2.87,0,3
						c8.27,0.57,17.32-4.49,18.53-13.22C677.13,221.08,674.24,220.26,673.97,222.17L673.97,222.17z"/>
				</g>
			</g>
			<g>
				<g>
					<path class="st4" d="M800.13,114.56c-0.87,6.9-6.64,11.78-13.59,11.31c-1.93-0.13-1.92,2.87,0,3
						c8.72,0.59,15.52-5.87,16.59-14.31C803.37,112.64,800.37,112.67,800.13,114.56L800.13,114.56z"/>
				</g>
			</g>
			<g>
				<g>
					<path class="st4" d="M685.69,159.7c4.95-4.75,9.91-9.51,14.86-14.26c1.4-1.34-0.73-3.46-2.12-2.12
						c-4.95,4.75-9.91,9.51-14.86,14.26C682.17,158.92,684.3,161.04,685.69,159.7L685.69,159.7z"/>
				</g>
			</g>
			<g>
				<g>
					<path class="st4" d="M755.58,93.26c-6.21,5.3-12.41,10.61-18.61,15.91c-1.34,1.14-4.93,3.13-5.43,4.98
						c-0.84,3.07,0.22,7.53,0.34,10.71c0.63-0.48,1.27-0.96,1.9-1.45c-3.44-0.47-6.88-0.94-10.31-1.42
						c-2.26-0.31-5.56,3.99-7.02,5.28c-2.33,2.05-6.43,4.43-8.01,7.14c-1.24,2.12,0.09,7.25,0.2,9.66c0.5-0.5,1-1,1.5-1.5
						c-3.37,0-6.75,0-10.12,0c-2.22,0-5.69,5.01-7.07,6.36c-2.86,2.83-5.73,5.65-8.59,8.48c-1.67,1.64-0.82,6.55-0.91,8.71
						c0.63-0.48,1.27-0.96,1.9-1.45c-2.05-0.37-7.46-2.52-9.25-1.03c-2.06,1.72-4.12,3.44-6.17,5.16
						c-6.17,5.16-12.33,10.31-18.5,15.47c-1.49,1.24,0.65,3.35,2.12,2.12c5.47-4.58,10.95-9.15,16.42-13.73
						c2.6-2.17,5.19-4.34,7.79-6.51c0.14-0.12,0.29-0.24,0.44-0.36c-1.2,1-1.4,0.37,0.59,0.73c1.92,0.35,3.85,0.7,5.77,1.05
						c0.98,0.18,1.86-0.41,1.9-1.45c0.06-1.56,0.13-3.11,0.19-4.67c0.03-0.75,0.06-1.51,0.09-2.26c0.05-1.19-0.92,1.01-0.05,0.15
						c2.8-2.76,5.6-5.52,8.39-8.28c1.4-1.38,2.8-2.76,4.19-4.14c0.39-0.39,0.78-0.77,1.18-1.16c0.87-0.85,0.59-0.19-0.31-0.19
						c3.33,0,6.67,0,10,0c0.79,0,1.54-0.68,1.5-1.5c-0.13-2.92-0.27-5.85-0.4-8.77c0.03,0.74-0.75,1.2,0.01,0.53
						c0.59-0.52,1.18-1.04,1.77-1.55c1.61-1.41,3.21-2.82,4.82-4.23c1.54-1.35,3.08-2.71,4.62-4.06c0.41-0.36,0.82-0.72,1.23-1.08
						c1.11-0.98-1.62-0.1-0.56,0.04c3.29,0.45,6.58,0.9,9.87,1.35c0.92,0.13,1.94-0.37,1.9-1.45c-0.13-3.4-0.26-6.8-0.39-10.2
						c0.03,0.79-0.76,1.22,0.04,0.53c0.45-0.38,0.89-0.76,1.34-1.14c1.51-1.29,3.02-2.58,4.54-3.88c5.77-4.93,11.53-9.86,17.3-14.79
						C759.17,94.12,757.04,92.01,755.58,93.26L755.58,93.26z"/>
				</g>
			</g>
			<g>
				<g>
					<path class="st4" d="M778.23,117.53c-5.69,4.92-11.38,9.84-17.07,14.76c-2.46,2.13-4.93,4.26-7.4,6.39
						c0.25-0.21,0.69-0.23-0.14-0.42c-0.98-0.23-1.96-0.45-2.95-0.67c-1.76-0.4-3.52-0.81-5.29-1.21c-0.95-0.22-1.9,0.44-1.9,1.45
						c-0.01,3.11-0.25,6.23-0.39,9.33c-0.05,1.13,0.36,0.32-0.66,1.16c-1.59,1.32-3.18,2.63-4.78,3.95
						c-2.84,2.35-5.67,4.7-8.51,7.04c0.93-0.77,1.83-0.26,0.27-0.57c-1.13-0.23-2.27-0.46-3.4-0.69c-1.22-0.25-2.43-0.51-3.67-0.68
						c-0.62-0.08-1.33,0.52-1.45,1.1c-0.59,2.86-1.18,5.71-1.77,8.57c-0.31,1.47,1.37,2.5,2.51,1.46c0.11-0.1,0.23-0.21,0.34-0.31
						c-0.71-0.71-1.41-1.41-2.12-2.12c-4.13,3.83-8.27,7.65-12.4,11.48c-0.76,0.7-1.52,1.41-2.28,2.11
						c-0.17,0.16-0.33,0.31-0.49,0.48c-1.36,1.35,0.85,0.55,0.06,0.45c-2.8-0.38-5.6-0.77-8.4-1.15c-0.99-0.13-1.85,0.38-1.9,1.45
						c-0.09,1.9-0.18,3.79-0.27,5.69c-0.04,0.89-0.08,1.77-0.13,2.66c0.05-1.01,0.51-1.08-0.36-0.31c-2.21,1.95-4.43,3.91-6.64,5.86
						c-6.07,5.36-12.14,10.71-18.21,16.07c-1.45,1.28,0.68,3.4,2.12,2.12c6.29-5.55,12.58-11.1,18.87-16.65
						c2.14-1.89,4.21-3.92,6.47-5.65c1.97-1.5,1.04-7.55,1.15-9.79c-0.63,0.48-1.27,0.96-1.9,1.45c2.92,0.4,5.84,0.8,8.76,1.2
						c1.65,0.23,2.73-1.51,3.84-2.54c4.61-4.27,9.22-8.53,13.82-12.8c1.42-1.32-0.7-3.42-2.12-2.12c-0.11,0.1-0.23,0.21-0.34,0.31
						c0.84,0.49,1.67,0.97,2.51,1.46c0.59-2.86,1.18-5.71,1.77-8.57c-0.48,0.37-0.96,0.73-1.45,1.1c2.08,0.28,6.64,2.46,8.56,1.33
						c3.18-1.86,6.04-4.98,8.87-7.32c1.61-1.33,6.16-3.72,6.27-6.23c0.15-3.44,0.42-6.9,0.43-10.34c-0.63,0.48-1.27,0.96-1.9,1.45
						c3.29,0.75,6.73,1.98,10.11,2.08c1.83,0.05,4.75-3.63,5.93-4.65c6.57-5.68,13.14-11.36,19.71-17.04
						C781.82,118.38,779.69,116.27,778.23,117.53L778.23,117.53z"/>
				</g>
			</g>
			<g>
				<g>
					<path class="st4" d="M638.55,210.02c-5.39,0.49-10.78,0.99-16.17,1.48c-4.97,0.46-13.11,3-17.29-0.76
						c-5.72-5.15,3.21-12.58,6.32-16.58c3.32-4.27,6.65-8.55,9.97-12.82c1.17-1.51-0.94-3.65-2.12-2.12
						c-4.11,5.28-8.21,10.57-12.32,15.85c-3.42,4.39-9.2,9.33-5.59,15.5c3.85,6.57,9.99,4.95,16.3,4.37
						c6.97-0.64,13.93-1.28,20.9-1.91C640.46,212.85,640.48,209.85,638.55,210.02L638.55,210.02z"/>
				</g>
			</g>
		</g>
	</g>
</g>
<g id="hand2">
	<g>
		<g>
			<g>
				<path class="st4" d="M76.49,446.13c-3.98,6.33,1.59,10.35,5.71,14.22c6.17,5.81,12.33,11.61,18.5,17.42
					c21.1,19.87,42.21,39.75,63.31,59.62c36.9,34.75,73.8,69.5,110.7,104.24c0.6,0.57,1.21,1.13,1.81,1.7
					c0.35-0.85,0.71-1.71,1.06-2.56c0,0-0.01,0-0.01,0c-1.91,0.14-1.94,3.11,0,3c21.11-1.16,37.52-17.27,39.86-38.14
					c0.42-3.75,0.5-6.05-2.15-8.47c-1.54-1.41-3.08-2.82-4.61-4.23c-16.41-15.05-32.81-30.09-49.22-45.14
					c-43.54-39.92-87.07-79.85-130.61-119.78c-3.98-3.65-7.96-7.3-11.93-10.94c-3.6-3.3-6.95-6.89-12.44-3.34
					c-1.12,0.72-0.89,2.32,0.36,2.74c0.08,0.03,0.15,0.05,0.23,0.08c-0.37-0.48-0.73-0.96-1.1-1.45c0.2,13.24-7.79,23.68-20,28.31
					c-2.94,1.11-6.14,3.11-8.22,1.28c-2.13-1.88-4.26-3.76-6.39-5.63c-6.15-5.42-12.3-10.84-18.45-16.27
					c-2.13-1.88-4.26-3.76-6.39-5.63c-0.42-0.37-0.85-0.75-1.27-1.12c0.84,0.74,1.58-3.4,1.65-3.63c0.8-2.72,2.08-5.24,3.49-7.68
					c-0.91-0.38-1.83-0.77-2.74-1.16c-1.65,4.27-3.3,8.53-4.95,12.8c-0.52,1.35,1.15,2.2,2.2,1.69
					c14.94-7.22,26.11-16.41,29.73-33.17c0.21-0.99-0.71-2.32-1.85-1.85c-4.65,1.92-8.76,4.45-12.85,7.36
					c-1.56,1.11-0.22,3.51,1.51,2.59c4.36-2.31,8.72-4.62,13.08-6.93c-0.61-0.08-1.21-0.16-1.82-0.23
					c11.27,9.84,22.54,19.68,33.81,29.51c1.45,1.27,3.58-0.85,2.12-2.12c-11.27-9.84-22.54-19.68-33.81-29.51
					c-0.53-0.46-1.19-0.57-1.82-0.23c-4.36,2.31-8.72,4.62-13.08,6.93c0.5,0.86,1.01,1.73,1.51,2.59c3.86-2.75,7.73-5.25,12.13-7.06
					c-0.62-0.61-1.23-1.23-1.85-1.85c-1.44,6.65-3.86,12.72-8.36,17.89c-5.31,6.1-12.82,10.03-19.99,13.49
					c0.73,0.56,1.47,1.13,2.2,1.69c1.65-4.27,3.3-8.53,4.95-12.8c0.63-1.62-1.91-2.59-2.74-1.16c-2.45,4.25-4.06,8.66-5.08,13.47
					c-0.11,0.51-0.03,1.1,0.39,1.46c10.48,9.24,20.97,18.48,31.46,27.73c0.79,0.69,2.23,2.53,3.43,2.53
					c5.51,0,11.73-2.92,16.33-5.74c9.6-5.88,14.82-16.45,14.66-27.54c-0.01-0.7-0.46-1.23-1.1-1.45c-0.08-0.03-0.15-0.05-0.23-0.08
					c0.12,0.91,0.24,1.83,0.36,2.74c4.68-3.03,10.47,4.4,13.65,7.32c7.08,6.49,14.17,12.99,21.25,19.48
					c22.15,20.31,44.29,40.62,66.44,60.93c34.76,31.88,69.52,63.75,104.27,95.62c0.63,0.57,1,0.93,1.02,1.82
					c0.15,6.91-1.84,13.7-5.14,19.73c-6.39,11.66-18.79,18.83-31.9,19.55c0,1,0,2,0,3c0,0,0.01,0,0.01,0
					c1.24-0.09,2.08-1.6,1.06-2.56c-31.94-30.07-63.87-60.15-95.81-90.22c-34.24-32.25-68.49-64.49-102.73-96.74
					c-2-1.89-2.6-4.1-1.02-6.62C80.11,446,77.51,444.5,76.49,446.13L76.49,446.13z"/>
			</g>
		</g>
		<g>
			<g>
				<g>
					<path class="st4" d="M33.3,529.37c9.14,11.37,18.27,22.75,27.41,34.12c1.21,1.51,3.32-0.63,2.12-2.12
						c-9.14-11.37-18.27-22.75-27.41-34.12C34.21,525.74,32.1,527.88,33.3,529.37L33.3,529.37z"/>
				</g>
			</g>
			<g>
				<g>
					<path class="st4" d="M66.61,503.14c9.15,11.28,18.3,22.56,27.44,33.83c1.22,1.5,3.33-0.63,2.12-2.12
						c-9.15-11.28-18.3-22.56-27.44-33.83C67.51,499.52,65.4,501.66,66.61,503.14L66.61,503.14z"/>
				</g>
			</g>
			<g>
				<g>
					<path class="st4" d="M93.45,536.29c-2.44,16.08-16.05,24.86-31.68,24.64c-1.94-0.03-1.93,2.97,0,3
						c16.84,0.24,31.94-9.49,34.57-26.84C96.63,535.2,93.74,534.38,93.45,536.29L93.45,536.29z"/>
				</g>
			</g>
			<g>
				<g>
					<path class="st4" d="M65.71,501.32c-5.74,14.57-17.22,20.98-31.72,25.23c-1.85,0.54-1.06,3.44,0.8,2.89
						c7.9-2.32,15.59-5.18,22.15-10.27c5.6-4.34,9.11-10.58,11.67-17.05C69.31,500.32,66.41,499.54,65.71,501.32L65.71,501.32z"/>
				</g>
			</g>
			<g>
				<g>
					<path class="st4" d="M56.26,506.53c3.51-1.39,6.95-2.75,10.67-3.46c1.9-0.36,1.09-3.25-0.8-2.89
						c-3.72,0.71-7.16,2.07-10.67,3.46C53.68,504.34,54.46,507.25,56.26,506.53L56.26,506.53z"/>
				</g>
			</g>
			<g>
				<g>
					<path class="st4" d="M35.65,527.51c1.45-4.27,3.26-7.89,6.37-11.21c1.32-1.41-0.8-3.54-2.12-2.12
						c-3.46,3.7-5.52,7.77-7.14,12.53C32.13,528.55,35.03,529.33,35.65,527.51L35.65,527.51z"/>
				</g>
			</g>
			<g>
				<g>
					<g>
						<path class="st4" d="M59.88,571.07c26.74,35.62,53.49,71.25,80.23,106.87c26.34,35.09,52.69,70.18,79.03,105.27
							c1.15,1.53,3.75,0.04,2.59-1.51c-26.74-35.62-53.49-71.25-80.23-106.87c-26.34-35.09-52.69-70.18-79.03-105.27
							C61.33,568.03,58.72,569.53,59.88,571.07L59.88,571.07z"/>
					</g>
				</g>
				<g>
					<g>
						<path class="st4" d="M60.55,561.33c-2.87,2.8-2.94,6.98-0.45,10.03c1.22,1.5,3.33-0.64,2.12-2.12
							c-1.47-1.8-1.16-4.21,0.45-5.79C64.06,562.1,61.93,559.98,60.55,561.33L60.55,561.33z"/>
					</g>
				</g>
				<g>
					<g>
						<path class="st4" d="M100.97,539.41c27.29,35.37,54.58,70.74,81.87,106.11c26.27,34.05,52.55,68.11,78.82,102.16
							c1.16,1.51,3.77,0.02,2.59-1.51c-27.29-35.37-54.58-70.74-81.87-106.11c-26.27-34.05-52.55-68.11-78.82-102.16
							C102.4,536.39,99.79,537.88,100.97,539.41L100.97,539.41z"/>
					</g>
				</g>
				<g>
					<g>
						<path class="st4" d="M262.34,747.8c-3.01,20.66-20.9,35.54-41.92,33.15c-1.92-0.22-1.9,2.78,0,3
							c22.21,2.52,41.63-13.5,44.81-35.36C265.51,746.71,262.62,745.89,262.34,747.8L262.34,747.8z"/>
					</g>
				</g>
				<g>
					<g>
						<path class="st4" d="M103.56,537.89c-2.08-3.35-6.14-4.47-9.63-2.61c-1.71,0.91-0.19,3.5,1.51,2.59
							c2.03-1.08,4.32-0.4,5.52,1.53C101.99,541.04,104.58,539.54,103.56,537.89L103.56,537.89z"/>
					</g>
				</g>
			</g>
		</g>
		<g>
			<g>
				<path class="st4" d="M15.37,419.11c1.86-2.29,4.31-1.95,6.55-0.38c1.59,1.12,3.08-1.49,1.51-2.59
					c-3.26-2.29-7.53-2.42-10.19,0.85C12.04,418.47,14.15,420.61,15.37,419.11L15.37,419.11z"/>
			</g>
		</g>
		<g>
			<g>
				<path class="st4" d="M47.45,385.84c4.61,3.54,1.71,7.34-0.56,10.56c-2.8,3.98-5.6,7.96-8.39,11.95
					c-4.34,6.17-8.67,12.34-13.01,18.52c-1.11,1.59,1.49,3.08,2.59,1.51c5.45-7.76,10.9-15.52,16.35-23.27
					c4.43-6.3,13.39-15.04,4.53-21.86C47.43,382.07,45.94,384.68,47.45,385.84L47.45,385.84z"/>
			</g>
		</g>
		<g>
			<g>
				<path class="st4" d="M35.09,458.77c-3.46-13.71-6.91-27.42-10.37-41.12c-0.47-1.88-3.37-1.08-2.89,0.8
					c3.46,13.71,6.91,27.42,10.37,41.12C32.67,461.44,35.56,460.65,35.09,458.77L35.09,458.77z"/>
			</g>
		</g>
		<g>
			<g>
				<path class="st4" d="M28.76,456.77c-2.68-10.64-5.36-21.28-8.04-31.92c-0.47-1.88-3.37-1.08-2.89,0.8
					c2.68,10.64,5.36,21.28,8.04,31.92C26.34,459.44,29.23,458.65,28.76,456.77L28.76,456.77z"/>
			</g>
		</g>
		<g>
			<g>
				<path class="st4" d="M23.69,468c5.5,1.45,9.57-3.87,11.1-8.47c0.61-1.84-2.28-2.62-2.89-0.8c-0.98,2.94-3.68,7.35-7.41,6.37
					C22.62,464.61,21.82,467.51,23.69,468L23.69,468z"/>
			</g>
		</g>
		<g>
			<g>
				<path class="st4" d="M21.85,463.81c3.4,1.07,5.86-3.18,6.86-5.73c0.3-0.76-0.32-1.64-1.05-1.84c-0.85-0.23-1.55,0.29-1.85,1.05
					c-0.42,1.07-1,2.08-1.8,2.91c-0.46,0.49-1.04,0.82-1.37,0.72C20.8,460.34,20.01,463.24,21.85,463.81L21.85,463.81z"/>
			</g>
		</g>
		<g>
			<g>
				<path class="st4" d="M15.93,417.91c5.87-7.71,11.74-15.41,17.61-23.12c1.17-1.54-1.43-3.03-2.59-1.51
					c-5.87,7.71-11.74,15.41-17.61,23.12C12.17,417.93,14.78,419.43,15.93,417.91L15.93,417.91z"/>
			</g>
		</g>
		<g>
			<g>
				<path class="st4" d="M9.01,417.48c7.58-9.64,15.17-19.29,22.75-28.93c1.18-1.5-0.93-3.64-2.12-2.12
					c-7.58,9.64-15.17,19.29-22.75,28.93C5.71,416.86,7.82,419,9.01,417.48L9.01,417.48z"/>
			</g>
		</g>
		<g>
			<g>
				<path class="st4" d="M6.45,416.42c-0.47,8.71,4.25,15.66,13.33,16.13c1.93,0.1,1.92-2.9,0-3c-7.47-0.38-10.71-6.14-10.33-13.13
					C9.56,414.48,6.56,414.49,6.45,416.42L6.45,416.42z"/>
			</g>
		</g>
		<g>
			<g>
				<path class="st4" d="M59.62,398.01c5.32-9.86-1.33-24.08-12.74-24.74c-6.17-0.36-12.06,3.95-15,9.07
					c-3.55,6.18-0.86,12.9,3.78,17.54c1.37,1.37,3.49-0.75,2.12-2.12c-4.27-4.26-5.92-9.36-2.8-14.8c2.37-4.13,7.26-6.56,11.9-6.68
					c9.29-0.22,14.08,12.94,10.15,20.23C56.11,398.2,58.71,399.71,59.62,398.01L59.62,398.01z"/>
			</g>
		</g>
		<g>
			<g>
				<path class="st4" d="M41.8,388.85c3.93,3.14-6.14,13.83-7.58,15.81c-3.38,4.63-6.76,9.26-10.14,13.89
					c-1.14,1.56,1.46,3.06,2.59,1.51c4.12-5.64,8.24-11.29,12.36-16.93c3.11-4.26,10.83-11.65,4.89-16.4
					C42.42,385.53,40.28,387.64,41.8,388.85L41.8,388.85z"/>
			</g>
		</g>
		<g>
			<g>
				<path class="st4" d="M42.51,390.14c0.31-1.38,0.7-2.8,1.67-3.87c0.99-1.1,2.47-1.22,3.86-1.13c1.93,0.13,1.92-2.88,0-3
					c-2.08-0.13-3.93,0.32-5.56,1.61c-1.66,1.31-2.42,3.61-2.86,5.59C39.19,391.23,42.09,392.03,42.51,390.14L42.51,390.14z"/>
			</g>
		</g>
		<g>
			<g>
				<path class="st4" d="M52.56,400.51c-1.21,0.41-2.35,1.02-3.56,1.4c-1.38,0.43-3.02-0.42-4.25-0.94
					c-1.79-0.74-2.56,2.16-0.8,2.89c1.67,0.7,3.47,1.38,5.3,1.05c1.43-0.26,2.73-1.05,4.1-1.51
					C55.18,402.79,54.4,399.89,52.56,400.51L52.56,400.51z"/>
			</g>
		</g>
		<g>
			<g>
				<path class="st4" d="M12.44,418.25c-0.29,3.8,2.44,7.27,6.24,7.79c1.89,0.26,2.71-2.63,0.8-2.89c-2.57-0.35-4.23-2.28-4.03-4.9
					C15.59,416.32,12.59,416.33,12.44,418.25L12.44,418.25z"/>
			</g>
		</g>
		<g>
			<g>
				<path class="st4" d="M8.73,428.14c-0.26-1-0.41-1.98-0.41-3.01c0-0.44,0.08-0.85,0.2-1.28c0.06-0.21,0.37-0.47,0.13-0.38
					c1.8-0.67,1.02-3.57-0.8-2.89c-3.24,1.21-2.71,5.7-2.02,8.36C6.33,430.8,9.22,430.01,8.73,428.14L8.73,428.14z"/>
			</g>
		</g>
		<g>
			<g>
				<path class="st4" d="M24.69,449.99c-5.56,1.41-12.43,6.32-11.3,12.84c0.33,1.9,3.22,1.09,2.89-0.8
					c-0.81-4.71,5.51-8.21,9.21-9.15C27.36,452.41,26.57,449.52,24.69,449.99L24.69,449.99z"/>
			</g>
		</g>
		<g>
			<g>
				<path class="st4" d="M20.17,450.97c-1.91-7.39-3.82-14.77-5.72-22.16c-0.48-1.87-3.38-1.08-2.89,0.8
					c1.91,7.39,3.82,14.77,5.72,22.16C17.76,453.64,20.65,452.84,20.17,450.97L20.17,450.97z"/>
			</g>
		</g>
		<g>
			<g>
				<path class="st4" d="M16.02,457.23c-2.37-9.31-4.75-18.62-7.12-27.93c-0.48-1.87-3.37-1.08-2.89,0.8
					c2.37,9.31,4.75,18.62,7.12,27.93C13.61,459.9,16.5,459.1,16.02,457.23L16.02,457.23z"/>
			</g>
		</g>
		<g>
			<g>
				<path class="st4" d="M28.33,498.03c-4.02-12-8.03-24-12.05-36c-0.61-1.83-3.51-1.04-2.89,0.8c4.02,12,8.03,24,12.05,36
					C26.05,500.66,28.94,499.87,28.33,498.03L28.33,498.03z"/>
			</g>
		</g>
		<g>
			<g>
				<path class="st4" d="M33.17,492.45c-3.42-10.06-6.83-20.12-10.25-30.17c-0.62-1.82-3.52-1.04-2.89,0.8
					c3.42,10.06,6.83,20.12,10.25,30.17C30.89,495.07,33.79,494.29,33.17,492.45L33.17,492.45z"/>
			</g>
		</g>
		<g>
			<g>
				<path class="st4" d="M53.32,489.97c-4.13-12.09-8.25-24.19-12.38-36.28c-0.62-1.82-3.52-1.04-2.89,0.8
					c4.13,12.09,8.25,24.19,12.38,36.28C51.05,492.58,53.94,491.8,53.32,489.97L53.32,489.97z"/>
			</g>
		</g>
		<g>
			<g>
				<path class="st4" d="M46.63,488.72c-3.5-10.39-7-20.78-10.51-31.16c-0.61-1.82-3.51-1.04-2.89,0.8
					c3.5,10.39,7,20.78,10.51,31.16C44.35,491.34,47.25,490.56,46.63,488.72L46.63,488.72z"/>
			</g>
		</g>
		<g>
			<g>
				<path class="st4" d="M40.56,452.94c-1.36-2.92-4.65-4.07-7.63-4.44c-1.92-0.24-1.89,2.76,0,3c1.98,0.25,4.14,1.04,5.04,2.96
					C38.79,456.2,41.38,454.68,40.56,452.94L40.56,452.94z"/>
			</g>
		</g>
		<g>
			<g>
				<path class="st4" d="M42.75,505.17c5.82-1.83,12.1-8.11,10.6-14.6c-0.43-1.88-3.33-1.09-2.89,0.8c1.1,4.76-4.34,9.6-8.51,10.91
					C40.11,502.86,40.9,505.75,42.75,505.17L42.75,505.17z"/>
			</g>
		</g>
		<g>
			<g>
				<path class="st4" d="M41.43,499.42c3.97-1.2,6.65-4.97,5.48-9.11c-0.53-1.86-3.42-1.07-2.89,0.8c0.72,2.54-0.96,4.69-3.38,5.42
					C38.79,497.08,39.58,499.98,41.43,499.42L41.43,499.42z"/>
			</g>
		</g>
		<g>
			<g>
				<path class="st4" d="M44.98,514.98c-6.56-3.54-13.4-9.51-11.68-17.77c1.1-5.29,6.49-8.74,11.38-5.82
					c1.67,0.99,3.17-1.6,1.51-2.59c-6.26-3.73-12.71-0.11-15.33,6.13c-4.09,9.74,4.88,18.48,12.6,22.65
					C45.17,518.49,46.68,515.9,44.98,514.98L44.98,514.98z"/>
			</g>
		</g>
		<g>
			<g>
				<path class="st4" d="M25.44,498.83c0.96,2.8,3,7.57,6.79,6.52c1.86-0.51,1.07-3.41-0.8-2.89c-0.59,0.16-1.1-0.5-1.42-0.93
					c-0.77-1.04-1.27-2.28-1.68-3.5C27.71,496.21,24.81,497,25.44,498.83L25.44,498.83z"/>
			</g>
		</g>
		<g>
			<g>
				<path class="st4" d="M36.88,497.11c0.56,8.2,4.21,14.87,12.57,16.89c1.88,0.46,2.68-2.44,0.8-2.89c-7.01-1.7-9.89-7.12-10.37-14
					C39.75,495.19,36.74,495.18,36.88,497.11L36.88,497.11z"/>
			</g>
		</g>
		<g>
			<g>
				<path class="st4" d="M55.56,510.12c0.84-4.26-0.61-8.97-2.06-12.93c-0.66-1.8-3.56-1.02-2.89,0.8
					c1.24,3.39,2.78,7.68,2.06,11.34C52.29,511.21,55.18,512.02,55.56,510.12L55.56,510.12z"/>
			</g>
		</g>
		<g>
			<g>
				<path class="st4" d="M49.17,511.07c1.29-2.77,0.77-6.04-0.22-8.83c-0.64-1.81-3.54-1.03-2.89,0.8c0.68,1.9,1.43,4.56,0.52,6.51
					C45.77,511.3,48.35,512.82,49.17,511.07L49.17,511.07z"/>
			</g>
		</g>
	</g>
</g>
<g id="hand1">
</g>
<g id="phone">
</g>
<g id="logo">
	<g>
		<g>
			<path class="st6" d="M390.44,642.17c-5.29,4.34-13.4,3.12-18.13-2.73L79.04,276.55c-4.73-5.85-4.28-14.11,1.01-18.46L238.8,127.7
				c5.29-4.34,13.41-3.12,18.14,2.73l293.27,362.9c4.73,5.85,4.28,14.12-1.01,18.46L390.44,642.17z"/>
			<path class="st2" d="M201.96,209.87c1.53,1.88,1.09,4.79-0.99,6.51l-27.07,22.43c-2.08,1.72-5,1.59-6.53-0.29l0,0
				c-1.53-1.88-1.09-4.79,0.99-6.51l27.07-22.43C197.5,207.86,200.43,207.99,201.96,209.87L201.96,209.87z"/>
			<polygon class="st2" points="504.01,458.5 350.55,586.17 124.2,309.62 277.66,181.96 			"/>

				<ellipse transform="matrix(0.9997 -0.0233 0.0233 0.9997 -12.698 10.6019)" class="st2" cx="447.95" cy="549.42" rx="21.85" ry="22.03"/>
			<path class="st5" d="M455.33,547.08c1.72,2.05,1.43,5.15-0.65,6.92l-4.22,3.61c-2.08,1.77-5.16,1.55-6.88-0.5l-3.5-4.16
				c-1.72-2.05-1.43-5.15,0.65-6.92l4.22-3.61c2.08-1.77,5.16-1.55,6.88,0.5L455.33,547.08z"/>

				<ellipse transform="matrix(0.9997 -0.0234 0.0234 0.9997 -4.9057 4.1478)" class="st2" cx="174.96" cy="211.9" rx="5.91" ry="5.68"/>
		</g>
		<g>
			<g>
				<path d="M356.53,328.5c2.24,4.69,0.44,10.14-4.95,12.72l-96.01,45.92c-5.39,2.58-11.94,1.12-14.18-3.57l-13.53-28.29
					c-2.24-4.69,1.11-9.9,6.5-12.48l96.01-45.92c5.39-2.58,10.39-1.36,12.63,3.33L356.53,328.5z"/>
				<g>
					<path d="M355.09,328.9c2.78,6.93-2.44,10.15-7.64,12.64c-4.57,2.18-9.14,4.37-13.7,6.55c-14.17,6.78-28.35,13.56-42.52,20.34
						c-11.13,5.32-22.26,10.64-33.38,15.97c-4.86,2.33-12.1,4.79-15.17-1.62c-2.53-5.29-5.06-10.58-7.59-15.87
						c-2.71-5.66-9.03-13.84-4.23-19.71c2.12-2.59,6.23-4.04,9.22-5.47c11.96-5.72,23.92-11.44,35.88-17.16
						c13.84-6.62,27.67-13.23,41.51-19.85c3.96-1.89,7.92-3.79,11.88-5.68c0.6-0.28,1.19-0.57,1.79-0.85
						c5.17-2.47,9.14-0.24,11.37,4.42c4.25,8.89,8.5,17.78,12.75,26.66c0.83,1.75,3.42,0.22,2.59-1.51
						c-2.4-5.01-4.79-10.02-7.19-15.03c-2.23-4.66-4.03-10.66-7.26-14.76c-6.62-8.4-18.25-0.23-25.54,3.26
						c-25.98,12.42-51.96,24.85-77.94,37.27c-7.99,3.82-17.57,8.71-12.56,19.18c3.08,6.44,6.16,12.88,9.24,19.33
						c2.44,5.1,3.97,10.25,9.72,12.37c7.42,2.74,18.67-5.06,25.02-8.1c13.99-6.69,27.97-13.38,41.96-20.07
						c10.59-5.06,21.18-10.13,31.77-15.19c7.36-3.52,17.05-7.63,12.92-17.9C357.27,326.33,354.36,327.1,355.09,328.9z"/>
				</g>
			</g>
			<g>
				<g>
					<g>
						<path d="M293.33,475.7c-2.96-10.25-7.8-15.15-21.2-24.7l0,0l6.73-11.75l0,0c14.91,12.49,17.53,20.5,14.54,36.2"/>
						<path d="M294.52,426.41c3.95,9.91,9.24,14.32,23.5,22.51l0,0l-5.55,12.35l0,0c-16.05-10.98-19.44-18.69-18-34.61"/>
						<path d="M281.8,444.17c6.87,4.03,12.01,4.21,24.18,2.5l0,0l2.39,9.83l0,0c-14.5,0.89-20.04-2.11-26.48-12.15"/>
					</g>
					<path d="M308.16,414.71c3.95,9.91,9.24,14.32,23.5,22.51l0,0l-5.55,12.35l0,0c-16.06-10.98-19.45-18.7-18-34.61"/>
					<path d="M415.43,379.5c-7.69-7.39-14.33-9.21-30.71-10.77l0,0l-0.06-13.54l0,0c19.16,3.35,25.44,8.97,30.71,24.05"/>
					<path d="M387.27,364.03c0.65,9.34,3.9,14.45,13.64,25.11l0,0l-7.94,8.84l0,0c-10.49-13.47-11.27-20.83-5.81-33.75"/>
					<path d="M379.62,407.18c-2.97-10.25-7.8-15.15-21.19-24.7l0,0l6.73-11.75l0,0c14.91,12.49,17.53,20.5,14.54,36.2"/>
					<path d="M337.83,439.86c-2.96-10.25-7.8-15.15-21.2-24.7l0,0l6.73-11.75l0,0c14.91,12.49,17.53,20.5,14.54,36.2"/>
					<path d="M339.02,390.57c3.95,9.91,9.24,14.32,23.5,22.51l0,0l-5.55,12.35l0,0c-16.06-10.98-19.45-18.69-18-34.61"/>
					<path d="M326.3,408.33c6.87,4.03,12.01,4.21,24.18,2.5l0,0l2.39,9.82l0,0c-14.5,0.89-20.03-2.11-26.48-12.15"/>
					<path d="M380.66,385.05c6.72-2.3,9.83-5.68,15.75-14.91l0,0l8.04,4.1l0,0c-7.83,10.33-13.08,12.33-23.63,10.85"/>
					<path d="M385.75,397.33c-10.2,6.39-12.62,5.76-23.49,3.17l0.96,11.17c12.03-2.06,14.75-2.46,22.63-14.54"/>
				</g>
				<g>
					<path class="st1" d="M365.47,335.82c4,4.98,3.64,11.8-1.69,16.08l-94.89,76.23c-5.33,4.28-13.22,4.09-17.22-0.88l-24.14-30.05
						c-4-4.98-1.8-11.88,3.53-16.16l94.89-76.24c5.33-4.28,11.39-4.01,15.39,0.97L365.47,335.82z"/>
					<g>
						<path class="st4" d="M254.61,379.38c1.24-1,2.51-1.73,3.8-2.2c1.29-0.46,2.58-0.64,3.85-0.54c1.28,0.1,2.51,0.49,3.69,1.16
							c1.18,0.67,2.27,1.63,3.27,2.87c1,1.24,1.7,2.51,2.11,3.81c0.4,1.3,0.52,2.58,0.35,3.85c-0.17,1.27-0.62,2.49-1.35,3.65
							c-0.73,1.16-1.71,2.24-2.96,3.25l-9.67,7.79l9.57,11.88l-2.64,2.13l-22.34-27.73L254.61,379.38z M264.98,393.44
							c1.84-1.48,2.95-3.15,3.34-5c0.39-1.85-0.19-3.73-1.73-5.65c-1.54-1.92-3.26-2.88-5.15-2.89c-1.89-0.01-3.75,0.72-5.59,2.2
							l-9.09,7.32l9.14,11.34L264.98,393.44z"/>
						<path class="st4" d="M274.96,362.99l33.21,18.96l-2.83,2.28l-10.32-5.9l-12.62,10.17l3.61,11.31l-2.8,2.25l-11.2-36.71
							L274.96,362.99z M292.31,376.81l-16.81-9.89l5.9,18.69L292.31,376.81z"/>
						<path class="st4" d="M308.13,372.83c1.24,0.58,2.49,0.83,3.77,0.74c1.27-0.09,2.57-0.46,3.88-1.11
							c1.31-0.65,2.6-1.49,3.87-2.51c0.72-0.58,1.43-1.32,2.12-2.22c0.69-0.9,1.22-1.87,1.59-2.92s0.52-2.12,0.44-3.23
							c-0.08-1.11-0.53-2.17-1.34-3.18c-0.63-0.78-1.34-1.31-2.15-1.6c-0.81-0.29-1.65-0.4-2.52-0.34
							c-0.87,0.06-1.74,0.24-2.61,0.53c-0.87,0.3-1.69,0.63-2.46,0.99l-7.4,3.46c-0.97,0.44-1.96,0.81-2.97,1.12
							c-1.01,0.3-2.01,0.43-3,0.37c-0.99-0.06-1.96-0.32-2.91-0.79c-0.95-0.47-1.87-1.25-2.75-2.33c-0.54-0.67-1.05-1.57-1.52-2.68
							c-0.47-1.12-0.67-2.36-0.61-3.74c0.07-1.38,0.5-2.84,1.29-4.4s2.16-3.12,4.1-4.68c1.37-1.11,2.83-1.98,4.36-2.62
							c1.54-0.64,3.06-0.97,4.58-1c1.52-0.03,2.98,0.27,4.41,0.9c1.42,0.63,2.71,1.65,3.85,3.07l-2.64,2.13
							c-0.91-1.02-1.89-1.75-2.96-2.2c-1.06-0.44-2.15-0.66-3.27-0.63c-1.11,0.02-2.23,0.26-3.34,0.71
							c-1.11,0.45-2.16,1.07-3.14,1.86c-0.91,0.73-1.7,1.53-2.39,2.4c-0.69,0.87-1.17,1.78-1.46,2.71
							c-0.29,0.94-0.35,1.91-0.17,2.93c0.17,1.01,0.68,2.04,1.51,3.07c0.52,0.65,1.08,1.12,1.69,1.42c0.6,0.3,1.24,0.47,1.9,0.49
							c0.66,0.02,1.33-0.06,2-0.26c0.67-0.2,1.34-0.46,2.02-0.79l8.1-3.78c1.19-0.53,2.37-0.96,3.54-1.29
							c1.17-0.32,2.31-0.47,3.42-0.45c1.11,0.03,2.17,0.29,3.2,0.79c1.02,0.5,1.99,1.32,2.91,2.46c0.25,0.31,0.55,0.75,0.9,1.32
							c0.35,0.57,0.64,1.25,0.86,2.03c0.22,0.78,0.35,1.65,0.38,2.61c0.03,0.96-0.16,2-0.57,3.11c-0.4,1.12-1.07,2.29-1.99,3.53
							c-0.93,1.24-2.2,2.51-3.83,3.83c-1.63,1.31-3.3,2.35-5,3.1c-1.7,0.75-3.36,1.13-4.96,1.15c-1.61,0.02-3.17-0.37-4.68-1.16
							c-1.51-0.79-2.92-2.07-4.22-3.84l2.64-2.13C305.71,371.24,306.89,372.25,308.13,372.83z"/>
						<path class="st4" d="M332.59,353.12c1.24,0.58,2.49,0.83,3.77,0.74s2.57-0.46,3.88-1.11c1.31-0.65,2.6-1.49,3.87-2.51
							c0.72-0.58,1.43-1.32,2.12-2.22c0.69-0.9,1.22-1.87,1.59-2.91c0.37-1.05,0.52-2.12,0.44-3.23c-0.08-1.11-0.53-2.17-1.34-3.18
							c-0.63-0.78-1.34-1.31-2.15-1.6c-0.81-0.29-1.65-0.4-2.52-0.34c-0.87,0.06-1.74,0.24-2.61,0.54c-0.87,0.3-1.69,0.63-2.46,0.99
							l-7.4,3.46c-0.97,0.44-1.96,0.81-2.97,1.12c-1.01,0.3-2.01,0.43-3,0.37c-0.99-0.06-1.96-0.32-2.91-0.79
							c-0.95-0.47-1.87-1.25-2.75-2.33c-0.54-0.67-1.05-1.57-1.52-2.68c-0.47-1.11-0.67-2.36-0.61-3.74s0.5-2.84,1.29-4.4
							c0.79-1.56,2.16-3.12,4.1-4.68c1.37-1.11,2.83-1.98,4.36-2.62c1.54-0.64,3.06-0.97,4.58-1c1.52-0.03,2.98,0.27,4.41,0.9
							c1.42,0.63,2.71,1.65,3.85,3.07l-2.64,2.13c-0.91-1.02-1.89-1.75-2.96-2.2c-1.06-0.45-2.15-0.66-3.27-0.63
							c-1.11,0.02-2.23,0.26-3.34,0.71c-1.11,0.45-2.16,1.07-3.14,1.86c-0.91,0.73-1.7,1.53-2.39,2.4
							c-0.69,0.87-1.17,1.78-1.46,2.71c-0.29,0.94-0.35,1.91-0.17,2.93c0.17,1.01,0.68,2.04,1.51,3.07
							c0.52,0.65,1.08,1.12,1.69,1.42c0.61,0.3,1.24,0.47,1.9,0.49c0.66,0.02,1.33-0.06,2-0.27c0.67-0.2,1.34-0.46,2.02-0.79
							l8.1-3.78c1.19-0.53,2.37-0.96,3.54-1.29c1.17-0.32,2.31-0.47,3.42-0.45c1.11,0.03,2.17,0.29,3.2,0.79
							c1.02,0.5,1.99,1.32,2.91,2.46c0.25,0.31,0.55,0.75,0.9,1.32c0.35,0.57,0.64,1.24,0.86,2.03c0.22,0.78,0.35,1.65,0.38,2.61
							c0.03,0.96-0.16,2-0.57,3.11c-0.4,1.12-1.07,2.29-1.99,3.53c-0.93,1.24-2.2,2.51-3.83,3.83c-1.63,1.31-3.3,2.35-5,3.1
							c-1.7,0.75-3.36,1.13-4.96,1.15c-1.61,0.02-3.17-0.37-4.68-1.16s-2.92-2.07-4.21-3.84l2.64-2.13
							C330.17,351.53,331.35,352.54,332.59,353.12z"/>
					</g>
				</g>
			</g>
		</g>
	</g>
</g>
<g id="ninja_x5F_soward">
	<g>
		<path class="st0" d="M304.66,9.31"/>
		<g>
			<g>
				<path class="st4" d="M394.4,272.4c1.69,1.95,3.38,3.9,5.07,5.85c1.27,1.46,3.38-0.67,2.12-2.12c-1.69-1.95-3.38-3.9-5.07-5.85
					C395.26,268.81,393.14,270.94,394.4,272.4L394.4,272.4z"/>
			</g>
		</g>
		<g>
			<g>
				<path class="st4" d="M486.53,198.54c1.47,1.87,2.93,3.74,4.4,5.61c1.19,1.52,3.3-0.62,2.12-2.12c-1.47-1.87-2.93-3.74-4.4-5.61
					C487.46,194.9,485.35,197.04,486.53,198.54L486.53,198.54z"/>
			</g>
		</g>
		<g>
			<g>
				<path class="st4" d="M283.05,10.2c6.74,0.04,13.48,0.09,20.22,0.13c1.94,0.01,1.93-2.99,0-3c-6.74-0.04-13.48-0.09-20.22-0.13
					C281.11,7.19,281.12,10.19,283.05,10.2L283.05,10.2z"/>
			</g>
		</g>
		<g>
			<g>
				<path class="st4" d="M267.27,79.58c1.99,0.48,3.99,0.96,5.98,1.44c1.88,0.45,2.68-2.44,0.8-2.89c-1.99-0.48-3.99-0.96-5.98-1.44
					C266.18,76.23,265.39,79.12,267.27,79.58L267.27,79.58z"/>
			</g>
		</g>
		<g>
			<g>
				<path class="st4" d="M468.84,223.4c77.71,85.72,148.46,178.06,210.14,275.97c23.71,37.65,46.08,76.23,65.92,116.06
					c13.85,27.81,27.06,56.51,35.49,86.5c2.55,9.09,13.24,44.77-5.18,45.64c-1.93,0.09-1.93,3.09,0,3
					c13.29-0.63,13.8-16.21,12.8-26.22c-2.42-24.14-12.3-47.82-21.71-69.92c-15.38-36.14-33.95-70.94-53.55-104.94
					c-25.31-43.91-52.92-86.5-81.97-128.02c-48.98-69.99-102.43-136.9-159.81-200.19C469.66,219.85,467.54,221.97,468.84,223.4
					L468.84,223.4z"/>
			</g>
		</g>
		<g>
			<g>
				<path class="st4" d="M567.6,204.24c40.01,38.62,74.69,83.21,108.45,127.24c44.76,58.37,87.17,118.62,126.96,180.5
					c35.32,54.93,69.69,111.44,96,171.34c8.83,20.1,17.14,41.1,20.81,62.85c1.93,11.47,3.36,27.38-6.26,36.04
					c-3.89,3.51-9.26,4.8-14.36,5.07c-1.92,0.1-1.93,3.1,0,3c34.44-1.8,24.81-44.97,18.27-66.63c-7.29-24.18-17.88-47.39-29.02-70
					c-14.34-29.1-30.3-57.4-46.91-85.27c-37.78-63.4-79.2-124.66-122.56-184.35c-37.57-51.72-76.58-102.77-119.24-150.43
					c-9.67-10.8-19.57-21.4-30-31.47C568.33,200.77,566.21,202.89,567.6,204.24L567.6,204.24z"/>
			</g>
		</g>
		<g>
			<g>
				<path class="st4" d="M273.35,80.24c30.39,38.1,60.79,76.19,91.18,114.29c13.01,16.31,26.02,32.61,39.03,48.92
					c1.21,1.51,3.31-0.63,2.12-2.12c-30.39-38.1-60.79-76.19-91.18-114.29c-13.01-16.31-26.02-32.61-39.03-48.92
					C274.26,76.61,272.15,78.75,273.35,80.24L273.35,80.24z"/>
			</g>
		</g>
		<g>
			<g>
				<path class="st4" d="M425.42,259.2c79.23,86.75,152.31,179.09,218.87,275.9c40.52,58.95,79.01,119.57,113.22,182.42
					c5.5,10.11,12.21,21.38,16.24,31.63c0.7,1.78,3.6,1.01,2.89-0.8c-4.39-11.18-10.82-21.83-16.54-32.34
					c-13.76-25.31-28.34-50.17-43.35-74.77c-50.2-82.28-105.66-161.39-165.03-237.3c-39.5-50.51-80.93-99.51-124.18-146.86
					C426.24,255.64,424.12,257.77,425.42,259.2L425.42,259.2z"/>
			</g>
		</g>
		<g>
			<g>
				<path class="st4" d="M517.07,243.84c19.29,20.32,37.01,42.16,54.48,64.05c24.82,31.1,48.82,62.85,72.44,94.87
					c55.07,74.63,108.07,150.86,158.6,228.63c33.52,51.58,66.26,103.87,95.29,158.13c0.91,1.71,3.5,0.19,2.59-1.51
					c-39.77-74.34-86.03-145.3-133.05-215.21c-50.47-75.03-102.89-148.84-157.72-220.75c-28.77-37.73-57.81-75.88-90.52-110.33
					C517.86,240.32,515.74,242.44,517.07,243.84L517.07,243.84z"/>
			</g>
		</g>
		<path class="st0" d="M246.5,52.01"/>
		<g>
			<g>
				<path class="st4" d="M275.06,67.08c11.45-8.92,22.9-17.83,34.35-26.75c1.53-1.19-0.61-3.29-2.12-2.12
					c-11.45,8.92-22.9,17.83-34.35,26.75C271.41,66.15,273.55,68.25,275.06,67.08L275.06,67.08z"/>
			</g>
		</g>
		<g>
			<g>
				<path class="st4" d="M308.35,40.77c6.55-0.63,13.1-1.27,19.65-1.9c1.91-0.18,1.93-3.19,0-3c-6.55,0.63-13.1,1.27-19.65,1.9
					C306.44,37.96,306.42,40.96,308.35,40.77L308.35,40.77z"/>
			</g>
		</g>
		<g>
			<g>
				<path class="st4" d="M302.21,9.89c8.18,9.38,16.37,18.75,24.55,28.13c1.27,1.46,3.39-0.67,2.12-2.12
					c-8.18-9.38-16.37-18.75-24.55-28.13C303.06,6.31,300.95,8.44,302.21,9.89L302.21,9.89z"/>
			</g>
		</g>
		<g>
			<g>
				<path class="st4" d="M280.43,69.68c10.68-8.35,21.36-16.7,32.04-25.05c1.52-1.19-0.62-3.3-2.12-2.12
					c-10.68,8.35-21.36,16.7-32.04,25.05C276.78,68.75,278.92,70.86,280.43,69.68L280.43,69.68z"/>
			</g>
		</g>
		<g>
			<g>
				<path class="st4" d="M311.93,44.77c5.27-0.42,10.54-0.83,15.81-1.25c1.92-0.15,1.93-3.15,0-3c-5.27,0.42-10.54,0.83-15.81,1.25
					C310.02,41.92,310,44.92,311.93,44.77L311.93,44.77z"/>
			</g>
		</g>
		<g>
			<g>
				<path class="st4" d="M326.66,37.04c0.02,1.78,0.04,3.56,0.06,5.33c0.02,1.93,3.02,1.94,3,0c-0.02-1.78-0.04-3.56-0.06-5.33
					C329.63,35.1,326.63,35.1,326.66,37.04L326.66,37.04z"/>
			</g>
		</g>
		<g>
			<g>
				<path class="st4" d="M327.16,43.1c30.75,38.13,61.5,76.26,92.25,114.39c11.94,14.81,23.89,29.62,35.83,44.43
					c1.21,1.51,3.32-0.63,2.12-2.12c-30.75-38.13-61.5-76.26-92.25-114.39c-11.94-14.81-23.89-29.62-35.83-44.43
					C328.06,39.47,325.96,41.61,327.16,43.1L327.16,43.1z"/>
			</g>
		</g>
		<g>
			<g>
				<path class="st4" d="M396.52,272.31c30.71-24.59,61.42-49.18,92.12-73.77c1.51-1.21-0.63-3.32-2.12-2.12
					c-30.71,24.59-61.42,49.18-92.12,73.77C392.89,271.4,395.03,273.51,396.52,272.31L396.52,272.31z"/>
			</g>
		</g>
		<g>
			<g>
				<path class="st4" d="M401.59,278.25c30.49-24.7,60.97-49.4,91.46-74.1c1.5-1.22-0.63-3.33-2.12-2.12
					c-30.49,24.7-60.97,49.4-91.46,74.1C397.97,277.35,400.11,279.46,401.59,278.25L401.59,278.25z"/>
			</g>
		</g>
		<g>
			<g>
				<path class="st4" d="M461.27,198.18c3.24,3.74,6.48,7.48,9.72,11.22c1.27,1.46,3.38-0.67,2.12-2.12
					c-3.24-3.74-6.48-7.48-9.72-11.22C462.12,194.59,460.01,196.72,461.27,198.18L461.27,198.18z"/>
			</g>
		</g>
		<g>
			<g>
				<path class="st4" d="M400.76,246.57c3.16,3.96,6.32,7.93,9.48,11.89c1.21,1.51,3.31-0.62,2.12-2.12
					c-3.16-3.96-6.32-7.93-9.48-11.89C401.68,242.93,399.57,245.07,400.76,246.57L400.76,246.57z"/>
			</g>
		</g>
		<g>
			<g>
				<path class="st4" d="M402.88,246.57c20.17-16.13,40.34-32.26,60.51-48.39c1.51-1.21-0.63-3.32-2.12-2.12
					c-20.17,16.13-40.34,32.26-60.51,48.39C399.25,245.66,401.39,247.76,402.88,246.57L402.88,246.57z"/>
			</g>
		</g>
		<g>
			<g>
				<path class="st4" d="M249.37,35.28c11.15-8.3,22.3-16.6,33.45-24.9c1.53-1.14,0.04-3.75-1.51-2.59
					c-11.15,8.3-22.3,16.6-33.46,24.9C246.33,33.83,247.82,36.44,249.37,35.28L249.37,35.28z"/>
			</g>
		</g>
		<g>
			<g>
				<path class="st4" d="M277.55,68.3c-1.83,3.07-3.67,6.15-5.5,9.22c-0.99,1.67,1.6,3.17,2.59,1.51c1.83-3.07,3.67-6.15,5.5-9.22
					C281.13,68.15,278.54,66.64,277.55,68.3L277.55,68.3z"/>
			</g>
		</g>
		<g>
			<g>
				<path class="st4" d="M271.97,66.19c-1.8,3.19-3.59,6.38-5.39,9.57c-0.95,1.69,1.64,3.2,2.59,1.51c1.8-3.19,3.59-6.38,5.39-9.56
					C275.51,66.02,272.92,64.5,271.97,66.19L271.97,66.19z"/>
			</g>
		</g>
		<g>
			<g>
				<path class="st4" d="M245.44,53.07c6.88,8.42,13.76,16.84,20.64,25.26c1.22,1.5,3.33-0.64,2.12-2.12
					c-6.88-8.42-13.76-16.84-20.64-25.26C246.33,49.45,244.22,51.59,245.44,53.07L245.44,53.07z"/>
			</g>
		</g>
		<g>
			<g>
				<path class="st4" d="M247.12,33.99c-0.68,6.01-1.36,12.02-2.03,18.03c-0.22,1.92,2.79,1.9,3,0c0.68-6.01,1.36-12.02,2.03-18.03
					C250.33,32.07,247.33,32.09,247.12,33.99L247.12,33.99z"/>
			</g>
		</g>
		<g>
			<g>
				<g>
					<path class="st4" d="M513.91,245.89c19.49-12.64,37.76-27.08,55.81-41.65c1.51-1.22-0.63-3.32-2.12-2.12
						c-17.86,14.42-35.93,28.68-55.21,41.18C510.78,244.34,512.28,246.94,513.91,245.89L513.91,245.89z"/>
				</g>
			</g>
			<g>
				<g>
					<path class="st4" d="M491.3,221.4c6.68,8.17,13.36,16.34,20.04,24.51c1.23,1.5,3.33-0.64,2.12-2.12
						c-6.68-8.17-13.36-16.34-20.04-24.51C492.2,217.78,490.09,219.91,491.3,221.4L491.3,221.4z"/>
				</g>
			</g>
			<g>
				<g>
					<path class="st4" d="M552.01,174.36c5.59,7.52,11.18,15.03,16.77,22.55c1.14,1.53,3.75,0.04,2.59-1.51
						c-5.59-7.52-11.18-15.03-16.77-22.55C553.46,171.32,550.85,172.81,552.01,174.36L552.01,174.36z"/>
				</g>
			</g>
			<g>
				<g>
					<path class="st4" d="M568.97,196.61c-0.42,1.63-0.85,3.25-1.27,4.88c-0.49,1.87,2.41,2.67,2.89,0.8
						c0.42-1.63,0.85-3.25,1.27-4.88C572.35,195.53,569.46,194.74,568.97,196.61L568.97,196.61z"/>
				</g>
			</g>
			<g>
				<g>
					<path class="st4" d="M493.11,220.88c20.32-15.33,40.64-30.65,60.96-45.98c1.52-1.15,0.03-3.76-1.51-2.59
						c-20.32,15.33-40.64,30.65-60.95,45.98C490.07,219.44,491.56,222.05,493.11,220.88L493.11,220.88z"/>
				</g>
			</g>
		</g>
	</g>
</g>
</svg>
