<?xml version="1.0" encoding="utf-8"?>
<!-- Generator: Adobe Illustrator 16.0.0, SVG Export Plug-In . SVG Version: 6.00 Build 0)  -->
<!DOCTYPE svg PUBLIC "-//W3C//DTD SVG 1.1//EN" "http://www.w3.org/Graphics/SVG/1.1/DTD/svg11.dtd">
<svg version="1.1" id="Layer_1" xmlns="http://www.w3.org/2000/svg" xmlns:xlink="http://www.w3.org/1999/xlink" x="0px" y="0px"
	 width="319px" height="92px" viewBox="0 0 319 92" style="enable-background:new 0 0 319 92;" xml:space="preserve">
<style type="text/css">
<![CDATA[
	.st0{stroke:rgb(240,30,0);stroke-width:2;stroke-miterlimit:10;}
	.st1{fill:rgb(240,30,0);}
	.st2{fill:rgb(240,30,0);stroke:rgb(240,30,0);stroke-miterlimit:10;}
]]>
</style>
<g>
	<path d="M145.44,68.08c-1.19,5.06-6.01,8.18-11.83,6.82L30,50.62c-5.82-1.37-10.01-6.6-8.83-11.66l7.15-30.54
		c1.19-5.06,7.06-7.03,12.88-5.66l103.62,24.28c5.82,1.36,8.95,5.44,7.77,10.5L145.44,68.08z"/>
	<g>
		<path d="M144,67.68c-2.18,7.19-8.48,6.12-14.02,4.83c-5.05-1.18-10.11-2.37-15.16-3.55c-15.36-3.6-30.71-7.2-46.07-10.79
			c-11.81-2.77-23.63-5.54-35.45-8.3c-5.29-1.24-12.22-3.92-10.6-10.84c1.46-6.24,2.92-12.47,4.38-18.71
			c0.72-3.07,1.44-6.15,2.16-9.22c1.11-4.74,3.77-7.22,9.08-7.23c2.84-0.01,6.06,1.19,8.79,1.83c13.23,3.1,26.46,6.2,39.7,9.3
			c14.75,3.46,29.5,6.91,44.25,10.37c3.99,0.94,7.98,1.87,11.97,2.81c0.95,0.22,1.86,0.46,2.8,0.72c5.31,1.5,5.83,6.08,4.79,10.52
			C148.41,48.83,146.21,58.26,144,67.68c-0.44,1.88,2.45,2.68,2.89,0.8c1.27-5.41,2.53-10.81,3.8-16.22
			c1.18-5.02,3.47-10.75,3.61-15.96c0.3-10.79-13.25-11.68-21.12-13.53C105.1,16.19,77.02,9.61,48.93,3.03
			C40.67,1.1,29.21-1.89,26.58,9.34c-1.6,6.82-3.19,13.63-4.79,20.45c-1.26,5.39-3.51,10.77-0.86,16.06
			c3.72,7.41,17.83,8.37,24.86,10.02c15.09,3.54,30.19,7.07,45.28,10.61c11.61,2.72,23.22,5.44,34.83,8.16
			c8.02,1.88,17.79,4.39,20.99-6.15C147.45,66.62,144.56,65.83,144,67.68z"/>
	</g>
</g>
<g>
	<path class="st0" d="M147.83,79.39c0,6.39-4.54,11.48-11.38,11.48L14.74,90.94c-6.84,0-12.88-5.08-12.88-11.47L1.84,40.93
		C1.83,34.54,7.87,30.54,14.7,30.54l121.72-0.07c6.84,0,11.39,4,11.39,10.38L147.83,79.39z"/>
	<g>
		<path class="st2" d="M33.14,44.03c1.6,0,3.04,0.22,4.34,0.67c1.3,0.45,2.41,1.11,3.35,1.99c0.93,0.88,1.65,1.95,2.15,3.21
			c0.5,1.26,0.75,2.69,0.76,4.29c0,1.6-0.24,3.03-0.74,4.29c-0.5,1.26-1.21,2.34-2.14,3.22c-0.93,0.88-2.04,1.55-3.34,2
			c-1.3,0.45-2.74,0.68-4.34,0.68L20.77,64.4l0.03,15.26l-3.39,0.01l-0.07-35.61L33.14,44.03z M32.43,61.48
			c2.36,0,4.27-0.61,5.73-1.81c1.46-1.2,2.19-3.03,2.18-5.49s-0.74-4.29-2.21-5.48c-1.47-1.19-3.38-1.79-5.74-1.78l-11.67,0.02
			l0.03,14.56L32.43,61.48z"/>
		<path class="st2" d="M59.27,43.97l14.03,35.58l-3.64,0.01L65.31,68.5L49.1,68.53l-4.27,11.08l-3.59,0.01l14.24-35.63L59.27,43.97z
			 M64.15,65.61l-6.92-18.24l-7.09,18.27L64.15,65.61z"/>
		<path class="st2" d="M78.98,72.41c0.6,1.23,1.43,2.21,2.47,2.94c1.05,0.73,2.29,1.25,3.72,1.56c1.43,0.31,2.96,0.47,4.59,0.46
			c0.93,0,1.94-0.13,3.04-0.4c1.1-0.27,2.12-0.69,3.06-1.28s1.73-1.33,2.36-2.25c0.63-0.92,0.94-2.02,0.94-3.32
			c0-1-0.23-1.86-0.68-2.59c-0.45-0.73-1.03-1.34-1.75-1.84s-1.51-0.9-2.37-1.22c-0.87-0.31-1.71-0.57-2.54-0.77l-7.93-1.93
			c-1.03-0.26-2.04-0.59-3.02-0.99c-0.98-0.4-1.84-0.93-2.57-1.59c-0.73-0.66-1.32-1.48-1.78-2.44c-0.45-0.96-0.68-2.14-0.68-3.54
			c0-0.87,0.16-1.88,0.49-3.04c0.33-1.16,0.95-2.26,1.86-3.29c0.91-1.03,2.17-1.91,3.76-2.63c1.59-0.72,3.64-1.08,6.13-1.08
			c1.76,0,3.44,0.23,5.04,0.69c1.6,0.46,2.99,1.16,4.19,2.09c1.2,0.93,2.16,2.08,2.87,3.46c0.72,1.38,1.08,2.98,1.08,4.81
			l-3.39,0.01c-0.07-1.36-0.38-2.55-0.93-3.56c-0.55-1.01-1.27-1.86-2.15-2.54c-0.88-0.68-1.9-1.19-3.04-1.54
			c-1.15-0.35-2.35-0.52-3.62-0.52c-1.16,0-2.29,0.13-3.37,0.38c-1.08,0.25-2.03,0.65-2.84,1.2c-0.81,0.55-1.47,1.28-1.97,2.17
			c-0.5,0.9-0.74,2.01-0.74,3.34c0,0.83,0.14,1.55,0.43,2.17c0.28,0.61,0.68,1.14,1.17,1.57c0.5,0.43,1.07,0.78,1.72,1.04
			c0.65,0.27,1.34,0.48,2.07,0.64l8.68,2.13c1.26,0.33,2.45,0.74,3.57,1.21c1.11,0.48,2.1,1.08,2.95,1.79
			c0.85,0.71,1.52,1.59,2,2.62c0.48,1.03,0.73,2.28,0.73,3.74c0,0.4-0.04,0.93-0.12,1.6c-0.08,0.67-0.28,1.37-0.59,2.12
			c-0.31,0.75-0.76,1.51-1.34,2.27c-0.58,0.77-1.38,1.46-2.39,2.07c-1.01,0.62-2.27,1.12-3.76,1.5c-1.5,0.38-3.29,0.58-5.38,0.58
			c-2.09,0-4.04-0.23-5.84-0.71c-1.8-0.48-3.33-1.21-4.59-2.21c-1.27-0.99-2.24-2.27-2.93-3.83c-0.68-1.56-0.98-3.44-0.88-5.63
			l3.39-0.01C78.09,69.65,78.38,71.18,78.98,72.41z"/>
		<path class="st2" d="M110.4,72.35c0.6,1.23,1.43,2.21,2.47,2.94c1.05,0.73,2.29,1.25,3.72,1.56c1.43,0.31,2.96,0.47,4.59,0.46
			c0.93,0,1.94-0.13,3.04-0.4c1.1-0.27,2.12-0.69,3.06-1.28s1.73-1.33,2.36-2.25c0.63-0.92,0.94-2.02,0.94-3.32
			c0-1-0.23-1.86-0.68-2.59c-0.45-0.73-1.03-1.34-1.75-1.84c-0.72-0.5-1.51-0.9-2.37-1.22c-0.87-0.31-1.71-0.57-2.54-0.77
			l-7.93-1.93c-1.03-0.26-2.04-0.6-3.02-0.99c-0.98-0.4-1.84-0.93-2.57-1.59c-0.73-0.66-1.32-1.48-1.77-2.44
			c-0.45-0.96-0.68-2.14-0.68-3.54c0-0.86,0.16-1.88,0.49-3.04c0.33-1.16,0.95-2.26,1.86-3.29c0.91-1.03,2.17-1.91,3.76-2.63
			c1.59-0.72,3.64-1.08,6.13-1.08c1.76,0,3.44,0.22,5.04,0.69s2.99,1.16,4.19,2.09c1.2,0.93,2.16,2.08,2.87,3.46
			c0.72,1.38,1.08,2.98,1.08,4.81l-3.39,0.01c-0.07-1.36-0.38-2.55-0.93-3.56c-0.55-1.01-1.27-1.86-2.15-2.54
			c-0.88-0.68-1.9-1.19-3.04-1.54c-1.15-0.35-2.35-0.52-3.62-0.52c-1.16,0-2.29,0.13-3.37,0.38c-1.08,0.25-2.03,0.65-2.84,1.2
			s-1.47,1.28-1.97,2.17c-0.5,0.9-0.74,2.01-0.74,3.34c0,0.83,0.14,1.55,0.43,2.17c0.28,0.61,0.68,1.14,1.17,1.57
			c0.5,0.43,1.07,0.78,1.72,1.04c0.65,0.27,1.34,0.48,2.07,0.64l8.68,2.13c1.26,0.33,2.45,0.74,3.57,1.21
			c1.11,0.48,2.1,1.08,2.95,1.79s1.52,1.58,2,2.61c0.48,1.03,0.73,2.28,0.73,3.74c0,0.4-0.04,0.93-0.12,1.6
			c-0.08,0.66-0.28,1.37-0.59,2.12c-0.31,0.75-0.76,1.51-1.34,2.27c-0.58,0.77-1.38,1.46-2.39,2.07c-1.01,0.62-2.27,1.12-3.76,1.5
			c-1.5,0.38-3.29,0.58-5.38,0.58c-2.09,0-4.04-0.23-5.84-0.71s-3.33-1.21-4.59-2.21c-1.27-0.99-2.24-2.27-2.92-3.83
			c-0.69-1.56-0.98-3.44-0.88-5.63l3.39-0.01C109.51,69.59,109.79,71.12,110.4,72.35z"/>
	</g>
</g>
<g>
	<g>
		<g>
			<path class="st1" d="M158.1,79.89c4.1-9.85,3.4-16.7-1.07-32.53l0,0l12.6-4.95l0,0c3.81,19.07,0.84,26.96-11.31,37.33"/>
			<path class="st1" d="M189.87,42.2c-3.12,10.2-1.76,16.95,4.24,32.27l0,0l-12.06,6.16l0,0c-5.65-18.61-3.47-26.75,7.62-38.26"/>
			<path class="st1" d="M168.84,48.09c2.84,7.45,6.73,10.8,17.29,17.08l0,0l-4.29,9.16l0,0c-11.86-8.38-14.3-14.19-13.04-26.05"/>
		</g>
		<path class="st1" d="M207.84,41.61c-3.12,10.2-1.76,16.95,4.24,32.27l0,0l-12.06,6.16l0,0c-5.65-18.62-3.47-26.75,7.62-38.26"/>
		<path class="st1" d="M313.54,81.28c-1.38-10.58-5.42-16.16-17.22-27.62l0,0l8.43-10.6l0,0c12.85,14.61,14.23,22.92,8.9,37.98"/>
		<path class="st1" d="M301.26,51.59c-5.34,7.7-6,13.71-5.08,28.12l0,0l-11.73,1.93l0,0c0.25-17.07,4.25-23.29,16.6-29.96"/>
		<path class="st1" d="M268.28,80.46c4.1-9.85,3.4-16.7-1.07-32.53l0,0l12.6-4.96l0,0c3.81,19.07,0.84,26.96-11.31,37.33"/>
		<path class="st1" d="M215.24,79.79c4.1-9.84,3.4-16.7-1.07-32.53l0,0l12.6-4.95l0,0c3.81,19.07,0.84,26.96-11.31,37.33"/>
		<path class="st1" d="M247.01,42.1c-3.12,10.2-1.76,16.95,4.24,32.27l0,0l-12.06,6.16l0,0c-5.65-18.61-3.47-26.75,7.62-38.26"/>
		<path class="st1" d="M225.98,47.99c2.83,7.45,6.73,10.8,17.29,17.08l0,0l-4.28,9.16l0,0c-11.86-8.38-14.31-14.18-13.04-26.05"/>
		<path class="st1" d="M282.94,63.86c6.68,2.41,11.22,1.73,21.62-1.77l0,0l3.71,8.23l0,0c-12.57,3.15-17.92,1.43-25.22-6.33"/>
		<path class="st1" d="M279.23,76.62c-11.95-1.4-13.45-3.41-20.3-12.23l-6.24,9.32c10.67,5.93,13.04,7.31,26.75,2.83"/>
	</g>
</g>
</svg>
