<svg id="boardingPass" class="pass-template front" version="1.1" xmlns="http://www.w3.org/2000/svg" xmlns:xlink="http://www.w3.org/1999/xlink" x="0px" y="0px"
	 width="315px" height="401px" viewBox="0 0 315 401" style="enable-background:new 0 0 315 401;" xml:space="preserve">
<style type="text/css">
<![CDATA[
	.st0{fill:none;stroke:#FFFFFF;stroke-miterlimit:10;}
	.st1{fill:url(#SVGID_1_);stroke:#00AEEF;stroke-width:0.25;stroke-miterlimit:10;}
	.st2{fill:#F1F2F2;}
	svg#boardingPass .font-bold{font-family:'Helvetica-Bold';}
	.st4{fill:none;stroke:#21519F;stroke-width:0.25;stroke-miterlimit:10;}
	.st5{clip-path:url(#SVGID_3_);}
	.st6{clip-path:url(#SVGID_5_);}
	.st7{clip-path:url(#SVGID_9_);}
	.st8{fill:#2E3192;}
	.st9{fill:#FFFFFF;}
	svg#boardingPass .font-lite{font-family:'Helvetica-Light';}
	.st11{font-family:'TimesNewRomanPS-BoldMT';}
	.st12{font-family:'Helvetica';}
	svg#boardingPass .label-text{font-size:11px; font-family:'Helvetica-Bold';}
	svg#boardingPass .value-text{font-size:16px; font-family:'Helvetica-Light';}
	svg#boardingPass .logo-text{font-size:18px;}
	svg#boardingPass .headerFields.value-text{font-size:20px;}
	svg#boardingPass .primaryFields.value-text,.barcode{font-size:40px;}
]]>
</style>
<linearGradient id="SVGID_1_" gradientUnits="userSpaceOnUse" x1="157.8726" y1="-0.0889" x2="157.8725" y2="401.0894">
	<stop class="pass-bg-lite" offset="0" style="stop-color:#2BC4F3"/>
	<stop class="pass-bg" offset="0.5" style="stop-color:#00AEEE"/>
	<stop class="pass-bg-dark" offset="1" style="stop-color:#0095DA"/>
</linearGradient>
<path class="st1" d="M1.14,390.11c0.06,5.96,4.45,10.76,9.81,10.72l293.04,0.26c5.96-0.03,10.77-4.4,10.76-9.77v2.13V66.8
	c-4.26-1.57-4.3-5.02-0.08-7.72h-0.33V11.79c0.09-6.47-4.18-11.79-9.53-11.88v0.27H12.12C6.17-0.02,1.19,4.17,1,9.53l0.19,49.58
	c4.23,1.67,4.17,5.13-0.11,7.72L1.14,390.11z"/>
<g class="pass-group">
<g id="logo1" class="text-btn-group" transform="translate(86.666,37.668)">
	<text class="font-bold logo-text value-text">Pass Airlines</text>
</g>
<!--
<text transform="matrix(1 0 0 1 86.666 37.668)"><tspan x="0" y="0" class="st8 st3 st15">Pass</tspan><tspan x="42.04" y="0" class="st8 st3 st15"> </tspan><tspan x="46.38" y="0" class="st8 st3 st15">Airline</tspan></text>
-->
<g id="header1" class="text-btn-group" transform="translate(269,13.335)">
		<text class="font-bold label-text">GATE</text>
		<text class="font-lite value-text">23</text>
</g>
<!--
<text transform="matrix(1 0 0 1 269 23.335)"><tspan x="0" y="0" class="st2 st3 st13">G</tspan><tspan x="8.56" y="0" class="st2 st3 st13">A</tspan><tspan x="15.69" y="0" class="st2 st3 st13">TE</tspan></text>
<text transform="matrix(1 0 0 1 276.667 44.3345)" class="st8 st10 st16">23</text>
-->
<g id="primary1" class="text-btn-group" transform="translate(15.998,81.6685)">
		<text class="font-lite value-text">SFO</text>
		<text class="font-bold label-text">SAN FRANCISCO</text>
		<rect class="text-btn-rect"/>
</g>
<g id="primary2" class="text-btn-group" transform="translate(238.332,81.6685)">
		<text class="font-lite value-text">JFK</text>
		<text class="font-bold label-text">NEW YORK</text>
		<rect class="text-btn-rect"/>
</g>
<g id="aux1" class="text-btn-group" transform="translate(15.334,159.335)">
		<text class="font-bold label-text">BOARDING</text>
		<text class="font-lite value-text">10:45 PM</text>
		<rect class="text-btn-rect"/>
</g>
<g id="aux2" class="text-btn-group" transform="translate(96.334,159.335)">
		<text class="font-bold label-text">DEPARTURE</text>
		<text class="font-lite value-text">11:15 PM</text>
		<rect class="text-btn-rect"/>
</g>
<g id="aux3" class="text-btn-group" transform="translate(181.667,159.335)">
		<text class="font-bold label-text">DATE</text>
		<text class="font-lite value-text">7-22-14</text>
		<rect class="text-btn-rect"/>
</g>
<g id="aux4" class="text-btn-group" transform="translate(259,159.335)">
		<text class="font-bold label-text">FLIGHT</text>
		<text class="font-lite value-text">PS213</text>
		<rect class="text-btn-rect"/>
</g>
<g id="second1" class="text-btn-group" transform="translate(15.2725,220.002)">
		<text class="font-bold label-text">SEAT</text>
		<text class="font-lite value-text">21</text>
		<rect class="text-btn-rect"/>
</g>
<g id="second2" class="text-btn-group" transform="translate(71.6055,220.002)">
		<text class="font-bold label-text">ZONE</text>
		<text class="font-lite value-text">4</text>
		<rect class="text-btn-rect"/>
</g>
<g id="second3" class="text-btn-group" transform="translate(127.6055,220.002)">
		<text class="font-bold label-text">CLASS</text>
		<text class="font-lite value-text">ECO</text>
		<rect class="text-btn-rect"/>
</g>
<g id="second4" class="text-btn-group" transform="translate(230.334,220.002)">
		<text class="font-bold label-text">PASSENGER</text>
		<text class="font-lite value-text">John Appleseed</text>
		<rect class="text-btn-rect"/>
</g>

<g class="img-btn-group" id="logo-group">
	<image id="logo" style="overflow:visible;" width="49.92" height="49.92" x="15.9648" y="6.4653" xlink:href="/assets/svg/img/boardingPass/logo.png"></image>
	<rect data-target="logo" width="49.92" height="49.92" x="15.9648" y="6.4653" class="img-btn-rect"/>
</g>

</g>

<g class="img-btn-group" id="transit-group">
	<image id="transit" style="overflow:visible;" width="41.344" height="41.344" x="138.332" y="83.998" xlink:href="/assets/svg/img/boardingPass/airplane_arrow.png">
	</image>
	<rect data-target="transit" width="41.344" height="41.344" x="138.332" y="83.998" class="img-btn-rect"/>
</g>

<g class="barcode-btn-group" id="barcode-group">
		<rect data-target="barcode" rx="5" ry="5" class="bar-btn-rect"/>
		<image id="barcode" style="overflow:visible;" xlink:href="/assets/svg/img/boardingPass/barcode.jpg"></image>
		<text class="font-norm barcode">SAMPLE</text>
</g>
<!--
<text transform="matrix(1 0 0 1 259 159.335)" class="st2 st3 st13">FLIGHT</text>
<text transform="matrix(1 0 0 1 181.667 159.335)"><tspan x="0" y="0" class="st2 st3 st13">D</tspan><tspan x="7.94" y="0" class="st2 st3 st13">A</tspan><tspan x="15.08" y="0" class="st2 st3 st13">TE</tspan></text>
<text transform="matrix(1 0 0 1 96.334 159.335)"><tspan x="0" y="0" class="st2 st3 st13">DE</tspan><tspan x="15.28" y="0" class="st2 st3 st13">P</tspan><tspan x="21.81" y="0" class="st2 st3 st13">ARTURE</tspan></text>
<text transform="matrix(1 0 0 1 15.334 159.335)" class="st2 st3 st13">BORDING</text>
<text transform="matrix(1 0 0 1 230.334 219.668)"><tspan x="0" y="0" class="st2 st3 st13">P</tspan><tspan x="6.53" y="0" class="st2 st3 st13">ASSENGER</tspan></text>

<text transform="matrix(1 0 0 1 15.998 81.6685)" class="st2 st3 st13">SAN FRANCISCO</text>
<text transform="matrix(1 0 0 1 238.332 81.6685)"><tspan x="0" y="0" class="st2 st3 st13">NEW</tspan><tspan x="25.66" y="0" class="st2 st3 st13"> </tspan><tspan x="28.53" y="0" class="st2 st3 st13">YORK</tspan></text>
<text transform="matrix(1 0 0 1 14.998 124.335)" class="st8 st10 st17">SFO</text>
<text transform="matrix(1 0 0 1 229.998 124.335)" class="st8 st10 st17">JFK</text>

<text transform="matrix(1 0 0 1 13.666 180.3345)" class="st8 st10 st14">10:45 PM </text>
<text transform="matrix(1 0 0 1 182.334 241.002)" class="st8 st10 st14">John Appleseed</text>
<text transform="matrix(1 0 0 1 96.334 180.335)" class="st8 st10 st14">11:15 PM</text>
<text transform="matrix(1 0 0 1 253 180.335)" class="st8 st10 st14">PS213</text>
-->
<!--
<g>
	<defs>
		<rect id="SVGID_2_" x="38" y="307" width="240" height="70"/>
	</defs>
	<clipPath id="SVGID_3_">
		<use xlink:href="#SVGID_2_"  style="overflow:visible;"/>
	</clipPath>
	<g class="st5">
		<defs>
			<rect id="SVGID_4_" x="-2" width="318" height="401"/>
		</defs>
		<clipPath id="SVGID_5_">
			<use xlink:href="#SVGID_4_"  style="overflow:visible;"/>
		</clipPath>
		<g class="st6">
			<defs>
				<rect id="SVGID_6_" x="38" y="307" width="240" height="70"/>
			</defs>
			<clipPath id="SVGID_7_">
				<use xlink:href="#SVGID_6_"  style="overflow:visible;"/>
			</clipPath>
			<g transform="matrix(1 0 0 1 -3.814697e-06 0)" style="clip-path:url(#SVGID_7_);">
				
					<image style="overflow:visible;" width="321" height="77" xlink:href="/assets/img/coupon/barcode.jpg"  transform="matrix(0.7477 0 0 0.9091 38 307)">
				</image>
			</g>
		</g>
	</g>
</g>
-->



<!--
<g>
	<defs>
		<rect id="SVGID_8_" x="-2" width="318" height="401"/>
	</defs>
	<clipPath id="SVGID_9_">
		<use xlink:href="#SVGID_8_"  style="overflow:visible;"/>
	</clipPath>
	<g class="st7">
		<text transform="matrix(1 0 0 1 76.8574 357)" class="st12 st17">SAMPLE</text>
	</g>
</g>
-->
<line class="st4" x1="17.67" y1="62.8" x2="297.67" y2="62.84"/>
<!--
<text transform="matrix(1 0 0 1 79.166 299.002)" class="st8 st10 st14">The World Best Airline</text>
<text transform="matrix(1 0 0 1 180.667 180.3345)" class="st8 st10 st14">7-22-14</text>
<text transform="matrix(1 0 0 1 15.2725 219.6689)"><tspan x="0" y="0" class="st2 st3 st13">SE</tspan><tspan x="14.67" y="0" class="st2 st3 st13">A</tspan><tspan x="21.81" y="0" class="st2 st3 st13">T</tspan></text>
<text transform="matrix(1 0 0 1 15.2725 240.6689)" class="st8 st10 st14">21 </text>
<text transform="matrix(1 0 0 1 71.6055 220.002)" class="st2 st3 st13">ZONE</text>
<text transform="matrix(1 0 0 1 71.6055 241.002)" class="st8 st10 st14">4</text>
<text transform="matrix(1 0 0 1 127.6055 220.002)" class="st2 st3 st13">CLASS</text>
<text transform="matrix(1 0 0 1 127.6055 241.002)" class="st8 st10 st14">ECO</text>
-->




<rect x="10.16" y="377.17" class="st0" width="11.5" height="14.5"/>
<line class="st0" x1="15.91" y1="371.57" x2="15.91" y2="384.92"/>
<line class="st0" x1="13.41" y1="375.17" x2="15.91" y2="371.57"/>
<line class="st0" x1="15.91" y1="371.57" x2="18.16" y2="375.17"/>
<g>
	<circle class="st0" cx="298.33" cy="384.88" r="7.08"/>
	<text transform="matrix(1 0 0 1 296.7559 388.4521)" class="st9 st11 st13">i</text>
</g>
</svg>
