
<svg id="coupon" class="pass-template front" version="1.1" xmlns="http://www.w3.org/2000/svg" xmlns:xlink="http://www.w3.org/1999/xlink" x="0px" y="0px"
	 width="315px" height="401px" viewBox="0 0 315 401" xml:space="preserve">
	 <style type="text/css">
<![CDATA[
	svg .font-bold{font-family:'Helvetica-Bold'; pointer-events: none;}
	svg#coupon .bg-grad{fill:url(#SVGID_1_);}
	svg .font-lite{font-family:'Helvetica-Light'; pointer-events: none;}
	svg .font-norm{font-family:'Helvetica'; pointer-events: none;-webkit-font-smoothing: antialiased;text-shadow: 1px 1px 1px rgba(0,0,0,0.004);}
	svg#coupon .auxiliaryFields.value-text{font-size:14px;}
	svg#coupon .auxiliaryFields.label-text{font-size:12px;}
	svg#coupon .headerFields.value-text{font-size:14px;}
	svg#coupon .headerFields.label-text{font-size:12px;}
	svg#coupon .logo-text{font-size:18px; font-family:'Helvetica-Bold';}
	svg#coupon .barcode{font-size:36px;}
	svg#coupon .primaryFields.label-text{font-size:16px; font-family:'Helvetica-Light';}
	svg#coupon .primaryFields.value-text{font-size:52px; font-family:'Helvetica-Light';}
]]>
</style>
<g id="Layer_1">
	<g>
		<linearGradient id="SVGID_1_" gradientUnits="userSpaceOnUse" x1="157.998" y1="-0.062" x2="157.998" y2="399.062">
			<stop  class="pass-bg-lite" offset="0" style="stop-color:#F074AC"/>
			<stop  class="pass-bg" offset="0.5" style="stop-color:#EB008B"/>
			<stop  class="pass-bg-dark" offset="1" style="stop-color:#CD118C"/>
		</linearGradient>
		<path class="bg-grad" d="M53.26,395.74l-1.81,2.38c-0.67,0.88-1.75,0.87-2.41-0.01l-0.45-0.61c-0.66-0.88-1.2-1.64-1.2-1.68
			s-0.54,0.63-1.21,1.51l-0.6,0.79c-0.67,0.88-1.75,0.87-2.41-0.01l-0.45-0.61c-0.66-0.88-1.17-1.63-1.14-1.66s-0.48,0.65-1.15,1.53
			l-0.6,0.79c-0.67,0.88-1.75,0.87-2.41-0.01l-0.45-0.6c-0.66-0.88-1.2-1.64-1.2-1.69s-0.54,0.63-1.21,1.51l-0.6,0.79
			c-0.67,0.88-1.75,0.87-2.41-0.01l-0.45-0.6c-0.66-0.88-1.22-1.62-1.24-1.64c-0.02-0.02-0.59,0.68-1.25,1.55l-0.6,0.79
			c-0.67,0.88-1.75,0.87-2.41-0.01l-0.45-0.61c-0.66-0.88-1.2-1.64-1.2-1.68s-0.54,0.63-1.21,1.51l-0.6,0.79
			c-0.67,0.88-1.75,0.87-2.41-0.01l-0.45-0.61c-0.66-0.88-1.13-1.65-1.06-1.71c0.08-0.06-0.4,0.61-1.07,1.49l-0.6,0.79
			c-0.67,0.88-1.75,0.87-2.41-0.01l-0.45-0.61c-0.66-0.88-1.22-1.62-1.24-1.64c-0.02-0.02-0.59,0.67-1.25,1.55l-0.6,0.79
			c-0.67,0.88-1.75,0.87-2.41-0.01l-0.45-0.6c-0.66-0.88-1.2-1.64-1.2-1.69s-0.54,0.63-1.21,1.51l-0.6,0.79
			c-0.67,0.88-1.75,0.87-2.41-0.01l-0.45-0.6c-0.66-0.88-1.25-1.67-1.3-1.75c-0.06-0.08-0.1-1.05-0.1-2.15V6.32
			c0-1.1,0.03-2.06,0.07-2.14s0.62-0.86,1.28-1.74l0.6-0.79C3.12,0.78,4.2,0.78,4.86,1.66l0.45,0.61c0.66,0.88,1.2,1.64,1.2,1.68
			c0,0.05,0.54-0.63,1.21-1.51l0.6-0.79c0.67-0.88,1.83-0.94,2.6-0.15l0.89,0.93c0.76,0.79,1.39,1.38,1.39,1.31s0.54-0.85,1.21-1.73
			L15,1.22c0.67-0.88,1.75-0.87,2.41,0.01l0.45,0.61c0.66,0.88,1.2,1.64,1.2,1.68c0,0.05,0.54-0.63,1.21-1.51l0.6-0.79
			c0.67-0.88,1.75-0.87,2.41,0.01l0.45,0.6c0.66,0.88,1.17,1.63,1.14,1.66s0.48-0.65,1.15-1.53l0.6-0.79
			c0.67-0.88,1.75-0.87,2.41,0.01l0.45,0.61c0.66,0.88,1.2,1.64,1.2,1.68c0,0.05,0.54-0.63,1.21-1.51l0.6-0.79
			c0.67-0.88,1.75-0.87,2.41,0.01l0.45,0.6c0.66,0.88,1.22,1.62,1.24,1.64s0.59-0.68,1.25-1.55l0.6-0.79
			c0.67-0.88,1.75-0.87,2.41,0.01l0.45,0.6c0.66,0.88,1.2,1.64,1.2,1.68c0,0.05,0.54-0.63,1.21-1.51l0.6-0.79
			c0.67-0.88,1.75-0.87,2.41,0.01l0.45,0.61c0.66,0.88,1.2,1.64,1.2,1.69c0,0.05,0.54-0.62,1.21-1.5l0.6-0.79
			c0.67-0.88,1.75-0.87,2.41,0.01l0.45,0.6c0.66,0.88,1.2,1.64,1.2,1.68c0,0.05,0.54-0.63,1.21-1.51l0.6-0.79
			c0.67-0.88,1.75-0.87,2.41,0.01l0.45,0.6c0.66,0.88,1.22,1.62,1.24,1.64s0.59-0.68,1.25-1.55l0.6-0.79
			c0.67-0.88,1.75-0.87,2.41,0.01l0.45,0.61c0.66,0.88,1.2,1.64,1.2,1.68c0,0.05,0.54-0.63,1.21-1.51l0.6-0.79
			c0.67-0.88,1.75-0.87,2.41,0.01l0.45,0.61c0.66,0.88,1.17,1.63,1.14,1.66c-0.03,0.03,0.48-0.65,1.15-1.53L73.58,1
			c0.67-0.88,1.75-0.87,2.41,0.01l0.45,0.61c0.66,0.88,1.2,1.64,1.2,1.68c0,0.05,0.54-0.63,1.21-1.51L79.44,1
			c0.67-0.88,1.75-0.87,2.41,0.01l0.45,0.61c0.66,0.88,1.22,1.62,1.24,1.64s0.59-0.68,1.25-1.55l0.6-0.79
			c0.67-0.88,1.75-0.87,2.41,0.01l0.45,0.6c0.66,0.88,1.2,1.64,1.2,1.68c0,0.05,0.54-0.63,1.21-1.51l0.6-0.79
			c0.67-0.88,1.75-0.87,2.41,0.01l0.45,0.6c0.66,0.88,1.06,1.66,0.88,1.74c-0.17,0.08,0.23-0.58,0.89-1.45l0.6-0.79
			c0.67-0.88,1.75-0.87,2.41,0.01l0.45,0.61c0.66,0.88,1.2,1.64,1.2,1.68c0,0.05,0.54-0.63,1.21-1.51l0.6-0.79
			c0.67-0.88,1.75-0.87,2.41,0.01l0.45,0.6c0.66,0.88,1.22,1.62,1.24,1.64s0.59-0.68,1.25-1.55l0.6-0.79
			c0.67-0.88,1.75-0.87,2.41,0.01l0.45,0.61c0.66,0.88,1.2,1.64,1.2,1.68c0,0.05,0.54-0.63,1.21-1.51l0.6-0.79
			c0.67-0.88,1.75-0.87,2.41,0.01l0.45,0.61c0.66,0.88,1.17,1.63,1.14,1.66c-0.03,0.03,0.48-0.65,1.15-1.53l0.6-0.79
			c0.67-0.88,1.75-0.87,2.41,0.01l0.45,0.61c0.66,0.88,1.2,1.64,1.2,1.68s0.54-0.63,1.21-1.51l0.6-0.79
			c0.67-0.88,1.75-0.87,2.41,0.01l0.45,0.6c0.66,0.88,1.22,1.62,1.24,1.64c0.02,0.02,0.59-0.68,1.25-1.55l0.6-0.79
			c0.67-0.88,1.75-0.87,2.41,0.01l0.45,0.61c0.66,0.88,1.2,1.64,1.2,1.68s0.54-0.63,1.21-1.51l0.6-0.79
			c0.67-0.88,1.75-0.87,2.41,0.01l0.45,0.6c0.66,0.88,1.2,1.64,1.2,1.69c0,0.05,0.54-0.62,1.21-1.5l0.6-0.79
			c0.67-0.88,1.75-0.87,2.41,0.01l0.45,0.61c0.66,0.88,1.2,1.64,1.2,1.68s0.54-0.63,1.21-1.51l0.6-0.79
			c0.67-0.88,1.75-0.87,2.41,0.01l0.45,0.6c0.66,0.88,1.05,1.7,0.87,1.82s0.22-0.5,0.88-1.38l0.6-0.79
			c0.67-0.88,1.75-0.87,2.41,0.01l0.45,0.6c0.66,0.88,1.2,1.64,1.2,1.68s0.54-0.63,1.21-1.51l0.6-0.79
			c0.67-0.88,1.75-0.87,2.41,0.01l0.45,0.6c0.66,0.88,1.17,1.63,1.14,1.66c-0.03,0.03,0.48-0.65,1.15-1.53l0.6-0.79
			c0.67-0.88,1.75-0.87,2.41,0.01l0.45,0.61c0.66,0.88,1.2,1.64,1.2,1.68s0.54-0.63,1.21-1.51l0.6-0.79
			c0.67-0.88,1.75-0.87,2.41,0.01l0.45,0.61c0.66,0.88,1.22,1.62,1.24,1.64c0.02,0.02,0.59-0.68,1.25-1.55l0.6-0.79
			c0.67-0.88,1.75-0.87,2.41,0.01l0.45,0.61c0.66,0.88,1.2,1.64,1.2,1.68s0.54-0.63,1.21-1.51l0.6-0.79
			c0.67-0.88,1.75-0.87,2.41,0.01l0.45,0.61c0.66,0.88,1.17,1.59,1.14,1.58c-0.03-0.01,0.49-0.74,1.15-1.62l0.6-0.79
			c0.67-0.88,1.75-0.87,2.41,0.01l0.45,0.6c0.66,0.88,1.22,1.62,1.24,1.64c0.02,0.02,0.59-0.68,1.25-1.55l0.6-0.79
			c0.67-0.88,1.75-0.87,2.41,0.01l0.45,0.6c0.66,0.88,1.2,1.64,1.2,1.68s0.54-0.63,1.21-1.51l0.6-0.79
			c0.67-0.88,1.75-0.87,2.41,0.01l0.45,0.6c0.66,0.88,1.06,1.66,0.88,1.74c-0.17,0.08,0.23-0.58,0.9-1.45l0.6-0.79
			c0.67-0.88,1.75-0.87,2.41,0.01l0.45,0.6c0.66,0.88,1.2,1.64,1.2,1.68s0.54-0.63,1.21-1.51l0.6-0.79
			c0.67-0.88,1.75-0.87,2.41,0.01l0.45,0.61c0.66,0.88,1.22,1.62,1.24,1.64c0.02,0.02,0.59-0.68,1.25-1.55l0.6-0.79
			c0.67-0.88,1.75-0.87,2.41,0.01l0.45,0.61c0.66,0.88,1.2,1.64,1.2,1.68c0,0.05,0.54-0.63,1.21-1.51l0.6-0.79
			c0.67-0.88,1.75-0.87,2.41,0.01l0.45,0.61c0.66,0.88,1.17,1.63,1.14,1.66s0.48-0.65,1.15-1.53l0.6-0.79
			c0.67-0.88,1.75-0.87,2.41,0.01l0.45,0.61c0.66,0.88,1.2,1.64,1.2,1.68s0.54-0.63,1.21-1.51l0.6-0.79
			c0.67-0.88,1.75-0.87,2.41,0.01l0.45,0.6c0.66,0.88,1.22,1.62,1.24,1.64s0.59-0.68,1.25-1.55l0.6-0.79
			c0.67-0.88,1.75-0.87,2.41,0.01l0.45,0.61c0.66,0.88,1.2,1.64,1.2,1.68s0.54-0.63,1.21-1.51l0.6-0.79
			c0.67-0.88,1.75-0.87,2.41,0.01l0.45,0.6c0.66,0.88,1.2,1.64,1.2,1.69c0,0.05,0.54-0.62,1.21-1.5l0.6-0.79
			c0.67-0.88,1.75-0.87,2.41,0.01l0.45,0.61c0.66,0.88,1.2,1.64,1.2,1.68s0.54-0.63,1.21-1.51l0.6-0.79
			c0.67-0.88,1.75-0.87,2.41,0.01l0.45,0.6c0.66,0.88,1.05,1.7,0.87,1.82c-0.18,0.12,0.22-0.5,0.88-1.38l0.6-0.79
			c0.67-0.88,1.75-0.87,2.41,0.01l0.45,0.6c0.66,0.88,1.2,1.64,1.2,1.68s0.54-0.63,1.21-1.51l0.6-0.79
			c0.67-0.88,1.75-0.87,2.41,0.01l0.45,0.6c0.66,0.88,1.17,1.63,1.14,1.66c-0.03,0.03,0.48-0.65,1.15-1.53l0.6-0.79
			c0.67-0.88,1.75-0.87,2.41,0.01l0.45,0.61c0.66,0.88,1.2,1.64,1.2,1.68s0.54-0.63,1.21-1.51l0.6-0.79
			c0.67-0.88,1.75-0.87,2.41,0.01l0.45,0.61c0.66,0.88,1.22,1.62,1.24,1.64s0.59-0.68,1.25-1.55l0.6-0.79
			c0.67-0.88,1.75-0.87,2.41,0.01l0.45,0.6c0.66,0.88,1.2,1.64,1.2,1.68s0.54-0.63,1.21-1.51l0.6-0.79
			c0.67-0.88,1.75-0.87,2.41,0.01l0.45,0.61c0.66,0.88,1.13,1.65,1.06,1.71c-0.08,0.06,0.4-0.61,1.07-1.49l0.6-0.79
			c0.67-0.88,1.75-0.87,2.41,0.01l0.45,0.61c0.66,0.88,1.22,1.62,1.24,1.64c0.02,0.02,0.59-0.68,1.25-1.55l0.6-0.79
			c0.67-0.88,1.75-0.87,2.41,0.01l0.45,0.61c0.66,0.88,1.2,1.64,1.2,1.68c0,0.05,0.54-0.63,1.21-1.51l0.6-0.79
			c0.67-0.88,1.75-0.87,2.41,0.01l0.45,0.61c0.66,0.88,1.21,1.73,1.23,1.89c0.02,0.16,0.03,1.19,0.03,2.29v387.46
			c0,1.1-0.54,2.72-1.21,3.59l-0.6,0.79c-0.67,0.88-1.75,0.87-2.41-0.01l-0.46-0.61c-0.66-0.88-1.2-1.64-1.2-1.68
			s-0.54,0.63-1.21,1.51l-0.6,0.79c-0.67,0.88-1.83,0.94-2.6,0.15l-0.89-0.93c-0.76-0.79-1.39-1.38-1.39-1.31s-0.54,0.85-1.21,1.73
			l-0.6,0.79c-0.67,0.88-1.75,0.87-2.41-0.01l-0.45-0.61c-0.66-0.88-1.2-1.64-1.2-1.68s-0.54,0.63-1.21,1.51l-0.6,0.79
			c-0.67,0.88-1.75,0.87-2.41-0.01l-0.45-0.61c-0.66-0.88-1.17-1.63-1.14-1.66s-0.48,0.65-1.15,1.53l-0.6,0.79
			c-0.67,0.88-1.75,0.87-2.41-0.01l-0.45-0.6c-0.66-0.88-1.2-1.64-1.2-1.69s-0.54,0.63-1.21,1.51l-0.6,0.79
			c-0.67,0.88-1.75,0.87-2.41-0.01l-0.45-0.6c-0.66-0.88-1.22-1.62-1.24-1.64c-0.02-0.02-0.59,0.68-1.25,1.55l-0.6,0.79
			c-0.67,0.88-1.75,0.87-2.41-0.01l-0.45-0.61c-0.66-0.88-1.2-1.64-1.2-1.68s-0.54,0.63-1.21,1.51l-0.6,0.79
			c-0.67,0.88-1.75,0.87-2.41-0.01l-0.45-0.6c-0.66-0.88-1.2-1.64-1.2-1.7s-0.54,0.62-1.21,1.5l-0.6,0.79
			c-0.67,0.88-1.75,0.87-2.41-0.01l-0.45-0.6c-0.66-0.88-1.2-1.64-1.2-1.69s-0.54,0.63-1.21,1.51l-0.6,0.79
			c-0.67,0.88-1.75,0.87-2.41-0.01l-0.45-0.6c-0.66-0.88-1.22-1.62-1.24-1.64s-0.59,0.67-1.25,1.55l-0.6,0.79
			c-0.67,0.88-1.75,0.87-2.41-0.01l-0.45-0.6c-0.66-0.88-1.2-1.64-1.2-1.69s-0.54,0.63-1.21,1.51l-0.6,0.79
			c-0.67,0.88-1.75,0.87-2.41-0.01l-0.45-0.6c-0.66-0.88-1.17-1.63-1.14-1.66c0.03-0.03-0.48,0.65-1.15,1.53l-0.6,0.79
			c-0.67,0.88-1.75,0.87-2.41-0.01l-0.45-0.61c-0.66-0.88-1.2-1.64-1.2-1.68s-0.54,0.63-1.21,1.51l-0.6,0.79
			c-0.67,0.88-1.75,0.87-2.41-0.01l-0.45-0.61c-0.66-0.88-1.22-1.62-1.24-1.64c-0.02-0.02-0.59,0.68-1.25,1.55l-0.6,0.79
			c-0.67,0.88-1.75,0.87-2.41-0.01l-0.45-0.6c-0.66-0.88-1.2-1.64-1.2-1.69s-0.54,0.63-1.21,1.51l-0.6,0.79
			c-0.67,0.88-1.75,0.87-2.41-0.01l-0.45-0.6c-0.66-0.88-1.06-1.66-0.88-1.74c0.17-0.08-0.23,0.58-0.89,1.45l-0.6,0.79
			c-0.67,0.88-1.75,0.87-2.41-0.01l-0.45-0.61c-0.66-0.88-1.2-1.64-1.2-1.68s-0.54,0.63-1.21,1.51l-0.6,0.79
			c-0.67,0.88-1.75,0.87-2.41-0.01l-0.45-0.61c-0.66-0.88-1.22-1.62-1.24-1.64c-0.02-0.02-0.59,0.68-1.25,1.55l-0.6,0.79
			c-0.67,0.88-1.75,0.87-2.41-0.01l-0.45-0.6c-0.66-0.88-1.2-1.64-1.2-1.69s-0.54,0.63-1.21,1.51l-0.6,0.79
			c-0.67,0.88-1.75,0.87-2.41-0.01l-0.45-0.6c-0.66-0.88-1.17-1.63-1.14-1.66c0.03-0.03-0.48,0.65-1.15,1.53l-0.6,0.79
			c-0.67,0.88-1.75,0.87-2.41-0.01l-0.45-0.61c-0.66-0.88-1.2-1.64-1.2-1.68s-0.54,0.63-1.21,1.51l-0.6,0.79
			c-0.67,0.88-1.75,0.87-2.41-0.01l-0.45-0.61c-0.66-0.88-1.22-1.62-1.24-1.64c-0.02-0.02-0.59,0.68-1.25,1.55l-0.6,0.79
			c-0.67,0.88-1.75,0.87-2.41-0.01l-0.45-0.61c-0.66-0.88-1.2-1.64-1.2-1.68s-0.54,0.63-1.21,1.51l-0.6,0.79
			c-0.67,0.88-1.75,0.87-2.41-0.01l-0.45-0.61c-0.66-0.88-1.2-1.64-1.2-1.69s-0.54,0.62-1.21,1.5l-0.6,0.79
			c-0.67,0.88-1.75,0.87-2.41-0.01l-0.45-0.61c-0.66-0.88-1.2-1.64-1.2-1.68s-0.54,0.63-1.21,1.51l-0.6,0.79
			c-0.66,0.88-1.75,0.87-2.41-0.01l-0.45-0.61c-0.66-0.88-1.05-1.7-0.87-1.82c0.18-0.12-0.22,0.5-0.88,1.38l-0.6,0.79
			c-0.67,0.88-1.75,0.87-2.41-0.01l-0.45-0.61c-0.66-0.88-1.2-1.64-1.2-1.68s-0.54,0.63-1.21,1.51l-0.6,0.79
			c-0.67,0.88-1.75,0.87-2.41-0.01l-0.45-0.6c-0.66-0.88-1.17-1.63-1.14-1.66c0.03-0.03-0.48,0.65-1.15,1.53l-0.6,0.79
			c-0.67,0.88-1.75,0.87-2.41-0.01l-0.45-0.61c-0.66-0.88-1.2-1.64-1.2-1.68s-0.54,0.63-1.21,1.51l-0.6,0.79
			c-0.67,0.88-1.75,0.87-2.41-0.01l-0.45-0.61c-0.66-0.88-1.22-1.62-1.24-1.64c-0.02-0.02-0.59,0.68-1.25,1.55l-0.6,0.79
			c-0.66,0.88-1.75,0.87-2.41-0.01l-0.45-0.61c-0.66-0.88-1.2-1.64-1.2-1.68s-0.54,0.63-1.21,1.51l-0.6,0.79
			c-0.67,0.88-1.75,0.87-2.41-0.01l-0.45-0.61c-0.66-0.88-1.17-1.59-1.14-1.58c0.03,0.01-0.49,0.74-1.15,1.62l-0.6,0.79
			c-0.67,0.88-1.75,0.87-2.41-0.01l-0.45-0.61c-0.66-0.88-1.22-1.62-1.24-1.64c-0.02-0.02-0.59,0.68-1.25,1.55l-0.6,0.79
			c-0.67,0.88-1.75,0.87-2.41-0.01l-0.45-0.61c-0.66-0.88-1.2-1.64-1.2-1.68s-0.54,0.63-1.21,1.51l-0.6,0.79
			c-0.67,0.88-1.75,0.87-2.41-0.01l-0.45-0.61c-0.66-0.88-1.06-1.66-0.88-1.74c0.17-0.08-0.23,0.58-0.9,1.45l-0.6,0.79
			c-0.67,0.88-1.75,0.87-2.41-0.01l-0.45-0.61c-0.66-0.88-1.2-1.64-1.2-1.68s-0.54,0.63-1.21,1.51l-0.6,0.79
			c-0.67,0.88-1.75,0.87-2.41-0.01l-0.45-0.61c-0.66-0.88-1.22-1.62-1.24-1.64c-0.02-0.02-0.59,0.68-1.25,1.55l-0.6,0.79
			c-0.67,0.88-1.75,0.87-2.41-0.01l-0.45-0.61c-0.66-0.88-1.2-1.64-1.2-1.68s-0.54,0.63-1.21,1.51l-0.6,0.79
			c-0.66,0.88-1.75,0.87-2.41-0.01l-0.45-0.61c-0.66-0.88-1.17-1.63-1.14-1.66s-0.48,0.65-1.15,1.53l-0.6,0.79
			c-0.67,0.88-1.75,0.87-2.41-0.01l-0.45-0.6c-0.66-0.88-1.2-1.64-1.2-1.69s-0.54,0.63-1.21,1.51l-0.6,0.79
			c-0.67,0.88-1.75,0.87-2.41-0.01l-0.45-0.6c-0.66-0.88-1.22-1.62-1.24-1.64c-0.02-0.02-0.59,0.68-1.25,1.55l-0.6,0.79
			c-0.67,0.88-1.75,0.87-2.41-0.01l-0.45-0.61c-0.66-0.88-1.2-1.64-1.2-1.68s-0.54,0.63-1.21,1.51l-0.6,0.79
			c-0.67,0.88-1.75,0.87-2.41-0.01l-0.45-0.61c-0.66-0.88-1.2-1.64-1.2-1.69s-0.54,0.62-1.21,1.5l-0.6,0.79
			c-0.67,0.88-1.75,0.87-2.41-0.01l-0.45-0.6c-0.66-0.88-1.2-1.64-1.2-1.69s-0.54,0.63-1.21,1.51l-0.6,0.79
			c-0.67,0.88-1.75,0.87-2.41-0.01l-1.65-2.21"/>
	</g>
	<rect x="9.5" y="376.5" class="st1" width="11.5" height="14.5"/>
	<line class="st1" x1="15.25" y1="370.9" x2="15.25" y2="384.25"/>
	<line class="st1" x1="12.75" y1="374.5" x2="15.25" y2="370.9"/>
	<line class="st1" x1="15.25" y1="370.9" x2="17.5" y2="374.5"/>
	<g>
		<circle class="st1" cx="300.58" cy="383.92" r="7.08"/>
		<text x="298.9985" y="387.5" class="st6 st8 st10">i</text>
	</g>
</g>
<g id="Layer_3" class="pass-group">
	
	<g class="img-btn-group" id="logo-group">
		<image id="logo" style="overflow:visible;" width="36.36" height="32.7" x="15" y="11.2881" xlink:href="/assets/svg/img/coupon/logo.png"></image>
		<rect data-target="logo" width="36.36" height="32.7" x="15" y="11.2881" class="img-btn-rect"/>
	</g>
	
	<g class="barcode-btn-group" id="barcode-group">
		<rect data-target="barcode" rx="5" ry="5" class="bar-btn-rect"/>
		<image id="barcode" style="overflow:visible;" xlink:href="/assets/svg/img/coupon/barcode.jpg"></image>
		<text class="font-norm barcode">SAMPLE</text>
	</g>

	<g class="img-btn-group" id="strip-group">
		<image id="strip" style="overflow:visible;" width="320" height="123" xlink:href="/assets/svg/img/coupon/strip.png" transform="scale(0.9859,1)" x="0" y="65"></image>
		<rect data-target="strip" transform="scale(0.9859,1)" x="0" y="65" width="320" height="123" class="img-btn-rect"/>
	</g>

	<g id="logo1" class="text-btn-group" transform="translate(72.4985,36)">
		<text class="font-bold logo-text value-text">Cinderellas</text>
	</g>

	<g id="header1" class="text-btn-group" transform="translate(255,10)">
		<text class="font-norm label-text">OFFER</text>
		<text class="value-text">In-store</text>
	</g>

	<g id="primary1" class="text-btn-group" transform="translate(17.499,75)">
		<text transform="scale(1.0733,1)" x="17.499" y="0" class="font-lite value-text">40% OFF</text>
		<text transform="scale(1.0733,1)" x="17.499" y="20" class="font-lite label-text">All Summer Sandals</text>
		<rect transform="scale(0.9859,1)" x="0" y="0" width="320" height="123" class="text-btn-rect"/>
	</g>

	<g id="aux1" class="text-btn-group" transform="translate(17,209)">
		<text class="font-norm label-text">VALID THRU</text>
		<text class="value-text">07/31/2014</text>
	</g>

	<g id="aux2" class="text-btn-group" transform="translate(115.5,209)">
		<text class="font-norm label-text">LIMIT</text>
		<text class="value-text">1 Per Customer </text>
	</g>

	<g id="aux3" class="text-btn-group" transform="translate(217,209)">
		<text class="font-norm label-text">COUPON #</text>
		<text class="value-text">0131</text>
	</g>

</g>
</svg>