<svg version="1.1" id="passBack" class="pass-template back" xmlns="http://www.w3.org/2000/svg" xmlns:xlink="http://www.w3.org/1999/xlink" x="0px" y="0px"
	 width="315px" height="401px" viewBox="0 0 315 401" style="enable-background:new 0 0 315 401;" xml:space="preserve">
<style type="text/css">
<![CDATA[
	.st0{fill:url(#SVGID_1_);stroke:#EC008C;stroke-miterlimit:10;}
	.st1{fill:url(#SVGID_2_);stroke:#EC008C;stroke-miterlimit:10;}
	.st2{fill:#E6E7E8;}
	.st3{fill:#808285;}
	.st4{fill:#58595B;}
	.st5{fill:#FFFFFF;stroke:#39B54A;stroke-miterlimit:10;}
	.st6{fill:#939598;}
	.st7{letter-spacing:-1;}
	.st8{fill:#FFFFFF;}
	svg.back .back-ground{fill:rgb(230,230,230);}
	.st9{font-size:13.846;}
	.st10{fill:none;}
	.st11{font-family:'Helvetica-Light';}
	svg.back line.delimiter{stroke:rgb(109,110,113);stroke-width:1;}
	.st13{fill:#39B54A;stroke:#39B54A;stroke-miterlimit:10;}
	svg.back .back-text{font-family:'Helvetica';fill:#808285;font-size:13.846;}
	svg.back .back-label{font-family:'Helvetica';fill:#808285;font-size:12;}
	.st15{font-size:12;}
	.st16{font-size:14;}
	.st17{font-size:16;}
]]>
</style>
<path class="st2" d="M315,389.01c0,6.62-5.37,11.99-12,11.99H12c-6.63,0-12-5.37-12-11.99V12.48C0,5.87,5.37,0.5,12,0.5h291
	c6.63,0,12,5.37,12,11.98V389.01z"/>
<linearGradient id="SVGID_1_" gradientUnits="userSpaceOnUse" x1="0" y1="-4.882812e-04" x2="0" y2="-4.882812e-04">
	<stop  offset="0" style="stop-color:#7C76B7"/>
	<stop  offset="0.5" style="stop-color:#6561AB"/>
	<stop  offset="1" style="stop-color:#483F99"/>
</linearGradient>
<line class="st0" x1="0" y1="0" x2="0" y2="0"/>
<linearGradient id="SVGID_2_" gradientUnits="userSpaceOnUse" x1="125.6665" y1="-4.882812e-04" x2="126" y2="-4.882812e-04">
	<stop  offset="0" style="stop-color:#7C76B7"/>
	<stop  offset="0.5" style="stop-color:#6561AB"/>
	<stop  offset="1" style="stop-color:#483F99"/>
</linearGradient>
<line class="st1" x1="126" y1="0" x2="125.67" y2="0"/>
<g>
	<defs>
		<rect id="SVGID_3_" x="359.48" y="234" width="371.52" height="425.06"/>
	</defs>
	<clipPath id="SVGID_4_">
		<use xlink:href="#SVGID_3_"  style="overflow:visible;"/>
	</clipPath>
</g>

<g id="back-fields" transform="translate(0,0)">
<rect x="-0.25" y="30.87" class="st8" width="315" height="72"/>
<line class="st10" x1="64.5" y1="66.88" x2="311.5" y2="66.88"/>
<line class="delimiter" x1="16" y1="66" x2="315" y2="66"/>
<text transform="matrix(1 0 0 1 15 56)" class="st11 st17">Automatic Updates</text>
<text transform="matrix(1 0 0 1 14 90)" class="st11 st17">Show On Lock Screen</text>
<rect x="0" y="102.87" class="back-ground" width="315" height="36"/>
<text transform="matrix(1 0 0 1 15 120)" class="st4 st11 st15">Show based on time or location.</text>
<rect id="back-fields-bg" x="0.33" y="136.21" class="st8" width="315" height="0"/>

<g>
	<path class="st13" d="M278.1,97.33l-19.65-0.22c-12.66-3.65-12.88-20.2-0.44-23.85l22.27-0.43"/>
	<circle class="st5" cx="278.23" cy="85.04" r="12.29"/>
</g>
<g>
	<path class="st13" d="M277.6,61.08l-19.65-0.22c-12.66-3.65-12.88-20.2-0.44-23.85l22.27-0.43"/>
	<circle class="st5" cx="277.73" cy="48.79" r="12.29"/>
</g>

</g>
<line id="scroll-bar"></line>



</svg>
