<svg xmlns="http://www.w3.org/2000/svg" width="1280" height="800" viewBox="0 0 1280 800"><style><![CDATA[
	.st0{fill:none;stroke:#FFFFFF;stroke-miterlimit:10;}
	.st1{stroke:rgb(240,30,0);stroke-width:2;stroke-miterlimit:10;}
	.st2{fill:rgb(240,30,0);stroke:#000000;stroke-width:3;stroke-miterlimit:10;}
	.st3{fill:#292B2F;}
	.st4{fill:rgb(240,30,0);}
	.st5{stroke:#000000;stroke-width:3;stroke-miterlimit:10;}
	.st6{stroke:#000000;stroke-width:3;stroke-miterlimit:15;}
]]></style><path class="st3" d="M-21-6h1323v808H-21z" id="bg"/><g id="star"><path class="st4" d="M1179.04 154.71c-2.83 1.21-5.65 2.42-8.48 3.63-1.77.76-.24 3.34 1.51 2.59 2.83-1.21 5.65-2.42 8.48-3.63 1.77-.76.24-3.35-1.51-2.59zm24.05.48v-8.86c0-2.18-.11-.8-.43-.57 3.26-2.35 6.52-4.7 9.78-7.04.67-.48.98-1.29.54-2.05-6.9-11.98-13.8-23.95-20.7-35.93-.56-.97-2.03-.97-2.59 0-6.83 11.84-13.65 23.68-20.48 35.53-.31.54-.28 1.4.23 1.82 2.93 2.4 5.87 4.8 8.8 7.2-.76-.63-.36-1.09-.31.48l.15 4.38c.07 1.95.13 3.9.2 5.85.07 1.93 3.07 1.94 3 0-.13-3.76.54-8.48-.46-12.11-.4-1.46-3.02-2.82-4.09-3.69-1.73-1.41-3.45-2.82-5.18-4.24.08.61.16 1.21.23 1.82 6.83-11.84 13.65-23.68 20.48-35.53h-2.59c6.9 11.98 13.8 23.95 20.7 35.93l.54-2.05c-3.37 2.42-6.73 4.84-10.09 7.27-2.19 1.58-.74 9.35-.74 11.79.01 1.94 3.01 1.94 3.01 0zm-2.25 1.3c2.56 1.48 5.11 2.96 7.67 4.44 1.68.97 3.19-1.62 1.51-2.59-2.56-1.48-5.11-2.96-7.67-4.44-1.68-.97-3.19 1.62-1.51 2.59z"/><path class="st4" d="M1171.59 158.83c-1.52-.86-3.04-1.73-4.56-2.59-1.05-.59-2.09-1.19-3.14-1.78-1.88-1.07-.77-.3-.72.1-.43-3.99-.87-7.99-1.3-11.98-.09-.81-.62-1.51-1.5-1.5l-41.46.27c-1.13.01-1.88 1.27-1.29 2.26 6.93 11.78 13.86 23.56 20.79 35.35.32.54 1.07.93 1.69.69 3.54-1.37 7.07-2.73 10.61-4.1-.92.36-1.17-.24.25.5 1.29.68 2.59 1.35 3.88 2.03 1.73.9 3.46 1.81 5.19 2.71 1.71.9 3.23-1.69 1.51-2.59-3.37-1.76-7.08-4.57-10.74-5.58-1.46-.4-3.98 1.23-5.26 1.73-2.08.8-4.16 1.61-6.24 2.41.56.23 1.13.46 1.69.69-6.93-11.78-13.86-23.56-20.79-35.35-.43.75-.86 1.5-1.29 2.26l41.46-.27-1.5-1.5c.45 4.12.89 8.24 1.34 12.36.29 2.71 7.73 5.26 9.87 6.48 1.68.95 3.19-1.64 1.51-2.6zm-12.58 29.7c-1.53.86-3.05 1.71-4.58 2.57l-3.15 1.77c-1.92 1.08-.62.48-.27.64-3.64-1.69-7.28-3.39-10.93-5.08-.75-.35-1.61-.21-2.05.54-7.07 11.88-14.14 23.75-21.21 35.63-.59.99.17 2.24 1.29 2.26l41 .48c.62.01 1.33-.46 1.45-1.1l1.98-11.2c-.17.98-.73.83.59.03 1.25-.76 2.5-1.52 3.74-2.27 1.67-1.01 3.34-2.03 5.01-3.04 1.65-1 .14-3.6-1.51-2.59-3.2 1.94-7.67 3.67-10.32 6.31-1.07 1.07-.98 4.01-1.22 5.37-.39 2.2-.77 4.39-1.16 6.59.48-.37.96-.73 1.45-1.1l-41-.48c.43.75.86 1.5 1.29 2.26 7.07-11.88 14.14-23.75 21.21-35.63l-2.05.54c3.76 1.75 7.52 3.5 11.27 5.25 2.45 1.14 8.54-3.94 10.67-5.14 1.7-.97.19-3.56-1.5-2.61zm19.84 24.99c-.04 1.75-.07 3.5-.11 5.25-.03 1.2-.05 2.4-.08 3.61-.05 2.2.09.77.39.56-3.31 2.28-6.62 4.56-9.92 6.84-.69.47-.95 1.29-.54 2.05 6.65 12.12 13.29 24.24 19.94 36.35.55 1.01 2.02.94 2.59 0 7.07-11.7 14.14-23.39 21.22-35.09.33-.54.27-1.39-.23-1.82-2.88-2.46-5.77-4.92-8.65-7.38.78.66.36 1.06.34-.48l-.06-4.38c-.03-1.95-.05-3.9-.08-5.86-.03-1.93-3.03-1.94-3 0 .05 3.72-.77 8.53.21 12.11.4 1.46 2.97 2.87 4.03 3.77 1.7 1.45 3.39 2.9 5.09 4.34-.08-.61-.16-1.21-.23-1.82-7.07 11.7-14.14 23.39-21.22 35.09h2.59c-6.65-12.12-13.29-24.24-19.94-36.36l-.54 2.05c3.41-2.35 6.83-4.7 10.24-7.06 2.19-1.51.91-9.38.96-11.79.04-1.92-2.96-1.91-3 .02zm30.87-3.61l4.62 2.49 3.18 1.71c1.88 1.02.81.3.75-.14l1.56 11.95c.1.79.6 1.53 1.5 1.5 13.82-.4 27.63-.79 41.45-1.19 1.1-.03 1.91-1.26 1.29-2.26-7.19-11.62-14.38-23.25-21.57-34.88-.32-.52-1.07-.95-1.69-.69-3.51 1.44-7.01 2.89-10.52 4.33.88-.36 1.19.26-.26-.47-1.31-.65-2.62-1.29-3.92-1.94-1.75-.87-3.5-1.73-5.25-2.6-1.73-.85-3.25 1.73-1.51 2.59 3.44 1.7 7.16 4.33 10.86 5.35 1.46.4 3.97-1.31 5.22-1.82 2.06-.85 4.12-1.7 6.19-2.55-.56-.23-1.13-.46-1.69-.69 7.19 11.62 14.38 23.25 21.57 34.88.43-.75.86-1.5 1.29-2.26-13.82.4-27.63.79-41.45 1.19l1.5 1.5c-.54-4.11-1.07-8.22-1.61-12.33-.36-2.74-7.78-5.09-9.99-6.27-1.71-.9-3.22 1.69-1.52 2.6zm11.61-29.71c1.54-.84 3.07-1.68 4.61-2.52 1.05-.58 2.11-1.15 3.17-1.73 1.94-1.06.61-.46.27-.62 3.62 1.73 7.25 3.47 10.87 5.2.75.36 1.6.2 2.05-.54l21.6-35.4c.61-.99-.18-2.23-1.29-2.26l-40.99-.93c-.62-.01-1.33.46-1.45 1.1l-2.1 11.18c.19-.99.71-.82-.6-.04-1.26.74-2.51 1.49-3.77 2.23-1.68 1-3.36 1.99-5.04 2.99-1.66.98-.15 3.58 1.51 2.59 3.2-1.9 7.76-3.58 10.38-6.21 1.07-1.07 1.01-4 1.27-5.37.41-2.19.82-4.38 1.23-6.58-.48.37-.96.73-1.45 1.1l40.99.93c-.43-.75-.86-1.5-1.29-2.26l-21.6 35.4 2.05-.54-11.22-5.37c-2.42-1.16-8.6 3.87-10.72 5.04-1.69.95-.18 3.54 1.52 2.61zm-62.06-.71c-.33 3.45-.67 6.89-1 10.34-.19 1.93 2.82 1.91 3 0 .33-3.45.67-6.89 1-10.34.19-1.93-2.81-1.91-3 0z"/><path class="st4" d="M1170.38 209.74c3.07 1.69 6.14 3.38 9.21 5.08 1.7.93 3.21-1.66 1.51-2.59-3.07-1.69-6.14-3.38-9.21-5.08-1.69-.94-3.2 1.65-1.51 2.59zm32.54 4.72c2.77-1.52 5.54-3.03 8.32-4.55 1.7-.93.18-3.52-1.51-2.59-2.77 1.52-5.54 3.03-8.32 4.55-1.7.93-.19 3.52 1.51 2.59zm16.15-35.04l-.27 9.69c-.05 1.94 2.95 1.93 3 0l.27-9.69c.05-1.94-2.95-1.93-3 0zm-20.45 3.76c-.55 10.21-15.29 10.21-15.84 0-.56-10.21 15.29-10.15 15.84 0 .1 1.92 3.1 1.93 3 0-.33-6.18-4.74-10.59-10.92-10.92-6.17-.33-10.62 5.24-10.92 10.92-.33 6.17 5.24 10.61 10.92 10.92 6.17.33 10.61-5.24 10.92-10.92.1-1.93-2.9-1.92-3 0zm-141.51-57.82c9.49 5.95 20.75 9.5 31.95 7.19 19.19-3.96 29-24.77 34.55-41.46.4-1.22-1.12-2.43-2.2-1.69-12.87 8.74-30.86 8.75-37.65-7.36-1.05-2.5-3.78-9.87-2.03-12.16 1.17-1.53 2.2-3.17 3.16-4.83 2.08-3.59 3.66-7.49 4.73-11.5 7.4-27.71-18.85-44.19-41.53-51.65-1.19-.39-2.46 1.13-1.69 2.2 9.28 12.93 7.93 32.42-9.19 37.65-2.37.72-10.84 2.3-12.87.27-1.13-1.13-2.73-1.79-4.14-2.51-3.49-1.78-7.18-3.16-11.01-4.02-27.17-6.12-43.73 22.14-52.51 43.19.96.27 1.93.53 2.89.8.38-1.33 4.54-3.15 5.79-3.83 2.3-1.25 4.78-2.05 7.31-2.67 4.95-1.2 10.14-.69 14.87 1.08 11.1 4.14 14.73 16.17 13.43 26.96-.18 1.54 2.1 1.97 2.79.76.07-.13.15-.26.22-.39.82-1.44-1.25-3.17-2.36-1.82-7.44 9.17-11.01 21.52-8.39 33.15 4.57 20.27 26.18 28.88 43.57 35.05 1.5.53 2.4-1.47 1.46-2.51-6.8-7.49-10.08-17.83-5.85-27.45 4.27-9.71 14.9-13.13 24.77-12.5 1.93.12 1.92-2.88 0-3-11.56-.73-22.89 3.83-27.76 14.9-4.61 10.48-.6 22.11 6.72 30.18.49-.84.97-1.67 1.46-2.51-16.77-5.95-36.63-13.76-41.47-32.96-2.61-10.35 1-22.09 7.62-30.23l-2.36-1.82c-.07.13-.15.26-.22.39.93.25 1.86.5 2.79.76 1.53-12.7-3.44-24.72-15.63-29.85-5.52-2.33-11.84-2.2-17.57-.81-3.91.95-12.87 4.08-14.09 8.33-.55 1.92 2.17 2.52 2.89.8 6.29-15.07 15.03-32.14 30.62-39.36 8.67-4.01 18.46-2.64 26.89 1.21 1.56.71 3.08 1.53 4.57 2.38 2.83 1.61 5.4 1.9 8.79 1.96 6.48.1 12.72-2.3 17.53-6.59 10.7-9.56 8.65-25.86 1.01-36.49l-1.69 2.2c15.06 4.96 32.48 12.91 38.66 28.75 3.64 9.32 1.69 19.67-2.75 28.34-1.77 3.47-4.93 6.24-4.68 10.28.46 7.26 3.01 14.34 8.06 19.65 9.81 10.31 25.74 7.39 36.34.2l-2.2-1.69c-5.42 16.32-14.62 35.69-33.21 39.52-10.01 2.06-20.49-1.78-28.89-7.05-1.63-1.06-3.13 1.54-1.5 2.56z"/><path class="st4" d="M1048.5 83.64c-.54 9.98-15.18 9.98-15.72 0-.55-9.97 15.18-9.93 15.72 0 .11 1.92 3.11 1.93 3 0-.76-13.83-20.96-13.83-21.72 0-.33 6.11 5.27 10.43 10.86 10.73 6.08.32 10.55-5.09 10.86-10.73.1-1.93-2.9-1.92-3 0zm-478.69 579.8l-4.23-12.15c-.71-2.03-1.41-4.05-2.12-6.08-.32-.92-1.24 1.63 0 .35l16.17-16.74c12.14-12.56 24.28-25.13 36.42-37.69h-2.12c1.32 1.1.64-.87.7.66.04 1.05.08 2.1.13 3.15.16 3.96.32 7.91.47 11.86.47 11.7.93 23.4 1.4 35.11.33 8.39.67 16.79 1 25.18.08 1.96-.31.59.74.04-1.5.79-3 1.57-4.49 2.36-4.01 2.1-8.01 4.2-12.02 6.3-.62.32-.82 1.05-.69 1.69l4.65 21.97c.1.47.57.96 1.05 1.05 3.93.69 7.86 1.38 11.79 2.08 2.14.38 4.28.75 6.42 1.13.99.17-.77-1.86-.25-.17 2.28 7.42 4.56 14.83 6.85 22.24l15.42 50.1c.35-.61.7-1.23 1.05-1.84-1.61.64.48 1.01-.9.32l-2.82-1.41c-3.79-1.89-7.57-3.79-11.36-5.68-10.79-5.4-21.57-10.8-32.36-16.2-7.1-3.55-14.21-7.11-21.31-10.67-1.54-.77.02 1.34.04.38l.15-7.35c.08-4.01.51-8.16.08-12.15-.08-.71-.41-1.2-1.1-1.45-6.53-2.32-13.05-4.64-19.58-6.96-.47-.17-1.14.01-1.46.39-2.6 3.03-5.19 6.06-7.79 9.09-1.41 1.65-2.83 3.3-4.24 4.95-.66.77 2.03.27.3-.14-7.54-1.81-15.09-3.62-22.63-5.44-16.99-4.08-33.98-8.16-50.97-12.25.35.62.7 1.23 1.05 1.84.27-1.68-1.06-.13.21-.96.88-.57 1.77-1.14 2.65-1.71 3.33-2.14 6.65-4.29 9.98-6.43l29.53-19.03 21.18-13.65c1.65-1.06.67-.03-.36-.67 1.44.89 2.88 1.78 4.31 2.67 3.85 2.39 7.69 4.77 11.54 7.16.6.37 1.32.21 1.82-.23 5.11-4.52 10.21-9.04 15.32-13.56 1.45-1.29-.68-3.4-2.12-2.12-5.11 4.52-10.21 9.04-15.32 13.56.61-.08 1.21-.16 1.82-.23l-15.9-9.87c-.44-.27-1.08-.28-1.51 0-11.55 7.44-23.09 14.88-34.64 22.32-7.61 4.9-15.21 9.8-22.82 14.71-2.8 1.8-7.99 3.67-8.57 7.24-.13.78.19 1.64 1.05 1.84 24.8 5.96 49.6 11.92 74.39 17.87.49.12 1.11.02 1.46-.39 2.17-2.54 4.35-5.07 6.52-7.61 1.35-1.58 2.71-3.16 4.06-4.74l1.45-1.69c.86-1-1.27-.11-.87.03 6.45 2.29 12.91 4.59 19.36 6.88-.37-.48-.73-.96-1.1-1.45.71 6.55-.11 13.47-.24 20.06-.01.5.29 1.07.74 1.29 12.28 6.15 24.57 12.3 36.85 18.45 8.09 4.05 16.19 8.1 24.28 12.15 2.98 1.49 7.26 5.03 10.63 3.69.74-.29 1.31-1 1.05-1.84-7.5-24.37-15-48.75-22.51-73.12-.14-.47-.54-.96-1.05-1.05l-9.87-1.74-6.82-1.2c-.61-.11-1.21-.21-1.82-.32-.63-.11.95 1.73.69.52-1.51-7.16-3.03-14.33-4.54-21.49-.23.56-.46 1.13-.69 1.69 5.52-2.9 11.05-5.79 16.57-8.69.45-.23.76-.79.74-1.29-.55-13.73-1.09-27.45-1.64-41.18l-1.08-27.13c-.13-3.35.89-8.75-1.91-11.07-.62-.51-1.51-.63-2.12 0-17.72 18.34-35.44 36.68-53.16 55.01-.35.37-.56.96-.39 1.46 2.18 6.25 4.36 12.5 6.53 18.75.62 1.85 3.52 1.07 2.88-.76zm6.34 20c11.27-1.21 15.12 14.26 4.18 17.92-4.94 1.65-9.8-1.85-11.32-6.4-1.83-5.46 2.45-10.46 7.54-11.57 1.89-.41 1.09-3.3-.8-2.89-6.52 1.42-10.66 7.06-9.94 13.72.73 6.79 7.33 11.03 13.77 10.34 6.79-.73 11.04-7.34 10.34-13.78-.73-6.78-7.33-11.03-13.77-10.34-1.9.21-1.92 3.21 0 3z"/></g><g id="small_soward"><path class="st4" d="M1112.18 382.97c10.29 17.88 21.13 35.51 34.3 51.44 11.65 14.1 25.3 26.34 38.98 38.41 1.44 1.27 3.58-.84 2.12-2.12-13.11-11.56-26.09-23.29-37.46-36.6-13.75-16.1-24.82-34.35-35.35-52.65-.96-1.67-3.55-.16-2.59 1.52zm109.09 62.41c-10.55-17.75-21.91-35.06-35.76-50.43-12.03-13.35-25.92-24.88-39.54-36.55-1.46-1.25-3.59.86-2.12 2.12 13.34 11.42 26.82 22.74 38.74 35.67 14.11 15.3 25.48 32.87 36.09 50.7.99 1.66 3.58.15 2.59-1.51zm-2.59 0c-3 5.03-5.69 10.37-9.8 14.6-5.64 5.81-14.08 8.25-21.64 10.35-1.86.52-1.07 3.41.8 2.89 7.71-2.14 15.49-4.69 21.68-9.93 5.12-4.33 8.18-10.75 11.55-16.4.99-1.67-1.6-3.17-2.59-1.51zm-27.12 25.67c8.62 11.22 17.23 22.44 25.85 33.66 1.16 1.51 3.77.02 2.59-1.51-8.62-11.22-17.23-22.44-25.85-33.66-1.16-1.51-3.77-.02-2.59 1.51z"/><path class="st4" d="M1218.09 451.35c9.65 9.21 19.3 18.42 28.94 27.64 1.4 1.33 3.52-.78 2.12-2.12-9.65-9.21-19.3-18.42-28.94-27.64-1.4-1.33-3.52.79-2.12 2.12z"/><path class="st4" d="M1247.01 478.75c-1.26 14.06-13.42 24.27-27.38 23.75-1.94-.07-1.93 2.93 0 3 15.7.58 28.98-11.11 30.38-26.75.17-1.93-2.83-1.92-3 0zm-103.13-124.24c-.35 14.39-11.53 25.57-25.93 25.93-14.39.35-25.59-12.07-25.93-25.93-.35-14.39 12.06-25.59 25.93-25.93 14.4-.35 25.59 12.07 25.93 25.93.05 1.93 3.05 1.94 3 0-.39-16.04-12.88-28.53-28.93-28.93-16.04-.39-28.55 13.48-28.93 28.93-.39 16.04 13.47 28.55 28.93 28.93 16.04.39 28.55-13.48 28.93-28.93.05-1.93-2.95-1.93-3 0zM894.45 118.79c18.42 43.28 45.79 81.5 78.26 115.33 26.24 27.34 55.89 51 82.89 77.52 1.38 1.36 3.5-.76 2.12-2.12-26.35-25.88-55.17-49.05-80.97-75.53-33.18-34.05-61.04-72.84-79.72-116.71-.74-1.78-3.32-.25-2.58 1.51zm1.38.26c43.21 18.92 77.75 50.92 107.51 86.88 24.26 29.31 44.73 62.53 72.2 89.05 4.21 4.06 8.67 7.85 13.4 11.29 1.57 1.14 3.06-1.46 1.51-2.59-13.3-9.7-24.24-22.34-34.56-35.05-12.41-15.29-23.97-31.26-36.04-46.82-27.39-35.31-57.81-68.75-96.44-91.98-8.38-5.04-17.11-9.46-26.06-13.38-1.76-.76-3.29 1.82-1.52 2.6zm193.1 187.22c13.88 10.67 28.77 17.82 46.21 12.74 1.85-.54 1.06-3.43-.8-2.89-16.65 4.84-30.69-2.29-43.9-12.44-1.53-1.18-3.02 1.43-1.51 2.59zm-3-47.98c14 5.15 26 15.23 35.64 26.42 6.15 7.14 17.53 21.68 12.16 31.83-.9 1.71 1.69 3.23 2.59 1.51 5.61-10.62-3.79-24.39-10.13-32.39-10.27-12.97-23.79-24.5-39.46-30.26-1.82-.67-2.6 2.22-.8 2.89z"/><path class="st0" d="M1010.21 318.97"/><path class="st4" d="M1183.49 337.88c-5.88-20.51-15.54-39.67-30.29-55.23-16.92-17.86-39.59-28.83-63.11-35.09-1.87-.5-2.67 2.4-.8 2.89 22.82 6.07 44.17 16.53 60.92 33.42 14.98 15.11 24.57 34.52 30.39 54.8.53 1.86 3.43 1.07 2.89-.79zm-90.44 81.46c-21.74-.27-40.22-14.73-53.82-30.48-13.79-15.98-24.67-36.23-27.9-57.24-.57-3.71.18-8-.7-11.56-.79-3.19 4.56-2.24 5.34-1.19.72.96.96 3.04 1.33 4.17.93 2.92 2.13 5.75 3.4 8.54 4.65 10.27 11.71 19.54 20.01 27.12 7.12 6.51 30.09 22.3 36.15 7.23 7.67-19.07-7.36-41.49-18.45-55.59-1.2-1.52-3.3.62-2.12 2.12 8.13 10.33 15.49 21.79 18.45 34.76 1.35 5.93 2.19 16.23-2.62 21.04-1.98 1.98-8.39.24-10.58-.37-4.78-1.33-9.15-3.99-13.18-6.83-9.76-6.88-17.48-16.67-23.14-27.09-1.57-2.89-2.88-5.9-4.06-8.96-.8-2.06-1.1-5.65-2.39-7.37-1.82-2.43-3.7-3.27-6.77-2.72-7.17 1.29-4.12 13.93-3.41 18.55 3.07 19.92 13.59 38.84 25.97 54.42 14.14 17.8 34.76 34.14 58.47 34.43 1.96.04 1.95-2.96.02-2.98z"/><path class="st4" d="M1087.22 255.6c-.46-1.91-.09-4.44 2.04-5.12 1.83-.59 1.05-3.48-.8-2.89-3.77 1.21-4.99 5.24-4.14 8.81.46 1.88 3.35 1.08 2.9-.8zm8 164.77l-2.37-25.61c-.18-1.91-3.18-1.93-3 0l2.37 25.61c.18 1.91 3.18 1.92 3 0z"/><path class="st4" d="M1092.15 395.87l7.84-8.68c1.29-1.43-.82-3.56-2.12-2.12l-7.84 8.68c-1.29 1.43.82 3.56 2.12 2.12z"/><path class="st4" d="M1099.79 387.76c5.5 1.18 11 2.37 16.5 3.55 1.89.41 2.69-2.49.8-2.89-5.5-1.18-11-2.37-16.5-3.55-1.88-.4-2.69 2.49-.8 2.89zm51.57-24.95c.09-7.53.19-15.05.28-22.58.02-1.94-2.98-1.93-3 0-.09 7.53-.19 15.05-.28 22.58-.02 1.94 2.98 1.94 3 0z"/><path class="st4" d="M1151.2 341.3c2.24-2.15 4.48-4.29 6.72-6.44 1.4-1.34-.72-3.46-2.12-2.12-2.24 2.15-4.48 4.29-6.72 6.44-1.4 1.34.73 3.46 2.12 2.12z"/><path class="st4" d="M1156.74 335.52c8.21 1.69 16.42 3.37 24.62 5.06 1.89.39 2.69-2.5.8-2.89-8.21-1.69-16.42-3.37-24.62-5.06-1.89-.39-2.7 2.5-.8 2.89zM897.95 121.7c28.9 30.85 57.8 61.69 86.7 92.54 36.11 38.54 72.22 77.08 108.32 115.63 1.41 1.51 2.83 3.02 4.24 4.52 1.33 1.41 3.44-.71 2.12-2.12-28.9-30.85-57.8-61.69-86.7-92.54-36.11-38.54-72.22-77.08-108.32-115.63-1.41-1.51-2.83-3.02-4.24-4.52-1.32-1.41-3.44.71-2.12 2.12zm114.12 195.87c4.19 33.64 30.43 56.38 59.23 70.7 1.73.86 3.25-1.73 1.51-2.59-27.71-13.78-53.7-35.6-57.75-68.11-.23-1.89-3.23-1.92-2.99 0zm75.34-62.61c15.65 5.51 30.25 13.33 41.46 25.77 9.7 10.76 15.72 24.29 21.23 37.52.73 1.76 3.64.99 2.89-.8-5.62-13.48-11.71-26.77-21.25-37.98-11.37-13.38-27.21-21.65-43.54-27.4-1.83-.65-2.61 2.25-.79 2.89zm-13.45 133.08l19.87-19.03c1.4-1.34-.72-3.46-2.12-2.12l-19.87 19.03c-1.4 1.33.72 3.45 2.12 2.12zm62.41-55.98c5.13-4.38 10.26-8.77 15.39-13.15 1.47-1.26-.66-3.37-2.12-2.12-5.13 4.38-10.26 8.77-15.39 13.15-1.47 1.26.66 3.37 2.12 2.12z"/><path class="st4" d="M1071.84 388.6c6.62 7.56 13.25 15.11 19.87 22.67 1.28 1.46 3.39-.67 2.12-2.12-6.62-7.56-13.25-15.11-19.87-22.67-1.28-1.46-3.39.67-2.12 2.12zm78.94-69.46c9.51 6.53 19.03 13.06 28.55 19.59 1.6 1.1 3.1-1.5 1.51-2.59-9.51-6.53-19.03-13.06-28.55-19.59-1.59-1.09-3.09 1.51-1.51 2.59z"/></g><g id="hammer"><path class="st4" d="M1043.41 760.29c20.94-25.1 40.67-51.19 61.78-76.16.88-1.05.08-3.05-1.46-2.51-2.01.71-8.08 3.24-5.06 6.26 2.33 2.33 5.66-2.58 6.76-4.06.79-1.07-.51-2.59-1.69-2.2-5.05 1.66-15.19 3.9-18.68-1.59-2.63-4.13 1.24-11.37 3.28-14.92 2.19-3.8 4.91-7.28 7.22-11.01.5-.81.04-1.98-.9-2.2-7.21-1.71-1.48 9.01 1.05 1.84.33-.94-.52-1.89-1.45-1.9-6.8-.05-13.65 1.39-20.36-.34-12.91-3.34-2.38-17.76-.09-25.12.34-1.11-.77-2.14-1.84-1.84-6.2 1.68.7 8.01 1.84 1.84.22-1.19-1.01-2.49-2.2-1.69-6.63 4.44-16.04 11.53-24.13 6.63-5.89-3.57-6.13-13.7-8.12-19.58-.34-1.02-1.7-1.54-2.51-.66-4.55 4.97 5.51 6.29 2.36.3-.42-.8-1.75-1.04-2.36-.3-4.46 5.45-6.92 16.29-15.09 17.04-7.45.69-16.49-6.54-19.58-12.88-.46-.94-2.16-1.02-2.59 0-3.02 7.11 8.42 3.1 2.05-.54-.87-.5-1.91-.03-2.2.9-1.98 6.24-.8 13.34-4.03 19.17-4.88 8.79-19.36 5.53-26.6 2.46-.91-.39-2.4.02-2.26 1.29.87 7.7 8.96-1.43 1.5-1.5-.91-.01-1.79.98-1.45 1.9 3.08 8.13 7.66 17.21 2.93 25.63-3.86 6.87-12.81 9.93-19.91 11.91-1.12.31-1.42 1.69-.66 2.51 5.18 5.61 6-7.48 0-2.12-.75.67-.47 1.86.3 2.36 5.8 3.74 14.86 7.4 15.88 15.14 1.08 8.26-9.22 14.61-13.41 20.58-.69.98.25 2.22 1.29 2.26 6.66.26 2.63-8.03-1.29-2.26-.64.94.21 2.29 1.29 2.26 7.54-.24 20.95-4.67 24.31 5.13 2.15 6.27-2.66 14.05-3.06 20.42-.06.93 1.01 1.76 1.9 1.45 6.55-2.32-1.65-8.15-1.9-1.45-.05 1.3 1.68 2 2.56 1.06 5.39-5.73 13.92-9.22 21.78-7.76 5.99 1.11 5.31 5.62 5.85 10.53.47 4.28 1.26 8.53 2.05 12.77.22 1.17 1.74 1.37 2.51.66 4.81-4.44-3.96-7.16-2.51-.66.31 1.37 2.05 1.34 2.74.36 4.45-6.32 9.79-12.51 17.38-14.97 1.73-.56 3.55-.6 5.34-.55 3.6.09 4.59 2.26 5.55 5.28 1.07 3.37 1.78 6.79 3.1 10.08.71 1.77 3.61 1 2.89-.8-1.82-4.53-2.49-9.44-4.55-13.86-1.55-3.33-5.2-3.65-8.46-3.74-10.35-.26-18.48 9.44-23.84 17.05l2.74.36-2.51-.66 2.51.66c-1.28-6.79-2.41-13.6-2.52-20.53-.05-3.02-6.5-4.69-8.7-5.1-8.33-1.55-17.86 2.77-23.48 8.76.85.35 1.71.71 2.56 1.06-.63-.48-1.27-.96-1.9-1.45.63.48 1.27.96 1.9 1.45.51-8.14 6.47-17.02 1.22-24.71-5.48-8.04-17.67-4.08-25.47-3.83.43.75.86 1.5 1.29 2.26-.43-.75-.86-1.5-1.29-2.26.43.75.86 1.5 1.29 2.26 5.13-7.31 15.01-13.01 13.67-23.22-1.1-8.36-11.02-12.61-17.21-16.6l.3 2.36v-2.12l-.66 2.51c7.56-2.1 16.37-5.32 20.94-12.15 6.3-9.41 1.74-19.55-1.87-29.07-.48.63-.96 1.27-1.45 1.9l1.5-1.5c-.75.43-1.5.86-2.26 1.29 8.63 3.66 19.82 5.75 27.88-.35 6.97-5.27 4.83-15.73 7.16-23.08-.73.3-1.47.6-2.2.9l2.05-.54h-2.59c3.41 7.01 12.14 13.53 20 14.26 11.29 1.04 13.64-10.82 19.38-17.82l-2.36-.3 2.36.3-2.51-.66c2.52 7.45 2.77 16.22 9.5 21.37 8.33 6.38 20.29-2.04 27.15-6.63l-2.2-1.69c.62.61 1.23 1.23 1.84 1.84-.61-.62-1.23-1.23-1.84-1.84-2.6 8.34-11.68 19.34-2.19 26.71 6.88 5.34 17.6 2.49 25.53 2.55-.48-.63-.96-1.27-1.45-1.9.35.62.7 1.23 1.05 1.84-.3-.73-.6-1.47-.9-2.2-4.66 7.54-16.15 20.1-10.04 29.68 4.07 6.38 15.79 4.16 21.61 2.25l-1.69-2.2c-.63.85-1.3 1.63-2.03 2.4.3 1.29.87 1.5 1.71.63.65-.32 1.33-.6 2.02-.83-.49-.84-.97-1.67-1.46-2.51-21.11 24.97-40.84 51.06-61.78 76.16-1.2 1.44.91 3.57 2.15 2.09z"/><path class="st4" d="M1071.22 684.21c-.37 24.46-19.92 44.01-44.37 44.37-24.46.37-44.02-20.47-44.38-44.37-.37-24.46 20.47-44.02 44.38-44.37 24.45-.37 44.01 20.47 44.37 44.37.03 1.93 3.03 1.94 3 0-.32-21.33-14.28-39.72-34.78-45.68-20.57-5.99-42.61 3.78-53.5 21.77-11.11 18.36-7.28 42.3 7.41 57.41 14.95 15.38 39.06 17.81 57.41 7.41 14.62-8.28 23.22-24.34 23.46-40.91.03-1.93-2.97-1.93-3 0z"/><path class="st4" d="M1054.48 685.5c-.35 15.32-12.31 27.28-27.64 27.63-15.32.35-27.29-12.84-27.63-27.63-.35-15.32 12.84-27.29 27.63-27.63 15.32-.36 27.3 12.84 27.64 27.63.04 1.93 3.04 1.94 3 0-.39-16.97-13.66-30.24-30.64-30.63-16.97-.39-30.26 14.25-30.63 30.63-.39 16.97 14.25 30.25 30.63 30.63 16.97.39 30.26-14.25 30.64-30.63.04-1.93-2.96-1.93-3 0zm-12.35 76.67c6.33-.21 12.66-.43 18.99-.64 1.93-.07 1.94-3.07 0-3-6.33.21-12.66.43-18.99.64-1.92.07-1.93 3.07 0 3zm61.28-79.08c.54 6.98 1.07 13.95 1.61 20.93.15 1.92 3.15 1.93 3 0-.54-6.98-1.07-13.95-1.61-20.93-.15-1.92-3.15-1.93-3 0z"/><path class="st4" d="M1100.5 713.77c2.34-2.91 4.74-5.78 7.08-8.69 1.2-1.49-.91-3.63-2.12-2.12-2.34 2.91-4.74 5.78-7.08 8.69-1.21 1.49.9 3.62 2.12 2.12zm-38.31 47.32c3.32-4.08 7.3-7.51 10.62-11.59 1.21-1.49-.9-3.62-2.12-2.12-3.32 4.08-7.3 7.51-10.62 11.59-1.21 1.49.9 3.62 2.12 2.12z"/><path class="st4" d="M1111.34 745.75c-9 12.92-28.76 14.11-38.53 1.63-1.19-1.52-3.3.62-2.12 2.12 11.05 14.12 33.25 12.1 43.24-2.24 1.11-1.59-1.49-3.09-2.59-1.51zm-13.83-13.79c17.6-.35 35.2-.71 52.79-1.06 1.93-.04 1.94-3.04 0-3-17.6.35-35.2.71-52.79 1.06-1.93.04-1.93 3.04 0 3z"/><path class="st4" d="M1098.48 746.37l48.95-1.74c1.93-.07 1.94-3.07 0-3l-48.95 1.74c-1.93.07-1.94 3.07 0 3zm-.1-32.6c2.73 2.49 5.27 5.16 7.62 8.01.62.75 5.1 5.93 4.37 7.12-1.01 1.66 1.58 3.16 2.59 1.51 1.29-2.11-.74-4.98-1.84-6.7-2.87-4.5-6.7-8.48-10.62-12.07-1.43-1.3-3.56.82-2.12 2.13zm-2.75 16.41c-3.71 4.89-2.82 11.53 1.71 15.55 1.44 1.28 3.57-.83 2.12-2.12-3.63-3.22-4.19-8.03-1.24-11.92 1.17-1.54-1.44-3.03-2.59-1.51zm-13.25 10.97c4.4-5.79 8.8-11.59 13.2-17.39 1.17-1.54-1.44-3.03-2.59-1.51-4.4 5.79-8.8 11.59-13.2 17.39-1.17 1.54 1.44 3.03 2.59 1.51z"/><path class="st4" d="M1079.79 741.15c2.9 5.74 13.67 8.43 19.4 6.16 1.78-.7 1-3.6-.8-2.89-4.53 1.79-13.7-.2-16.01-4.78-.87-1.73-3.46-.21-2.59 1.51zm23.35-12.43c-.71-1.91-1.67-3.74-3.3-5.01-1.16-.9-2.48-1.39-3.86-1.84-1.84-.6-2.63 2.3-.8 2.89.94.3 1.81.61 2.64 1.16 1.22.8 1.94 2.27 2.43 3.59.66 1.81 3.57 1.03 2.89-.79zm42.84 14.81c1.45 6.59 8.25 9.2 14.38 8.28 1.91-.28 1.09-3.17-.8-2.89-4.6.69-9.61-1.31-10.69-6.19-.41-1.89-3.3-1.08-2.89.8zm3.47-14.41c.29 9.17 8.2 15.12 16.95 15.34 1.94.05 1.93-2.95 0-3-7.08-.18-13.71-4.83-13.95-12.34-.07-1.93-3.07-1.93-3 0z"/><path class="st4" d="M1166.57 744.4c4.48-1.12 12.86-1.83 14.8 3.8.63 1.82 3.52 1.04 2.89-.8-2.56-7.43-12.16-7.48-18.49-5.89-1.87.46-1.08 3.36.8 2.89z"/><path class="st4" d="M1178.1 742.97l21.89-14.81c1.59-1.08.09-3.68-1.51-2.59l-21.89 14.81c-1.6 1.08-.1 3.68 1.51 2.59zm-10.84-.1c11.66-8.23 23.32-16.46 34.98-24.68 1.57-1.11.07-3.71-1.51-2.59-11.66 8.23-23.32 16.46-34.98 24.68-1.57 1.1-.07 3.71 1.51 2.59z"/><path class="st4" d="M1217.49 727.69c.7-7.48-7.84-11.6-14-12.57-1.89-.3-2.7 2.59-.8 2.89 4.82.76 12.36 3.59 11.79 9.68-.17 1.93 2.83 1.91 3.01 0zm-38.75 26.55c7.51-5.37 15.02-10.73 22.54-16.1 1.56-1.11.06-3.72-1.51-2.59-7.51 5.37-15.02 10.73-22.54 16.1-1.56 1.11-.06 3.72 1.51 2.59zm21.83-26.14c1.84-1.15 3.98.25 5.1 1.78 1.13 1.54 3.74.05 2.59-1.51-2.07-2.82-5.86-4.95-9.2-2.86-1.64 1.02-.14 3.62 1.51 2.59zm6.09 11.89l44.16-10.38c1.88-.44 1.08-3.33-.8-2.89l-44.16 10.38c-1.88.44-1.08 3.33.8 2.89z"/><path class="st4" d="M1197.05 729.62c.11 5.13 3.55 9.82 8.94 10.02 1.94.07 1.93-2.93 0-3-3.72-.14-5.86-3.58-5.94-7.02-.04-1.93-3.04-1.94-3 0zm10.33 1.75c12.33-2.63 24.67-5.25 37-7.88 1.89-.4 1.09-3.29-.8-2.89-12.33 2.63-24.67 5.25-37 7.88-1.89.4-1.09 3.29.8 2.89zm45.17-2.9c6.83-7.38 6.98-18.28-.11-25.52-1.36-1.38-3.48.74-2.12 2.12 5.94 6.06 5.82 15.1.11 21.28-1.31 1.42.81 3.54 2.12 2.12z"/><path class="st4" d="M1246.03 722.48c4.83-3.15 3.48-9.78 1.19-14.1-.91-1.71-3.5-.19-2.59 1.51 1.43 2.69 3.15 7.87-.11 10-1.62 1.05-.12 3.65 1.51 2.59zm-44.14-4.15l16.74-3.54c1.89-.4 1.09-3.29-.8-2.89l-16.74 3.54c-1.89.4-1.09 3.29.8 2.89zm13.38 2.4c4.29-.69 8.57-1.37 12.85-2.06 1.91-.3 1.09-3.2-.8-2.89-4.29.69-8.57 1.37-12.85 2.06-1.91.3-1.09 3.19.8 2.89zm45.94-31.98c4.18 10.88 6.17 26.33-6.71 32-1.77.78-.24 3.36 1.51 2.59 14.11-6.21 12.75-23.28 8.09-35.39-.69-1.79-3.59-1.01-2.89.8z"/><path class="st4" d="M1256.25 693.03c1.74 4.52 4.65 12.76-1.23 15.48-1.75.81-.23 3.4 1.51 2.59 7.32-3.39 4.87-13.01 2.61-18.87-.68-1.78-3.58-1.01-2.89.8zm-18.06 28.42c-4.71-.71-7.89-2.38-10.37-6.47-1-1.65-3.6-.15-2.59 1.51 2.87 4.73 6.69 7.03 12.16 7.85 1.89.28 2.7-2.61.8-2.89zm21.3-42.15c.57 3.15 1.14 6.3 1.72 9.45.35 1.9 3.24 1.09 2.89-.8-.57-3.15-1.14-6.3-1.72-9.45-.34-1.9-3.23-1.09-2.89.8z"/><path class="st4" d="M1087.75 494.54c31.09 33.37 62.18 66.73 93.27 100.1l78.31 84.04c1.32 1.42 3.44-.71 2.12-2.12-31.09-33.37-62.18-66.73-93.27-100.1l-78.31-84.04c-1.32-1.42-3.43.7-2.12 2.12zm-42.17 37.66c31.38 33.53 62.77 67.06 94.15 100.6 25.03 26.74 50.05 53.48 75.08 80.22 1.32 1.42 3.44-.71 2.12-2.12-31.38-33.53-62.77-67.06-94.15-100.6-25.03-26.74-50.05-53.48-75.08-80.22-1.32-1.41-3.44.71-2.12 2.12zm200.05 181.45c-3.49 1.39-7.41.71-9.15-2.88-.84-1.74-3.43-.22-2.59 1.51 2.28 4.71 7.88 6.12 12.54 4.26 1.77-.7 1-3.6-.8-2.89zM1018.22 508.7l21.03 23.61c1.29 1.45 3.4-.68 2.12-2.12l-21.03-23.61c-1.29-1.45-3.41.68-2.12 2.12zm45.71-41.53c7.83 8.12 15.67 16.24 23.5 24.36 1.34 1.39 3.46-.73 2.12-2.12-7.83-8.12-15.67-16.24-23.5-24.36-1.34-1.39-3.46.73-2.12 2.12z"/><path class="st4" d="M1041.17 532.96c24.15-.33 48.36-16.58 48.82-42.49.03-1.94-2.97-1.93-3 0-.44 24.26-23.34 39.19-45.82 39.49-1.93.03-1.94 3.03 0 3zm-21.25-23.5c24.04-.34 46.76-17.27 47.21-42.6.03-1.94-2.97-1.93-3 0-.42 23.68-21.83 39.28-44.21 39.6-1.93.03-1.93 3.03 0 3zm-49.78-127.81l82.84 85.42c1.35 1.39 3.47-.73 2.12-2.12l-82.84-85.42c-1.35-1.4-3.47.73-2.12 2.12zm-5.78-54.02c-34.14 13.25-64.53 33.75-86.93 62.98-25.75 33.6-38.42 75.36-45.03 116.64-.3 1.89 2.59 2.7 2.89.8 6.48-40.46 18.77-80.66 43.29-114.01 21.75-29.57 52.62-50.34 86.58-63.51 1.78-.7 1.01-3.6-.8-2.9zm6.26 6.3c-.48 15.24-.95 30.49-1.43 45.73-.06 1.94 2.94 1.93 3 0 .48-15.24.95-30.49 1.43-45.73.06-1.94-2.94-1.93-3 0z"/><path class="st4" d="M973.18 332.02c-1.08-3.44-4.47-5.32-7.97-4.47-1.88.46-1.08 3.35.8 2.89 1.88-.46 3.7.51 4.29 2.38.56 1.84 3.46 1.05 2.88-.8zm-28.14 87.04c-21.07 6.51-40.34 17.19-56.78 31.92-18.04 16.15-31.62 36.74-41.98 58.48-.83 1.74 1.76 3.26 2.59 1.51 9.91-20.8 22.68-40.11 39.48-56 16.28-15.41 36.13-26.42 57.49-33.02 1.84-.57 1.06-3.47-.8-2.89z"/><path class="st4" d="M833.12 509.08c2.44 5.3 8.97 6.04 13.93 4.22 1.8-.66 1.02-3.56-.8-2.89-3.76 1.38-8.64 1.29-10.54-2.84-.81-1.76-3.39-.23-2.59 1.51zm111.26-87.52l76.73 76.19c1.37 1.36 3.5-.76 2.12-2.12l-76.73-76.19c-1.37-1.36-3.49.76-2.12 2.12z"/><path class="st4" d="M1020.41 497.26l-2.58 9.98c-.48 1.87 2.41 2.67 2.89.8l2.58-9.98c.48-1.88-2.41-2.67-2.89-.8zm34.92-28.68c3.22-.32 6.44-.64 9.66-.97 1.91-.19 1.92-3.19 0-3-3.22.32-6.44.64-9.66.97-1.9.19-1.92 3.19 0 3z"/><path class="st4" d="M1022.5 498.84c18-.38 32.96-13.9 33.37-32.21.04-1.94-2.96-1.93-3 0-.38 16.67-14.03 28.87-30.37 29.21-1.93.04-1.94 3.04 0 3zm-52.25-159.99c-26.87 21.23-52.61 43.87-73.9 70.83-23.57 29.85-41.36 63.8-58.01 97.84-.85 1.73 1.74 3.25 2.59 1.51 16.54-33.83 34.23-67.49 57.54-97.23 21.17-27.02 47.06-49.63 73.9-70.83 1.52-1.19-.62-3.3-2.12-2.12zm-21.64 81.79c-2.55-12.93-2.05-25.2-.91-38.23.17-1.93-2.83-1.91-3 0-1.16 13.3-1.58 25.86 1.02 39.03.37 1.9 3.27 1.09 2.89-.8zm-2.01-36.78c8.65-1.43 16.96-1.41 25.68-.91 1.93.11 1.92-2.89 0-3-8.99-.51-17.57-.45-26.47 1.02-1.91.31-1.1 3.2.79 2.89zm278.68 326.54c16.04-3.12 30.06-15.63 34.96-31.09.59-1.85-2.31-2.63-2.89-.8-4.6 14.51-17.85 26.08-32.86 29-1.91.37-1.1 3.26.79 2.89zm-8.07 3.74l8.31 1.8c1.89.41 2.69-2.48.8-2.89l-8.31-1.8c-1.89-.41-2.7 2.48-.8 2.89z"/><path class="st4" d="M1235.94 712.82c9.69-4.13 17.03-9.29 22.34-18.57.96-1.68-1.63-3.19-2.59-1.51-5.07 8.86-12.07 13.57-21.26 17.49-1.78.76-.25 3.34 1.51 2.59zm-66.42 51.17c6.36 5.84 18.82-6.02 24.21-9.87 7.45-5.32 14.9-10.65 22.36-15.97 1.56-1.11.06-3.72-1.51-2.59l-17.74 12.67c-3.44 2.46-21 17.49-25.19 13.64-1.43-1.31-3.56.81-2.13 2.12zm-11.18-13.73c-4.88 7.81 2.25 17.73 11.14 15.72 1.89-.43 1.09-3.32-.8-2.89-6.44 1.45-11.17-5.85-7.75-11.32 1.03-1.64-1.57-3.15-2.59-1.51z"/><path class="st4" d="M1179.91 749.04c-8.73-3.51-17.71 5.42-12.56 13.9 1 1.65 3.6.14 2.59-1.51-1.59-2.61-1.54-5.56.48-7.93 2.22-2.61 5.71-2.75 8.69-1.56 1.8.71 2.57-2.19.8-2.9zm-387.65-386.5c5.54-4.2 11.08-8.41 16.61-12.61l7.59-5.76c.16-.12.32-.24.47-.36-.95.72-.78.18.9.46 1.92.32 3.85.64 5.78.95.98.16 1.85-.4 1.9-1.45.06-1.29.12-2.58.17-3.86.04-.78.07-1.56.11-2.35.05-1.21-.94.94 0 .1 2.82-2.52 5.63-5.04 8.45-7.56 1.46-1.31 2.92-2.62 4.39-3.93.37-.34.75-.67 1.12-1.01.97-.87-1.19.07-.21.07h9.7c.79 0 1.54-.68 1.5-1.5l-.18-3.58c-.04-.9-.09-1.79-.13-2.68-.08-1.66.41-1.51-.47-.81 2.46-1.97 4.93-3.93 7.39-5.9 1.37-1.09 2.74-2.18 4.11-3.28.44-.35.88-.7 1.31-1.05 1.08-.86-1.05-.01-.12.1l9.89 1.23c.79.1 1.53-.76 1.5-1.5l-.39-9.26c.05 1.2-.29.82 1.1-.26 1.53-1.19 3.07-2.38 4.6-3.57l17.55-13.62c.61-.47.57-1.64 0-2.12-8.96-7.45-17.93-14.9-26.89-22.35-9.33-7.76-26.86-.96-36.38 3.31-17.09 7.67-32.48 20.18-44.67 34.3-8.55 9.9-18.54 23.81-16.4 37.7.1.65.84 1.1 1.45 1.1-1.27 0-1.58-1.27-.69.34.65 1.17 1.31 2.35 1.96 3.52 1.9 3.4 3.79 6.81 5.69 10.21 2.91 5.23 5.83 10.45 8.74 15.68.94 1.69 3.53.18 2.59-1.51-5.67-10.17-11.33-20.33-17-30.5-.26-.46-.77-.74-1.29-.74.48.37.96.73 1.45 1.1-2.12-13.72 9.42-27.91 17.88-37.34 11.62-12.96 26-23.95 41.81-31.27 7.04-3.26 14.7-5.63 22.49-5.97 1.87-.08 7.11-.43 8.43.67 1.24 1.03 2.47 2.06 3.71 3.08 8.33 6.93 16.67 13.85 25.01 20.78v-2.12c-6.08 4.72-12.16 9.44-18.24 14.15-1.38 1.07-5.33 3.03-5.84 4.89-.77 2.8.22 6.87.34 9.78l1.5-1.5c-3.4-.42-6.81-.85-10.21-1.27-1.83-.23-5.11 3.56-6.33 4.54-2.74 2.18-5.47 4.37-8.21 6.55-1.54 1.23-.12 7.4-.03 9.15l1.5-1.5h-10.02c-2.1 0-5 3.87-6.38 5.1-3.13 2.8-6.26 5.61-9.39 8.41-1.62 1.45-.84 6.07-.93 8.03.63-.48 1.27-.96 1.9-1.45-1.8-.3-7.38-2.33-8.95-1.14-2.21 1.68-4.43 3.36-6.64 5.04-6.02 4.57-12.05 9.14-18.07 13.71-1.57 1.19-.07 3.8 1.47 2.63zM932.8 293.9c.98 3.63-.04 6.33-2.69 8.9-1.1 1.07-6.97 4.18-7.66 3.55-1.97-1.8-3.93-3.6-5.9-5.41-.66-.6-1.46-.53-2.12 0l-17.27 13.7c-2.21 1.76-4.43 3.51-6.64 5.27 1.04-.82-1.95-.89-2.89-1.09l-5.15-1.08c-.95-.2-1.89.43-1.9 1.45-.01 2.74-.24 5.48-.37 8.22-.07 1.39.85-.08-.45.9-1.48 1.12-2.95 2.24-4.43 3.36-2.8 2.12-5.6 4.25-8.4 6.37.72-.54 1.3-.07-.2-.35-1.22-.23-2.44-.45-3.66-.68-1.02-.19-2.02-.39-3.05-.51-.63-.08-1.31.51-1.45 1.1-.58 2.55-1.15 5.1-1.73 7.66-.34 1.53 1.36 2.41 2.51 1.46.11-.09.22-.19.33-.28l-2.12-2.12-12.35 10.49c-.64.55-1.28 1.09-1.92 1.64-.17.15-.33.29-.5.45-1.28 1.17.46.4-.3.3l-8.18-1.02c-.84-.11-1.46.76-1.5 1.5l-.39 7.44c.06-1.16.43-.99-.44-.29l-1.74 1.41-15.15 12.27c-2.08 1.68-8.02 4.66-7.52 7.83.37 2.39 1.63 4.81 2.45 7.09 2.37 6.57-6.57 10.2-11.7 9.34-1.05-.18-2.23.66-1.84 1.84.01.04.03.09.04.13.91-.38 1.83-.77 2.74-1.16-25.08-36.46-49.81-73.32-70.62-112.43-3.64-6.84-7.16-13.75-10.62-20.68-1.7-3.4-3.38-6.81-5.06-10.23-1.51-3.07-6.44-9.82-4.89-13.16 1.24-2.67 8.74-6.48 10.71-4 1.42 1.79 2.85 3.59 4.28 5.38 4.81 6.05 9.62 12.11 14.44 18.16 3.96 4.98 7.92 9.96 11.88 14.95 3.65 4.59 12.41.49 16.78-1.51 8.7-3.98 14.78-12.36 15.44-21.89.26-3.7-4.31-8.01-6.24-10.83-6.92-10.09-13.61-20.4-20.81-30.29-1.71-2.35 5.23-8.11 7.79-5.35 1.44 1.55 2.88 3.1 4.31 4.65 5.22 5.62 10.44 11.25 15.66 16.88 3.77 4.07 7.54 8.13 11.32 12.2 1.68 1.81 5.56.45 7.71.11 5.57-.9 10.88-3.4 15.33-6.82 3.52-2.71 6.23-6.27 8.04-10.31.96-2.16 3.06-7.99 1.32-10.13-3.08-3.78-6.16-7.57-9.23-11.35-4.95-6.09-9.91-12.18-14.86-18.28-1.42-1.75-2.85-3.5-4.27-5.25-3.38-4.15 3.86-8.31 7.44-8.53 2.06-.13 6.37 4.17 8.08 5.39 3.02 2.14 6.01 4.31 9 6.49 6.25 4.57 12.41 9.27 18.49 14.08 9.34 7.38 18.41 15.1 27.17 23.15 23.53 21.61 43.34 46.52 64.74 70.12 1.3 1.44 3.42-.69 2.12-2.12-12-13.23-23.39-26.99-35.33-40.27-13.62-15.13-28.19-29.31-43.72-42.48-9.87-8.38-20.11-16.31-30.51-24-6.06-4.48-12.21-8.84-18.4-13.14-2.56-1.78-7.71 1.33-9.62 2.87-4.49 3.63-3.58 8.12-.55 11.85 4.39 5.4 8.78 10.79 13.17 16.19 4.28 5.26 8.56 10.52 12.83 15.78 1.8 2.22 1 3.02.19 6.22-1.58 6.24-6.62 10.98-11.99 14.1-2.72 1.58-5.74 2.54-8.79 3.28-.88.21-5.88 1.33-6.1 1.09-1.32-1.42-2.64-2.85-3.96-4.27-5.16-5.56-10.32-11.12-15.48-16.69-3.94-4.24-7.87-8.49-11.81-12.73-3.97-4.28-10.93-.33-12.56 4.61-.84 2.55-.71 3.27.67 5.29 1.29 1.88 2.58 3.75 3.87 5.63 4.38 6.37 8.75 12.75 13.13 19.12 2.99 4.35 5.98 8.71 8.97 13.06.6.88-.54 4.16-.8 5.19-.74 2.95-2.39 5.63-4.28 7.98-4.1 5.08-10.27 7.96-16.52 9.31-1.79.39-3.61.49-5.43.56.77-.03 1.3.76.9.26l-1.05-1.32c-1.69-2.13-3.38-4.25-5.07-6.38l-14.81-18.62-10.72-13.48c-3.72-4.68-12.97.93-15.42 4.61-2.17 3.25-.04 6.11 1.42 9.1 1.86 3.8 3.72 7.6 5.59 11.4 3.44 6.97 6.93 13.91 10.51 20.81 21.43 41.26 47.35 79.96 73.66 118.22.92 1.33 3.3.55 2.74-1.16-.01-.04-.03-.09-.04-.13l-1.84 1.84c3.96.67 8.25.24 11.44-2.47 2.46-2.08 5.59-6.01 4.32-9.53-.91-2.53-1.83-5.06-2.74-7.59-.25-.7-1.05.82.21-.21l3.17-2.57c5.99-4.85 11.99-9.7 17.98-14.56.81-.66 3.16-1.98 3.45-3.06.67-2.43.32-5.48.45-7.99l-1.5 1.5 8.18 1.02c1.49.19 2.43-1.21 3.48-2.1 4.57-3.89 9.15-7.77 13.72-11.66 1.48-1.26-.65-3.35-2.12-2.12-.11.09-.22.19-.33.28.84.49 1.67.97 2.51 1.46.58-2.55 1.15-5.1 1.73-7.66-.48.37-.96.73-1.45 1.1 1.79.22 6.8 2.35 8.36 1.17l9.22-7c1.44-1.1 5.44-3.03 5.54-5.25.15-3.07.41-6.16.42-9.24-.63.48-1.27.96-1.9 1.45 3.03.64 6.27 1.77 9.37 1.85 2.18.06 4.65-2.89 6.2-4.12l19.29-15.3h-2.12c2.93 2.69 5.4 6.63 9.66 5.88 7.62-1.34 13.71-8.02 11.6-15.84-.51-1.88-3.4-1.09-2.9.78zM792.49 397.7c-2.12 1.18-4.25 2.36-6.37 3.53-4.19 2.33-11.19-4.84-13.21-7.85-1.71-2.55-4.69-9.73-1.83-12.22 2.24-1.95 4.49-3.9 6.73-5.86 1.46-1.27-.67-3.38-2.12-2.12-2.48 2.16-5.74 4.23-7.75 6.84-2.85 3.71.36 11.41 2.38 14.88 3.14 5.41 8.95 8.71 14.98 9.69 2.44.4 6.71-3.19 8.71-4.3 1.69-.93.18-3.52-1.52-2.59z"/><path class="st4" d="M912.78 268.09c2.03-1.18 4.06-2.37 6.09-3.55 1.76-1.03 1.52-1.09 3.58-.67 3.15.64 5.84 2.6 8.08 4.79 1.93 1.89 3.24 4.35 4.17 6.85.55 1.5 1.79 6.05.63 7.31-1.74 1.89-3.49 3.78-5.23 5.68-1.31 1.42.81 3.55 2.12 2.12 1.46-1.59 5.61-4.55 5.97-6.73.9-5.46-.43-11.03-3.89-15.41-2.76-3.49-9.4-9.33-14.45-7.94-2.93.81-5.96 3.42-8.58 4.94-1.67.99-.16 3.59 1.51 2.61zM710.77 136.23c3.91-3.51 7.82-7.01 11.73-10.52 1.44-1.29-.69-3.41-2.12-2.12-3.91 3.51-7.82 7.01-11.73 10.52-1.44 1.3.69 3.41 2.12 2.12zm20.49-20.88c-.13 2.96-.25 5.91-.38 8.87-.08 1.94 2.92 1.93 3 0 .13-2.96.25-5.91.38-8.87.08-1.93-2.92-1.93-3 0z"/><path class="st4" d="M676.48 220.68C652.67 193.25 630 154.05 645 117.04c10.66-26.33 39.16-40.31 66.53-39.33 31.84 1.14 58.05 22.25 72.94 49.33.93 1.7 3.52.18 2.59-1.51-15.41-28.02-42.04-48.91-74.69-50.78-26.29-1.5-53.09 10.88-66.57 33.92-22.63 38.7 2.77 84.42 28.55 114.14 1.27 1.46 3.39-.67 2.13-2.13z"/><path class="st4" d="M659.4 233.63c-27.54-28.46-48.34-67.07-39.26-107.64 6.85-30.64 30.62-55.4 60.05-65.51 20.02-6.88 41.87-6.23 61.63 1.2 25.04 9.42 44.34 29.58 58.03 52.01 1.01 1.65 3.6.14 2.59-1.51-18.93-30.99-48.26-55.95-85.55-59.23-29.91-2.63-59.92 10.34-79.53 32.83-16.04 18.4-23.83 42.62-22.19 66.89 2.17 32.05 20.3 60.54 42.11 83.08 1.34 1.39 3.46-.73 2.12-2.12zm-2-162.78c-.07-5.41-.15-10.83-.22-16.24-.07-5.21-2.18-14.1 2.88-17.59 5.59-3.86 11.67 4.87 15.34 8.21l12.01 10.93c1.43 1.3 3.55-.82 2.12-2.12-4.95-4.5-9.9-9.01-14.85-13.51-4.19-3.81-8.54-9.79-15.04-6.63-6.78 3.29-5.61 9.71-5.53 15.97.1 7 .19 13.99.29 20.99.03 1.92 3.03 1.93 3-.01zm47.05-16.63c2.65-4.34 5.3-8.68 7.96-13.02 2.65-4.34 5.43-12.29 10.73-14.01 7.96-2.58 8.88 10.38 10.18 15.05 1.45 5.22 2.89 10.44 4.33 15.65.52 1.86 3.41 1.07 2.89-.8-1.79-6.45-3.57-12.9-5.36-19.34-1.53-5.53-2.16-13.39-9.76-13.65-7.48-.26-9.79 6.04-13.1 11.47-3.49 5.71-6.98 11.42-10.46 17.13-1.02 1.67 1.58 3.17 2.59 1.52zm51.96 12.57c4.6-2.16 9.21-4.33 13.81-6.49 4.54-2.13 11.04-7.05 16.26-5.85 8.5 1.94 1.97 13.84.51 18.35-1.67 5.15-3.33 10.3-5 15.45-.6 1.85 2.3 2.63 2.89.8 2.06-6.37 4.12-12.73 6.17-19.1 2.02-6.24 5.21-11.8-.96-16.93-5.2-4.32-11.31-.06-16.22 2.25-6.33 2.98-12.66 5.95-18.99 8.93-1.73.82-.21 3.41 1.53 2.59z"/><path class="st4" d="M622.9 110.31c-2.68-4.7-5.37-9.4-8.05-14.1-2.59-4.53-8.71-11.26-5.97-16.77 3.02-6.07 12.55-1.38 17.41-.22 5.27 1.25 10.54 2.5 15.8 3.76 1.88.45 2.68-2.45.8-2.89-6.51-1.55-13.02-3.1-19.53-4.64-5.52-1.31-12.19-4.43-16.36 1.48-4.35 6.17-.19 11.23 2.91 16.67 3.47 6.08 6.94 12.15 10.41 18.23.95 1.67 3.54.16 2.58-1.52zm-4.93 50.86c-4.58-2.22-9.15-4.44-13.73-6.65-4.48-2.17-11.77-4.03-14.68-8.37-5.42-8.06 8.96-10.85 13.42-12.57 5.05-1.95 10.1-3.89 15.16-5.84 1.79-.69 1.01-3.59-.8-2.89-6.24 2.4-12.49 4.81-18.73 7.21-6.22 2.39-11.95 3.16-12.78 10.94-.76 7.18 7.65 9.62 12.57 12 6.02 2.92 12.04 5.83 18.07 8.75 1.72.85 3.24-1.74 1.5-2.58zm56 61c-1.04 7.5-8.56 11.5-15.63 11.02-1.93-.13-1.92 2.87 0 3 8.27.57 17.32-4.49 18.53-13.22.26-1.89-2.63-2.71-2.9-.8zm126.16-107.61c-.87 6.9-6.64 11.78-13.59 11.31-1.93-.13-1.92 2.87 0 3 8.72.59 15.52-5.87 16.59-14.31.24-1.92-2.76-1.89-3 0zM685.69 159.7l14.86-14.26c1.4-1.34-.73-3.46-2.12-2.12l-14.86 14.26c-1.4 1.34.73 3.46 2.12 2.12z"/><path class="st4" d="M755.58 93.26c-6.21 5.3-12.41 10.61-18.61 15.91-1.34 1.14-4.93 3.13-5.43 4.98-.84 3.07.22 7.53.34 10.71.63-.48 1.27-.96 1.9-1.45-3.44-.47-6.88-.94-10.31-1.42-2.26-.31-5.56 3.99-7.02 5.28-2.33 2.05-6.43 4.43-8.01 7.14-1.24 2.12.09 7.25.2 9.66l1.5-1.5h-10.12c-2.22 0-5.69 5.01-7.07 6.36-2.86 2.83-5.73 5.65-8.59 8.48-1.67 1.64-.82 6.55-.91 8.71.63-.48 1.27-.96 1.9-1.45-2.05-.37-7.46-2.52-9.25-1.03-2.06 1.72-4.12 3.44-6.17 5.16l-18.5 15.47c-1.49 1.24.65 3.35 2.12 2.12 5.47-4.58 10.95-9.15 16.42-13.73 2.6-2.17 5.19-4.34 7.79-6.51.14-.12.29-.24.44-.36-1.2 1-1.4.37.59.73l5.77 1.05c.98.18 1.86-.41 1.9-1.45.06-1.56.13-3.11.19-4.67l.09-2.26c.05-1.19-.92 1.01-.05.15 2.8-2.76 5.6-5.52 8.39-8.28 1.4-1.38 2.8-2.76 4.19-4.14.39-.39.78-.77 1.18-1.16.87-.85.59-.19-.31-.19h10c.79 0 1.54-.68 1.5-1.5-.13-2.92-.27-5.85-.4-8.77.03.74-.75 1.2.01.53.59-.52 1.18-1.04 1.77-1.55 1.61-1.41 3.21-2.82 4.82-4.23 1.54-1.35 3.08-2.71 4.62-4.06l1.23-1.08c1.11-.98-1.62-.1-.56.04l9.87 1.35c.92.13 1.94-.37 1.9-1.45l-.39-10.2c.03.79-.76 1.22.04.53.45-.38.89-.76 1.34-1.14l4.54-3.88c5.77-4.93 11.53-9.86 17.3-14.79 1.44-1.25-.69-3.36-2.15-2.11zm22.65 24.27l-17.07 14.76c-2.46 2.13-4.93 4.26-7.4 6.39.25-.21.69-.23-.14-.42-.98-.23-1.96-.45-2.95-.67-1.76-.4-3.52-.81-5.29-1.21-.95-.22-1.9.44-1.9 1.45-.01 3.11-.25 6.23-.39 9.33-.05 1.13.36.32-.66 1.16-1.59 1.32-3.18 2.63-4.78 3.95-2.84 2.35-5.67 4.7-8.51 7.04.93-.77 1.83-.26.27-.57l-3.4-.69c-1.22-.25-2.43-.51-3.67-.68-.62-.08-1.33.52-1.45 1.1l-1.77 8.57c-.31 1.47 1.37 2.5 2.51 1.46l.34-.31-2.12-2.12c-4.13 3.83-8.27 7.65-12.4 11.48-.76.7-1.52 1.41-2.28 2.11-.17.16-.33.31-.49.48-1.36 1.35.85.55.06.45-2.8-.38-5.6-.77-8.4-1.15-.99-.13-1.85.38-1.9 1.45l-.27 5.69c-.04.89-.08 1.77-.13 2.66.05-1.01.51-1.08-.36-.31l-6.64 5.86c-6.07 5.36-12.14 10.71-18.21 16.07-1.45 1.28.68 3.4 2.12 2.12l18.87-16.65c2.14-1.89 4.21-3.92 6.47-5.65 1.97-1.5 1.04-7.55 1.15-9.79-.63.48-1.27.96-1.9 1.45l8.76 1.2c1.65.23 2.73-1.51 3.84-2.54 4.61-4.27 9.22-8.53 13.82-12.8 1.42-1.32-.7-3.42-2.12-2.12l-.34.31c.84.49 1.67.97 2.51 1.46l1.77-8.57c-.48.37-.96.73-1.45 1.1 2.08.28 6.64 2.46 8.56 1.33 3.18-1.86 6.04-4.98 8.87-7.32 1.61-1.33 6.16-3.72 6.27-6.23.15-3.44.42-6.9.43-10.34-.63.48-1.27.96-1.9 1.45 3.29.75 6.73 1.98 10.11 2.08 1.83.05 4.75-3.63 5.93-4.65l19.71-17.04c1.51-1.28-.62-3.39-2.08-2.13zm-139.68 92.49c-5.39.49-10.78.99-16.17 1.48-4.97.46-13.11 3-17.29-.76-5.72-5.15 3.21-12.58 6.32-16.58l9.97-12.82c1.17-1.51-.94-3.65-2.12-2.12-4.11 5.28-8.21 10.57-12.32 15.85-3.42 4.39-9.2 9.33-5.59 15.5 3.85 6.57 9.99 4.95 16.3 4.37 6.97-.64 13.93-1.28 20.9-1.91 1.91-.18 1.93-3.18 0-3.01z"/></g><g id="hand2"><path class="st4" d="M76.49 446.13c-3.98 6.33 1.59 10.35 5.71 14.22l18.5 17.42 63.31 59.62c36.9 34.75 73.8 69.5 110.7 104.24.6.57 1.21 1.13 1.81 1.7.35-.85.71-1.71 1.06-2.56h-.01c-1.91.14-1.94 3.11 0 3 21.11-1.16 37.52-17.27 39.86-38.14.42-3.75.5-6.05-2.15-8.47-1.54-1.41-3.08-2.82-4.61-4.23l-49.22-45.14c-43.54-39.92-87.07-79.85-130.61-119.78l-11.93-10.94c-3.6-3.3-6.95-6.89-12.44-3.34-1.12.72-.89 2.32.36 2.74.08.03.15.05.23.08-.37-.48-.73-.96-1.1-1.45.2 13.24-7.79 23.68-20 28.31-2.94 1.11-6.14 3.11-8.22 1.28-2.13-1.88-4.26-3.76-6.39-5.63-6.15-5.42-12.3-10.84-18.45-16.27-2.13-1.88-4.26-3.76-6.39-5.63l-1.27-1.12c.84.74 1.58-3.4 1.65-3.63.8-2.72 2.08-5.24 3.49-7.68-.91-.38-1.83-.77-2.74-1.16-1.65 4.27-3.3 8.53-4.95 12.8-.52 1.35 1.15 2.2 2.2 1.69 14.94-7.22 26.11-16.41 29.73-33.17.21-.99-.71-2.32-1.85-1.85-4.65 1.92-8.76 4.45-12.85 7.36-1.56 1.11-.22 3.51 1.51 2.59l13.08-6.93c-.61-.08-1.21-.16-1.82-.23 11.27 9.84 22.54 19.68 33.81 29.51 1.45 1.27 3.58-.85 2.12-2.12-11.27-9.84-22.54-19.68-33.81-29.51-.53-.46-1.19-.57-1.82-.23l-13.08 6.93c.5.86 1.01 1.73 1.51 2.59 3.86-2.75 7.73-5.25 12.13-7.06-.62-.61-1.23-1.23-1.85-1.85-1.44 6.65-3.86 12.72-8.36 17.89-5.31 6.1-12.82 10.03-19.99 13.49l2.2 1.69c1.65-4.27 3.3-8.53 4.95-12.8.63-1.62-1.91-2.59-2.74-1.16-2.45 4.25-4.06 8.66-5.08 13.47-.11.51-.03 1.1.39 1.46 10.48 9.24 20.97 18.48 31.46 27.73.79.69 2.23 2.53 3.43 2.53 5.51 0 11.73-2.92 16.33-5.74 9.6-5.88 14.82-16.45 14.66-27.54-.01-.7-.46-1.23-1.1-1.45-.08-.03-.15-.05-.23-.08l.36 2.74c4.68-3.03 10.47 4.4 13.65 7.32l21.25 19.48c22.15 20.31 44.29 40.62 66.44 60.93 34.76 31.88 69.52 63.75 104.27 95.62.63.57 1 .93 1.02 1.82.15 6.91-1.84 13.7-5.14 19.73-6.39 11.66-18.79 18.83-31.9 19.55v3h.01c1.24-.09 2.08-1.6 1.06-2.56-31.94-30.07-63.87-60.15-95.81-90.22-34.24-32.25-68.49-64.49-102.73-96.74-2-1.89-2.6-4.1-1.02-6.62 1.03-1.63-1.57-3.13-2.59-1.5zM33.3 529.37c9.14 11.37 18.27 22.75 27.41 34.12 1.21 1.51 3.32-.63 2.12-2.12-9.14-11.37-18.27-22.75-27.41-34.12-1.21-1.51-3.32.63-2.12 2.12zm33.31-26.23l27.44 33.83c1.22 1.5 3.33-.63 2.12-2.12l-27.44-33.83c-1.22-1.5-3.33.64-2.12 2.12z"/><path class="st4" d="M93.45 536.29c-2.44 16.08-16.05 24.86-31.68 24.64-1.94-.03-1.93 2.97 0 3 16.84.24 31.94-9.49 34.57-26.84.29-1.89-2.6-2.71-2.89-.8zm-27.74-34.97c-5.74 14.57-17.22 20.98-31.72 25.23-1.85.54-1.06 3.44.8 2.89 7.9-2.32 15.59-5.18 22.15-10.27 5.6-4.34 9.11-10.58 11.67-17.05.7-1.8-2.2-2.58-2.9-.8z"/><path class="st4" d="M56.26 506.53c3.51-1.39 6.95-2.75 10.67-3.46 1.9-.36 1.09-3.25-.8-2.89-3.72.71-7.16 2.07-10.67 3.46-1.78.7-1 3.61.8 2.89zm-20.61 20.98c1.45-4.27 3.26-7.89 6.37-11.21 1.32-1.41-.8-3.54-2.12-2.12-3.46 3.7-5.52 7.77-7.14 12.53-.63 1.84 2.27 2.62 2.89.8zm24.23 43.56l80.23 106.87c26.34 35.09 52.69 70.18 79.03 105.27 1.15 1.53 3.75.04 2.59-1.51L141.5 674.83c-26.34-35.09-52.69-70.18-79.03-105.27-1.14-1.53-3.75-.03-2.59 1.51zm.67-9.74c-2.87 2.8-2.94 6.98-.45 10.03 1.22 1.5 3.33-.64 2.12-2.12-1.47-1.8-1.16-4.21.45-5.79 1.39-1.35-.74-3.47-2.12-2.12zm40.42-21.92l81.87 106.11 78.82 102.16c1.16 1.51 3.77.02 2.59-1.51l-81.87-106.11-78.82-102.16c-1.16-1.51-3.77-.02-2.59 1.51zM262.34 747.8c-3.01 20.66-20.9 35.54-41.92 33.15-1.92-.22-1.9 2.78 0 3 22.21 2.52 41.63-13.5 44.81-35.36.28-1.88-2.61-2.7-2.89-.79z"/><path class="st4" d="M103.56 537.89c-2.08-3.35-6.14-4.47-9.63-2.61-1.71.91-.19 3.5 1.51 2.59 2.03-1.08 4.32-.4 5.52 1.53 1.03 1.64 3.62.14 2.6-1.51zM15.37 419.11c1.86-2.29 4.31-1.95 6.55-.38 1.59 1.12 3.08-1.49 1.51-2.59-3.26-2.29-7.53-2.42-10.19.85-1.2 1.48.91 3.62 2.13 2.12zm32.08-33.27c4.61 3.54 1.71 7.34-.56 10.56-2.8 3.98-5.6 7.96-8.39 11.95-4.34 6.17-8.67 12.34-13.01 18.52-1.11 1.59 1.49 3.08 2.59 1.51 5.45-7.76 10.9-15.52 16.35-23.27 4.43-6.3 13.39-15.04 4.53-21.86-1.53-1.18-3.02 1.43-1.51 2.59z"/><path class="st4" d="M35.09 458.77c-3.46-13.71-6.91-27.42-10.37-41.12-.47-1.88-3.37-1.08-2.89.8 3.46 13.71 6.91 27.42 10.37 41.12.47 1.87 3.36 1.08 2.89-.8zm-6.33-2l-8.04-31.92c-.47-1.88-3.37-1.08-2.89.8l8.04 31.92c.47 1.87 3.36 1.08 2.89-.8zM23.69 468c5.5 1.45 9.57-3.87 11.1-8.47.61-1.84-2.28-2.62-2.89-.8-.98 2.94-3.68 7.35-7.41 6.37-1.87-.49-2.67 2.41-.8 2.9z"/><path class="st4" d="M21.85 463.81c3.4 1.07 5.86-3.18 6.86-5.73.3-.76-.32-1.64-1.05-1.84-.85-.23-1.55.29-1.85 1.05-.42 1.07-1 2.08-1.8 2.91-.46.49-1.04.82-1.37.72-1.84-.58-2.63 2.32-.79 2.89zm-5.92-45.9c5.87-7.71 11.74-15.41 17.61-23.12 1.17-1.54-1.43-3.03-2.59-1.51-5.87 7.71-11.74 15.41-17.61 23.12-1.17 1.53 1.44 3.03 2.59 1.51zm-6.92-.43l22.75-28.93c1.18-1.5-.93-3.64-2.12-2.12L6.89 415.36c-1.18 1.5.93 3.64 2.12 2.12z"/><path class="st4" d="M6.45 416.42c-.47 8.71 4.25 15.66 13.33 16.13 1.93.1 1.92-2.9 0-3-7.47-.38-10.71-6.14-10.33-13.13.11-1.94-2.89-1.93-3 0zm53.17-18.41c5.32-9.86-1.33-24.08-12.74-24.74-6.17-.36-12.06 3.95-15 9.07-3.55 6.18-.86 12.9 3.78 17.54 1.37 1.37 3.49-.75 2.12-2.12-4.27-4.26-5.92-9.36-2.8-14.8 2.37-4.13 7.26-6.56 11.9-6.68 9.29-.22 14.08 12.94 10.15 20.23-.92 1.69 1.68 3.2 2.59 1.5z"/><path class="st4" d="M41.8 388.85c3.93 3.14-6.14 13.83-7.58 15.81l-10.14 13.89c-1.14 1.56 1.46 3.06 2.59 1.51 4.12-5.64 8.24-11.29 12.36-16.93 3.11-4.26 10.83-11.65 4.89-16.4-1.5-1.2-3.64.91-2.12 2.12z"/><path class="st4" d="M42.51 390.14c.31-1.38.7-2.8 1.67-3.87.99-1.1 2.47-1.22 3.86-1.13 1.93.13 1.92-2.88 0-3-2.08-.13-3.93.32-5.56 1.61-1.66 1.31-2.42 3.61-2.86 5.59-.43 1.89 2.47 2.69 2.89.8zm10.05 10.37c-1.21.41-2.35 1.02-3.56 1.4-1.38.43-3.02-.42-4.25-.94-1.79-.74-2.56 2.16-.8 2.89 1.67.7 3.47 1.38 5.3 1.05 1.43-.26 2.73-1.05 4.1-1.51 1.83-.61 1.05-3.51-.79-2.89zm-40.12 17.74c-.29 3.8 2.44 7.27 6.24 7.79 1.89.26 2.71-2.63.8-2.89-2.57-.35-4.23-2.28-4.03-4.9.14-1.93-2.86-1.92-3.01 0zm-3.71 9.89c-.26-1-.41-1.98-.41-3.01 0-.44.08-.85.2-1.28.06-.21.37-.47.13-.38 1.8-.67 1.02-3.57-.8-2.89-3.24 1.21-2.71 5.7-2.02 8.36.5 1.86 3.39 1.07 2.9-.8zm15.96 21.85c-5.56 1.41-12.43 6.32-11.3 12.84.33 1.9 3.22 1.09 2.89-.8-.81-4.71 5.51-8.21 9.21-9.15 1.87-.47 1.08-3.36-.8-2.89zm-4.52.98c-1.91-7.39-3.82-14.77-5.72-22.16-.48-1.87-3.38-1.08-2.89.8 1.91 7.39 3.82 14.77 5.72 22.16.48 1.87 3.37 1.07 2.89-.8z"/><path class="st4" d="M16.02 457.23c-2.37-9.31-4.75-18.62-7.12-27.93-.48-1.87-3.37-1.08-2.89.8 2.37 9.31 4.75 18.62 7.12 27.93.48 1.87 3.37 1.07 2.89-.8zm12.31 40.8c-4.02-12-8.03-24-12.05-36-.61-1.83-3.51-1.04-2.89.8 4.02 12 8.03 24 12.05 36 .61 1.83 3.5 1.04 2.89-.8zm4.84-5.58c-3.42-10.06-6.83-20.12-10.25-30.17-.62-1.82-3.52-1.04-2.89.8 3.42 10.06 6.83 20.12 10.25 30.17.61 1.82 3.51 1.04 2.89-.8zm20.15-2.48c-4.13-12.09-8.25-24.19-12.38-36.28-.62-1.82-3.52-1.04-2.89.8 4.13 12.09 8.25 24.19 12.38 36.28.62 1.81 3.51 1.03 2.89-.8zm-6.69-1.25c-3.5-10.39-7-20.78-10.51-31.16-.61-1.82-3.51-1.04-2.89.8 3.5 10.39 7 20.78 10.51 31.16.61 1.82 3.51 1.04 2.89-.8z"/><path class="st4" d="M40.56 452.94c-1.36-2.92-4.65-4.07-7.63-4.44-1.92-.24-1.89 2.76 0 3 1.98.25 4.14 1.04 5.04 2.96.82 1.74 3.41.22 2.59-1.52zm2.19 52.23c5.82-1.83 12.1-8.11 10.6-14.6-.43-1.88-3.33-1.09-2.89.8 1.1 4.76-4.34 9.6-8.51 10.91-1.84.58-1.05 3.47.8 2.89z"/><path class="st4" d="M41.43 499.42c3.97-1.2 6.65-4.97 5.48-9.11-.53-1.86-3.42-1.07-2.89.8.72 2.54-.96 4.69-3.38 5.42-1.85.55-1.06 3.45.79 2.89z"/><path class="st4" d="M44.98 514.98c-6.56-3.54-13.4-9.51-11.68-17.77 1.1-5.29 6.49-8.74 11.38-5.82 1.67.99 3.17-1.6 1.51-2.59-6.26-3.73-12.71-.11-15.33 6.13-4.09 9.74 4.88 18.48 12.6 22.65 1.71.91 3.22-1.68 1.52-2.6zm-19.54-16.15c.96 2.8 3 7.57 6.79 6.52 1.86-.51 1.07-3.41-.8-2.89-.59.16-1.1-.5-1.42-.93-.77-1.04-1.27-2.28-1.68-3.5-.62-1.82-3.52-1.03-2.89.8z"/><path class="st4" d="M36.88 497.11c.56 8.2 4.21 14.87 12.57 16.89 1.88.46 2.68-2.44.8-2.89-7.01-1.7-9.89-7.12-10.37-14-.13-1.92-3.14-1.93-3 0zm18.68 13.01c.84-4.26-.61-8.97-2.06-12.93-.66-1.8-3.56-1.02-2.89.8 1.24 3.39 2.78 7.68 2.06 11.34-.38 1.88 2.51 2.69 2.89.79zm-6.39.95c1.29-2.77.77-6.04-.22-8.83-.64-1.81-3.54-1.03-2.89.8.68 1.9 1.43 4.56.52 6.51-.81 1.75 1.77 3.27 2.59 1.52z"/></g><g id="logo"><path class="st6" d="M390.44 642.17c-5.29 4.34-13.4 3.12-18.13-2.73L79.04 276.55c-4.73-5.85-4.28-14.11 1.01-18.46L238.8 127.7c5.29-4.34 13.41-3.12 18.14 2.73l293.27 362.9c4.73 5.85 4.28 14.12-1.01 18.46L390.44 642.17z"/><path class="st2" d="M201.96 209.87c1.53 1.88 1.09 4.79-.99 6.51l-27.07 22.43c-2.08 1.72-5 1.59-6.53-.29-1.53-1.88-1.09-4.79.99-6.51l27.07-22.43c2.07-1.72 5-1.59 6.53.29zM504.01 458.5L350.55 586.17 124.2 309.62l153.46-127.66z"/><ellipse transform="matrix(1 -.023 .023 1 -12.698 10.602)" class="st2" cx="447.95" cy="549.42" rx="21.85" ry="22.03"/><path class="st5" d="M455.33 547.08c1.72 2.05 1.43 5.15-.65 6.92l-4.22 3.61c-2.08 1.77-5.16 1.55-6.88-.5l-3.5-4.16c-1.72-2.05-1.43-5.15.65-6.92l4.22-3.61c2.08-1.77 5.16-1.55 6.88.5l3.5 4.16z"/><ellipse transform="matrix(1 -.023 .023 1 -4.906 4.148)" class="st2" cx="174.96" cy="211.9" rx="5.91" ry="5.68"/><path d="M356.53 328.5c2.24 4.69.44 10.14-4.95 12.72l-96.01 45.92c-5.39 2.58-11.94 1.12-14.18-3.57l-13.53-28.29c-2.24-4.69 1.11-9.9 6.5-12.48l96.01-45.92c5.39-2.58 10.39-1.36 12.63 3.33l13.53 28.29z"/><path d="M355.09 328.9c2.78 6.93-2.44 10.15-7.64 12.64-4.57 2.18-9.14 4.37-13.7 6.55-14.17 6.78-28.35 13.56-42.52 20.34-11.13 5.32-22.26 10.64-33.38 15.97-4.86 2.33-12.1 4.79-15.17-1.62l-7.59-15.87c-2.71-5.66-9.03-13.84-4.23-19.71 2.12-2.59 6.23-4.04 9.22-5.47l35.88-17.16c13.84-6.62 27.67-13.23 41.51-19.85 3.96-1.89 7.92-3.79 11.88-5.68.6-.28 1.19-.57 1.79-.85 5.17-2.47 9.14-.24 11.37 4.42 4.25 8.89 8.5 17.78 12.75 26.66.83 1.75 3.42.22 2.59-1.51-2.4-5.01-4.79-10.02-7.19-15.03-2.23-4.66-4.03-10.66-7.26-14.76-6.62-8.4-18.25-.23-25.54 3.26-25.98 12.42-51.96 24.85-77.94 37.27-7.99 3.82-17.57 8.71-12.56 19.18 3.08 6.44 6.16 12.88 9.24 19.33 2.44 5.1 3.97 10.25 9.72 12.37 7.42 2.74 18.67-5.06 25.02-8.1 13.99-6.69 27.97-13.38 41.96-20.07 10.59-5.06 21.18-10.13 31.77-15.19 7.36-3.52 17.05-7.63 12.92-17.9-.72-1.79-3.63-1.02-2.9.78zm-61.76 146.8c-2.96-10.25-7.8-15.15-21.2-24.7l6.73-11.75c14.91 12.49 17.53 20.5 14.54 36.2m1.12-49.04c3.95 9.91 9.24 14.32 23.5 22.51l-5.55 12.35c-16.05-10.98-19.44-18.69-18-34.61"/><path d="M281.8 444.17c6.87 4.03 12.01 4.21 24.18 2.5l2.39 9.83c-14.5.89-20.04-2.11-26.48-12.15m26.27-29.64c3.95 9.91 9.24 14.32 23.5 22.51l-5.55 12.35c-16.06-10.98-19.45-18.7-18-34.61m107.32-35.46c-7.69-7.39-14.33-9.21-30.71-10.77l-.06-13.54c19.16 3.35 25.44 8.97 30.71 24.05m-28.1-15.21c.65 9.34 3.9 14.45 13.64 25.11l-7.94 8.84c-10.49-13.47-11.27-20.83-5.81-33.75m-7.54 42.95c-2.97-10.25-7.8-15.15-21.19-24.7l6.73-11.75c14.91 12.49 17.53 20.5 14.54 36.2m-41.87 32.93c-2.96-10.25-7.8-15.15-21.2-24.7l6.73-11.75c14.91 12.49 17.53 20.5 14.54 36.2m1.12-49.04c3.95 9.91 9.24 14.32 23.5 22.51l-5.55 12.35c-16.06-10.98-19.45-18.69-18-34.61"/><path d="M326.3 408.33c6.87 4.03 12.01 4.21 24.18 2.5l2.39 9.82c-14.5.89-20.03-2.11-26.48-12.15m54.27-23.45c6.72-2.3 9.83-5.68 15.75-14.91l8.04 4.1c-7.83 10.33-13.08 12.33-23.63 10.85m4.93 12.24c-10.2 6.39-12.62 5.76-23.49 3.17l.96 11.17c12.03-2.06 14.75-2.46 22.63-14.54"/><path class="st1" d="M365.47 335.82c4 4.98 3.64 11.8-1.69 16.08l-94.89 76.23c-5.33 4.28-13.22 4.09-17.22-.88l-24.14-30.05c-4-4.98-1.8-11.88 3.53-16.16l94.89-76.24c5.33-4.28 11.39-4.01 15.39.97l24.13 30.05z"/><path class="st4" d="M254.61 379.38c1.24-1 2.51-1.73 3.8-2.2 1.29-.46 2.58-.64 3.85-.54 1.28.1 2.51.49 3.69 1.16 1.18.67 2.27 1.63 3.27 2.87 1 1.24 1.7 2.51 2.11 3.81.4 1.3.52 2.58.35 3.85-.17 1.27-.62 2.49-1.35 3.65-.73 1.16-1.71 2.24-2.96 3.25l-9.67 7.79 9.57 11.88-2.64 2.13-22.34-27.73 12.32-9.92zm10.37 14.06c1.84-1.48 2.95-3.15 3.34-5 .39-1.85-.19-3.73-1.73-5.65-1.54-1.92-3.26-2.88-5.15-2.89-1.89-.01-3.75.72-5.59 2.2l-9.09 7.32 9.14 11.34 9.08-7.32zm9.98-30.45l33.21 18.96-2.83 2.28-10.32-5.9-12.62 10.17 3.61 11.31-2.8 2.25-11.2-36.71 2.95-2.36zm17.35 13.82l-16.81-9.89 5.9 18.69 10.91-8.8zm15.82-3.98c1.24.58 2.49.83 3.77.74 1.27-.09 2.57-.46 3.88-1.11 1.31-.65 2.6-1.49 3.87-2.51.72-.58 1.43-1.32 2.12-2.22.69-.9 1.22-1.87 1.59-2.92s.52-2.12.44-3.23c-.08-1.11-.53-2.17-1.34-3.18-.63-.78-1.34-1.31-2.15-1.6-.81-.29-1.65-.4-2.52-.34-.87.06-1.74.24-2.61.53-.87.3-1.69.63-2.46.99l-7.4 3.46c-.97.44-1.96.81-2.97 1.12-1.01.3-2.01.43-3 .37-.99-.06-1.96-.32-2.91-.79-.95-.47-1.87-1.25-2.75-2.33-.54-.67-1.05-1.57-1.52-2.68-.47-1.12-.67-2.36-.61-3.74.07-1.38.5-2.84 1.29-4.4s2.16-3.12 4.1-4.68c1.37-1.11 2.83-1.98 4.36-2.62 1.54-.64 3.06-.97 4.58-1 1.52-.03 2.98.27 4.41.9 1.42.63 2.71 1.65 3.85 3.07l-2.64 2.13c-.91-1.02-1.89-1.75-2.96-2.2-1.06-.44-2.15-.66-3.27-.63-1.11.02-2.23.26-3.34.71-1.11.45-2.16 1.07-3.14 1.86-.91.73-1.7 1.53-2.39 2.4-.69.87-1.17 1.78-1.46 2.71-.29.94-.35 1.91-.17 2.93.17 1.01.68 2.04 1.51 3.07.52.65 1.08 1.12 1.69 1.42.6.3 1.24.47 1.9.49.66.02 1.33-.06 2-.26.67-.2 1.34-.46 2.02-.79l8.1-3.78c1.19-.53 2.37-.96 3.54-1.29 1.17-.32 2.31-.47 3.42-.45 1.11.03 2.17.29 3.2.79 1.02.5 1.99 1.32 2.91 2.46.25.31.55.75.9 1.32.35.57.64 1.25.86 2.03.22.78.35 1.65.38 2.61.03.96-.16 2-.57 3.11-.4 1.12-1.07 2.29-1.99 3.53-.93 1.24-2.2 2.51-3.83 3.83-1.63 1.31-3.3 2.35-5 3.1-1.7.75-3.36 1.13-4.96 1.15-1.61.02-3.17-.37-4.68-1.16-1.51-.79-2.92-2.07-4.22-3.84l2.64-2.13c1.11 1.46 2.29 2.47 3.53 3.05zm24.46-19.71c1.24.58 2.49.83 3.77.74s2.57-.46 3.88-1.11c1.31-.65 2.6-1.49 3.87-2.51.72-.58 1.43-1.32 2.12-2.22.69-.9 1.22-1.87 1.59-2.91.37-1.05.52-2.12.44-3.23-.08-1.11-.53-2.17-1.34-3.18-.63-.78-1.34-1.31-2.15-1.6-.81-.29-1.65-.4-2.52-.34-.87.06-1.74.24-2.61.54-.87.3-1.69.63-2.46.99l-7.4 3.46c-.97.44-1.96.81-2.97 1.12-1.01.3-2.01.43-3 .37-.99-.06-1.96-.32-2.91-.79-.95-.47-1.87-1.25-2.75-2.33-.54-.67-1.05-1.57-1.52-2.68s-.67-2.36-.61-3.74.5-2.84 1.29-4.4c.79-1.56 2.16-3.12 4.1-4.68 1.37-1.11 2.83-1.98 4.36-2.62 1.54-.64 3.06-.97 4.58-1 1.52-.03 2.98.27 4.41.9 1.42.63 2.71 1.65 3.85 3.07l-2.64 2.13c-.91-1.02-1.89-1.75-2.96-2.2-1.06-.45-2.15-.66-3.27-.63-1.11.02-2.23.26-3.34.71-1.11.45-2.16 1.07-3.14 1.86-.91.73-1.7 1.53-2.39 2.4-.69.87-1.17 1.78-1.46 2.71-.29.94-.35 1.91-.17 2.93.17 1.01.68 2.04 1.51 3.07.52.65 1.08 1.12 1.69 1.42.61.3 1.24.47 1.9.49.66.02 1.33-.06 2-.27.67-.2 1.34-.46 2.02-.79l8.1-3.78c1.19-.53 2.37-.96 3.54-1.29 1.17-.32 2.31-.47 3.42-.45 1.11.03 2.17.29 3.2.79 1.02.5 1.99 1.32 2.91 2.46.25.31.55.75.9 1.32.35.57.64 1.24.86 2.03.22.78.35 1.65.38 2.61.03.96-.16 2-.57 3.11-.4 1.12-1.07 2.29-1.99 3.53-.93 1.24-2.2 2.51-3.83 3.83-1.63 1.31-3.3 2.35-5 3.1-1.7.75-3.36 1.13-4.96 1.15-1.61.02-3.17-.37-4.68-1.16s-2.92-2.07-4.21-3.84l2.64-2.13c1.1 1.45 2.28 2.46 3.52 3.04z"/></g><g id="ninja_x5F_soward"><path class="st0" d="M304.66 9.31"/><path class="st4" d="M394.4 272.4l5.07 5.85c1.27 1.46 3.38-.67 2.12-2.12l-5.07-5.85c-1.26-1.47-3.38.66-2.12 2.12zm92.13-73.86c1.47 1.87 2.93 3.74 4.4 5.61 1.19 1.52 3.3-.62 2.12-2.12-1.47-1.87-2.93-3.74-4.4-5.61-1.19-1.52-3.3.62-2.12 2.12zM283.05 10.2c6.74.04 13.48.09 20.22.13 1.94.01 1.93-2.99 0-3-6.74-.04-13.48-.09-20.22-.13-1.94-.01-1.93 2.99 0 3zm-15.78 69.38l5.98 1.44c1.88.45 2.68-2.44.8-2.89l-5.98-1.44c-1.89-.46-2.68 2.43-.8 2.89zM468.84 223.4c77.71 85.72 148.46 178.06 210.14 275.97 23.71 37.65 46.08 76.23 65.92 116.06 13.85 27.81 27.06 56.51 35.49 86.5 2.55 9.09 13.24 44.77-5.18 45.64-1.93.09-1.93 3.09 0 3 13.29-.63 13.8-16.21 12.8-26.22-2.42-24.14-12.3-47.82-21.71-69.92-15.38-36.14-33.95-70.94-53.55-104.94-25.31-43.91-52.92-86.5-81.97-128.02-48.98-69.99-102.43-136.9-159.81-200.19-1.31-1.43-3.43.69-2.13 2.12zm98.76-19.16c40.01 38.62 74.69 83.21 108.45 127.24 44.76 58.37 87.17 118.62 126.96 180.5 35.32 54.93 69.69 111.44 96 171.34 8.83 20.1 17.14 41.1 20.81 62.85 1.93 11.47 3.36 27.38-6.26 36.04-3.89 3.51-9.26 4.8-14.36 5.07-1.92.1-1.93 3.1 0 3 34.44-1.8 24.81-44.97 18.27-66.63-7.29-24.18-17.88-47.39-29.02-70-14.34-29.1-30.3-57.4-46.91-85.27-37.78-63.4-79.2-124.66-122.56-184.35-37.57-51.72-76.58-102.77-119.24-150.43-9.67-10.8-19.57-21.4-30-31.47-1.41-1.36-3.53.76-2.14 2.11z"/><path class="st4" d="M273.35 80.24c30.39 38.1 60.79 76.19 91.18 114.29 13.01 16.31 26.02 32.61 39.03 48.92 1.21 1.51 3.31-.63 2.12-2.12-30.39-38.1-60.79-76.19-91.18-114.29-13.01-16.31-26.02-32.61-39.03-48.92-1.21-1.51-3.32.63-2.12 2.12zM425.42 259.2c79.23 86.75 152.31 179.09 218.87 275.9 40.52 58.95 79.01 119.57 113.22 182.42 5.5 10.11 12.21 21.38 16.24 31.63.7 1.78 3.6 1.01 2.89-.8-4.39-11.18-10.82-21.83-16.54-32.34-13.76-25.31-28.34-50.17-43.35-74.77-50.2-82.28-105.66-161.39-165.03-237.3-39.5-50.51-80.93-99.51-124.18-146.86-1.3-1.44-3.42.69-2.12 2.12zm91.65-15.36c19.29 20.32 37.01 42.16 54.48 64.05 24.82 31.1 48.82 62.85 72.44 94.87 55.07 74.63 108.07 150.86 158.6 228.63 33.52 51.58 66.26 103.87 95.29 158.13.91 1.71 3.5.19 2.59-1.51-39.77-74.34-86.03-145.3-133.05-215.21-50.47-75.03-102.89-148.84-157.72-220.75-28.77-37.73-57.81-75.88-90.52-110.33-1.32-1.4-3.44.72-2.11 2.12z"/><path class="st0" d="M246.5 52.01"/><path class="st4" d="M275.06 67.08c11.45-8.92 22.9-17.83 34.35-26.75 1.53-1.19-.61-3.29-2.12-2.12-11.45 8.92-22.9 17.83-34.35 26.75-1.53 1.19.61 3.29 2.12 2.12z"/><path class="st4" d="M308.35 40.77c6.55-.63 13.1-1.27 19.65-1.9 1.91-.18 1.93-3.19 0-3-6.55.63-13.1 1.27-19.65 1.9-1.91.19-1.93 3.19 0 3zm-6.14-30.88c8.18 9.38 16.37 18.75 24.55 28.13 1.27 1.46 3.39-.67 2.12-2.12-8.18-9.38-16.37-18.75-24.55-28.13-1.27-1.46-3.38.67-2.12 2.12zm-21.78 59.79l32.04-25.05c1.52-1.19-.62-3.3-2.12-2.12l-32.04 25.05c-1.53 1.19.61 3.3 2.12 2.12z"/><path class="st4" d="M311.93 44.77c5.27-.42 10.54-.83 15.81-1.25 1.92-.15 1.93-3.15 0-3-5.27.42-10.54.83-15.81 1.25-1.91.15-1.93 3.15 0 3zm14.73-7.73l.06 5.33c.02 1.93 3.02 1.94 3 0l-.06-5.33c-.03-1.94-3.03-1.94-3 0z"/><path class="st4" d="M327.16 43.1l92.25 114.39c11.94 14.81 23.89 29.62 35.83 44.43 1.21 1.51 3.32-.63 2.12-2.12L365.11 85.41c-11.94-14.81-23.89-29.62-35.83-44.43-1.22-1.51-3.32.63-2.12 2.12zm69.36 229.21c30.71-24.59 61.42-49.18 92.12-73.77 1.51-1.21-.63-3.32-2.12-2.12-30.71 24.59-61.42 49.18-92.12 73.77-1.51 1.21.63 3.32 2.12 2.12zm5.07 5.94c30.49-24.7 60.97-49.4 91.46-74.1 1.5-1.22-.63-3.33-2.12-2.12-30.49 24.7-60.97 49.4-91.46 74.1-1.5 1.22.64 3.33 2.12 2.12z"/><path class="st4" d="M461.27 198.18l9.72 11.22c1.27 1.46 3.38-.67 2.12-2.12l-9.72-11.22c-1.27-1.47-3.38.66-2.12 2.12zm-60.51 48.39c3.16 3.96 6.32 7.93 9.48 11.89 1.21 1.51 3.31-.62 2.12-2.12-3.16-3.96-6.32-7.93-9.48-11.89-1.2-1.52-3.31.62-2.12 2.12z"/><path class="st4" d="M402.88 246.57l60.51-48.39c1.51-1.21-.63-3.32-2.12-2.12l-60.51 48.39c-1.51 1.21.63 3.31 2.12 2.12zM249.37 35.28l33.45-24.9c1.53-1.14.04-3.75-1.51-2.59-11.15 8.3-22.3 16.6-33.46 24.9-1.52 1.14-.03 3.75 1.52 2.59zm28.18 33.02c-1.83 3.07-3.67 6.15-5.5 9.22-.99 1.67 1.6 3.17 2.59 1.51 1.83-3.07 3.67-6.15 5.5-9.22.99-1.66-1.6-3.17-2.59-1.51zm-5.58-2.11c-1.8 3.19-3.59 6.38-5.39 9.57-.95 1.69 1.64 3.2 2.59 1.51 1.8-3.19 3.59-6.38 5.39-9.56.95-1.69-1.64-3.21-2.59-1.52z"/><path class="st4" d="M245.44 53.07l20.64 25.26c1.22 1.5 3.33-.64 2.12-2.12l-20.64-25.26c-1.23-1.5-3.34.64-2.12 2.12z"/><path class="st4" d="M247.12 33.99c-.68 6.01-1.36 12.02-2.03 18.03-.22 1.92 2.79 1.9 3 0 .68-6.01 1.36-12.02 2.03-18.03.21-1.92-2.79-1.9-3 0zm266.79 211.9c19.49-12.64 37.76-27.08 55.81-41.65 1.51-1.22-.63-3.32-2.12-2.12-17.86 14.42-35.93 28.68-55.21 41.18-1.61 1.04-.11 3.64 1.52 2.59z"/><path class="st4" d="M491.3 221.4l20.04 24.51c1.23 1.5 3.33-.64 2.12-2.12l-20.04-24.51c-1.22-1.5-3.33.63-2.12 2.12zm60.71-47.04c5.59 7.52 11.18 15.03 16.77 22.55 1.14 1.53 3.75.04 2.59-1.51-5.59-7.52-11.18-15.03-16.77-22.55-1.14-1.53-3.75-.04-2.59 1.51zm16.96 22.25c-.42 1.63-.85 3.25-1.27 4.88-.49 1.87 2.41 2.67 2.89.8.42-1.63.85-3.25 1.27-4.88.49-1.88-2.4-2.67-2.89-.8z"/><path class="st4" d="M493.11 220.88c20.32-15.33 40.64-30.65 60.96-45.98 1.52-1.15.03-3.76-1.51-2.59-20.32 15.33-40.64 30.65-60.95 45.98-1.54 1.15-.05 3.76 1.5 2.59z"/></g></svg>