<?xml version="1.0" encoding="utf-8"?>
<!-- Generator: Adobe Illustrator 16.0.0, SVG Export Plug-In . SVG Version: 6.00 Build 0)  -->
<!DOCTYPE svg PUBLIC "-//W3C//DTD SVG 1.1//EN" "http://www.w3.org/Graphics/SVG/1.1/DTD/svg11.dtd">
<svg version="1.1" id="Layer_1" xmlns="http://www.w3.org/2000/svg" xmlns:xlink="http://www.w3.org/1999/xlink" x="0px" y="0px"
	 width="234px" height="480px" viewBox="0 0 234 480" enable-background="new 0 0 234 480" xml:space="preserve">
<g>
	<path fill="none" stroke="#000000" stroke-width="2" stroke-miterlimit="10" d="M233,455.34c0,13.891-11.04,25.66-25.27,25.66
		H25.27C11.04,481-1,469.24-1,455.34V25.66C-1,11.76,11.04,1,25.27,1h182.46C221.96,1,233,11.76,233,25.66V455.34z"/>
	<path fill="none" stroke="#000000" stroke-width="2" stroke-miterlimit="10" d="M135,47.17c0,1.01-0.82,1.83-1.83,1.83H98.83
		C97.82,49,97,48.18,97,47.17v-0.33c0-1.01,0.82-1.83,1.83-1.83h34.33c1.01,0,1.83,0.82,1.83,1.83v0.33H135z"/>
	<circle fill="none" stroke="#000000" stroke-width="2" stroke-miterlimit="10" cx="116.67" cy="29.34" r="4.33"/>
	<circle fill="none" stroke="#000000" stroke-width="2" stroke-miterlimit="10" cx="86.67" cy="46.67" r="3.33"/>
	<circle fill="none" stroke="#000000" stroke-width="2" stroke-miterlimit="10" cx="116.33" cy="449.33" r="20.67"/>
	<path fill="none" stroke="#000000" stroke-width="2" stroke-miterlimit="10" d="M123,455c0,1.1-0.9,2-2,2h-10c-1.1,0-2-0.9-2-2v-10
		c0-1.1,0.9-2,2-2h10c1.1,0,2,0.9,2,2V455z"/>
	<path fill="none" stroke="#000000" stroke-width="2" stroke-miterlimit="10" d="M218,416c0,1.66-1.34,3-3,3H18c-1.66,0-3-1.34-3-3
		V72c0-1.66,1.34-3,3-3h197c1.66,0,3,1.34,3,3V416z"/>
	<polygon fill="none" stroke="#000000" stroke-width="2" stroke-miterlimit="10" points="218,419 218,419 15,419 15,419 15,86 
		15,86 218,86 218,86 	"/>
</g>
<g>
	<rect x="27.5" y="77.5" fill="none" stroke="#000000" stroke-miterlimit="10" width="2" height="4"/>
	<rect x="30.5" y="75.5" fill="none" stroke="#000000" stroke-miterlimit="10" width="2" height="6"/>
	<rect x="33.5" y="73.5" fill="none" stroke="#000000" stroke-miterlimit="10" width="2" height="8"/>
	<rect x="36.5" y="71.5" fill="none" stroke="#000000" stroke-miterlimit="10" width="2" height="10"/>
	<rect x="24.5" y="79.5" fill="none" stroke="#000000" stroke-miterlimit="10" width="2" height="2"/>
</g>
<text transform="matrix(1 0 0 1 97.3345 80.332)" font-family="'HelveticaNeue'" font-size="9">10:10 AM</text>
<g>
	<path fill="none" stroke="#000000" stroke-miterlimit="10" d="M210.49,78.58c2.68-0.45,2.74-3.13,0.1-3.72"/>
	<rect x="195.5" y="73.5" fill="none" stroke="#000000" stroke-miterlimit="10" width="15" height="7"/>
</g>
<path fill="none" stroke="#000000" stroke-miterlimit="10" d="M19.5,377.67"/>
<g>
	<g>
		<path fill="none" stroke="#000000" stroke-miterlimit="10" d="M17.5,385c-0.281-9.12,3.316-13.24,11.568-13.5h176.039
			c9.307,0.26,10.554,5.42,10.393,14.5"/>
		<line fill="none" stroke="#000000" stroke-miterlimit="10" x1="17.5" y1="385" x2="17.5" y2="419"/>
		<line fill="none" stroke="#000000" stroke-miterlimit="10" x1="215.5" y1="386" x2="215.5" y2="419"/>
	</g>
	<g>
		<path fill="none" stroke="#000000" stroke-miterlimit="10" d="M17.5,378c-0.281-9.12,3.316-13.24,11.568-13.5h176.039
			c9.307,0.26,10.554,5.42,10.393,14.5"/>
		<line fill="none" stroke="#000000" stroke-miterlimit="10" x1="17.5" y1="378" x2="17.5" y2="383"/>
		<line fill="none" stroke="#000000" stroke-miterlimit="10" x1="215.5" y1="378" x2="215.5" y2="383"/>
	</g>
	<g>
		<path fill="none" stroke="#000000" stroke-miterlimit="10" d="M17.5,371c-0.281-9.12,3.316-13.24,11.568-13.5h176.039
			c9.307,0.26,10.554,5.42,10.393,14.5"/>
		<line fill="none" stroke="#000000" stroke-miterlimit="10" x1="17.5" y1="371" x2="17.5" y2="376"/>
		<line fill="none" stroke="#000000" stroke-miterlimit="10" x1="215.5" y1="371" x2="215.5" y2="376"/>
	</g>
</g>
</svg>
